<svg width="949" height="247" viewBox="0 0 949 247" fill="none" xmlns="http://www.w3.org/2000/svg">
<g clip-path="url(#clip0_1259_1605)">
<rect width="949" height="247" rx="25" fill="#FF9066"/>
<path opacity="0.79" d="M737 64L741.099 122.907C741.583 129.873 747.127 135.417 754.093 135.901L813 140L754.093 144.099C747.127 144.583 741.583 150.127 741.099 157.093L737 216L732.901 157.093C732.417 150.127 726.873 144.583 719.907 144.099L661 140L719.907 135.901C726.873 135.417 732.417 129.873 732.901 122.907L737 64Z" fill="white"/>
<path opacity="0.15" d="M834 -65L838.099 -6.0932C838.583 0.872803 844.127 6.41655 851.093 6.90125L910 11L851.093 15.0988C844.127 15.5835 838.583 21.1272 838.099 28.0932L834 87L829.901 28.0932C829.417 21.1272 823.873 15.5835 816.907 15.0988L758 11L816.907 6.90125C823.873 6.41655 829.417 0.872795 829.901 -6.09321L834 -65Z" fill="white"/>
<path opacity="0.15" d="M633 160L637.099 218.907C637.583 225.873 643.127 231.417 650.093 231.901L709 236L650.093 240.099C643.127 240.583 637.583 246.127 637.099 253.093L633 312L628.901 253.093C628.417 246.127 622.873 240.583 615.907 240.099L557 236L615.907 231.901C622.873 231.417 628.417 225.873 628.901 218.907L633 160Z" fill="white"/>
<path opacity="0.15" d="M910 160L912.212 191.793C912.697 198.759 918.241 204.303 925.207 204.788L957 207L925.207 209.212C918.241 209.697 912.697 215.241 912.212 222.207L910 254L907.788 222.207C907.303 215.241 901.759 209.697 894.793 209.212L863 207L894.793 204.788C901.759 204.303 907.303 198.759 907.788 191.793L910 160Z" fill="white"/>
<path opacity="0.15" d="M615.5 -10L618.46 32.5452C618.945 39.5112 624.489 45.055 631.455 45.5397L674 48.5L631.455 51.4603C624.489 51.945 618.945 57.4888 618.46 64.4548L615.5 107L612.54 64.4548C612.055 57.4888 606.511 51.945 599.545 51.4603L557 48.5L599.545 45.5397C606.511 45.055 612.055 39.5112 612.54 32.5452L615.5 -10Z" fill="white"/>
<path d="M77.879 104L68.636 90.701L72.731 88.166L83.612 104H77.879ZM59.822 104V76.7H64.814V104H59.822ZM63.293 92.495V88.127H72.497V92.495H63.293ZM73.199 90.935L68.558 90.311L77.879 76.7H83.261L73.199 90.935ZM95.9518 104.273C93.6378 104.273 91.6098 103.818 89.8678 102.908C88.1518 101.972 86.8128 100.698 85.8508 99.086C84.9148 97.474 84.4468 95.641 84.4468 93.587C84.4468 91.507 84.9018 89.674 85.8118 88.088C86.7478 86.476 88.0218 85.215 89.6338 84.305C91.2718 83.395 93.1308 82.94 95.2108 82.94C97.2388 82.94 99.0458 83.382 100.632 84.266C102.218 85.15 103.466 86.398 104.376 88.01C105.286 89.622 105.741 91.52 105.741 93.704C105.741 93.912 105.728 94.146 105.702 94.406C105.702 94.666 105.689 94.913 105.663 95.147H88.3078V91.91H103.089L101.178 92.924C101.204 91.728 100.957 90.675 100.437 89.765C99.9168 88.855 99.2018 88.14 98.2918 87.62C97.4078 87.1 96.3808 86.84 95.2108 86.84C94.0148 86.84 92.9618 87.1 92.0518 87.62C91.1678 88.14 90.4658 88.868 89.9458 89.804C89.4518 90.714 89.2048 91.793 89.2048 93.041V93.821C89.2048 95.069 89.4908 96.174 90.0628 97.136C90.6348 98.098 91.4408 98.839 92.4808 99.359C93.5208 99.879 94.7168 100.139 96.0688 100.139C97.2388 100.139 98.2918 99.957 99.2278 99.593C100.164 99.229 100.996 98.657 101.724 97.877L104.337 100.88C103.401 101.972 102.218 102.817 100.788 103.415C99.3838 103.987 97.7718 104.273 95.9518 104.273ZM122.617 104.273C120.927 104.273 119.38 103.883 117.976 103.103C116.598 102.323 115.493 101.153 114.661 99.593C113.855 98.007 113.452 96.005 113.452 93.587C113.452 91.143 113.842 89.141 114.622 87.581C115.428 86.021 116.52 84.864 117.898 84.11C119.276 83.33 120.849 82.94 122.617 82.94C124.671 82.94 126.478 83.382 128.038 84.266C129.624 85.15 130.872 86.385 131.782 87.971C132.718 89.557 133.186 91.429 133.186 93.587C133.186 95.745 132.718 97.63 131.782 99.242C130.872 100.828 129.624 102.063 128.038 102.947C126.478 103.831 124.671 104.273 122.617 104.273ZM111.073 111.566V83.174H115.714V88.088L115.558 93.626L115.948 99.164V111.566H111.073ZM122.071 100.1C123.241 100.1 124.281 99.84 125.191 99.32C126.127 98.8 126.868 98.046 127.414 97.058C127.96 96.07 128.233 94.913 128.233 93.587C128.233 92.235 127.96 91.078 127.414 90.116C126.868 89.128 126.127 88.374 125.191 87.854C124.281 87.334 123.241 87.074 122.071 87.074C120.901 87.074 119.848 87.334 118.912 87.854C117.976 88.374 117.235 89.128 116.689 90.116C116.143 91.078 115.87 92.235 115.87 93.587C115.87 94.913 116.143 96.07 116.689 97.058C117.235 98.046 117.976 98.8 118.912 99.32C119.848 99.84 120.901 100.1 122.071 100.1ZM138.038 104V83.174H142.913V104H138.038ZM140.495 79.742C139.585 79.742 138.831 79.456 138.233 78.884C137.661 78.312 137.375 77.623 137.375 76.817C137.375 75.985 137.661 75.296 138.233 74.75C138.831 74.178 139.585 73.892 140.495 73.892C141.405 73.892 142.146 74.165 142.718 74.711C143.316 75.231 143.615 75.894 143.615 76.7C143.615 77.558 143.329 78.286 142.757 78.884C142.185 79.456 141.431 79.742 140.495 79.742ZM170.225 104.39C168.509 104.39 166.975 104.13 165.623 103.61C164.271 103.09 163.101 102.297 162.113 101.231C161.151 100.139 160.41 98.761 159.89 97.097C159.37 95.433 159.11 93.457 159.11 91.169C159.11 89.505 159.253 87.984 159.539 86.606C159.825 85.228 160.254 83.993 160.826 82.901C161.398 81.783 162.113 80.795 162.971 79.937C163.855 79.079 164.882 78.364 166.052 77.792C167.222 77.22 168.548 76.778 170.03 76.466L179.702 74.399L180.404 78.767L171.629 80.561C171.135 80.665 170.537 80.821 169.835 81.029C169.159 81.211 168.457 81.497 167.729 81.887C167.027 82.251 166.364 82.784 165.74 83.486C165.142 84.162 164.648 85.046 164.258 86.138C163.894 87.204 163.712 88.543 163.712 90.155C163.712 90.649 163.725 91.026 163.751 91.286C163.803 91.52 163.842 91.78 163.868 92.066C163.92 92.326 163.946 92.716 163.946 93.236L162.113 91.325C162.633 89.999 163.348 88.868 164.258 87.932C165.194 86.97 166.273 86.242 167.495 85.748C168.743 85.228 170.095 84.968 171.551 84.968C173.501 84.968 175.23 85.371 176.738 86.177C178.246 86.983 179.429 88.114 180.287 89.57C181.145 91.026 181.574 92.677 181.574 94.523C181.574 96.447 181.106 98.15 180.17 99.632C179.234 101.114 177.908 102.284 176.192 103.142C174.502 103.974 172.513 104.39 170.225 104.39ZM170.615 100.451C171.785 100.451 172.812 100.204 173.696 99.71C174.606 99.19 175.308 98.488 175.802 97.604C176.322 96.72 176.582 95.732 176.582 94.64C176.582 93.548 176.322 92.599 175.802 91.793C175.308 90.961 174.606 90.298 173.696 89.804C172.812 89.31 171.759 89.063 170.537 89.063C169.367 89.063 168.314 89.297 167.378 89.765C166.468 90.233 165.753 90.883 165.233 91.715C164.739 92.521 164.492 93.457 164.492 94.523C164.492 95.615 164.752 96.616 165.272 97.526C165.792 98.436 166.507 99.151 167.417 99.671C168.353 100.191 169.419 100.451 170.615 100.451ZM198.662 104V99.788L198.389 98.891V91.52C198.389 90.09 197.96 88.985 197.102 88.205C196.244 87.399 194.944 86.996 193.202 86.996C192.032 86.996 190.875 87.178 189.731 87.542C188.613 87.906 187.664 88.413 186.884 89.063L184.973 85.514C186.091 84.656 187.417 84.019 188.951 83.603C190.511 83.161 192.123 82.94 193.787 82.94C196.803 82.94 199.13 83.668 200.768 85.124C202.432 86.554 203.264 88.777 203.264 91.793V104H198.662ZM192.11 104.273C190.55 104.273 189.185 104.013 188.015 103.493C186.845 102.947 185.935 102.206 185.285 101.27C184.661 100.308 184.349 99.229 184.349 98.033C184.349 96.863 184.622 95.81 185.168 94.874C185.74 93.938 186.663 93.197 187.937 92.651C189.211 92.105 190.901 91.832 193.007 91.832H199.052V95.069H193.358C191.694 95.069 190.576 95.342 190.004 95.888C189.432 96.408 189.146 97.058 189.146 97.838C189.146 98.722 189.497 99.424 190.199 99.944C190.901 100.464 191.876 100.724 193.124 100.724C194.32 100.724 195.386 100.451 196.322 99.905C197.284 99.359 197.973 98.553 198.389 97.487L199.208 100.412C198.74 101.634 197.895 102.583 196.673 103.259C195.477 103.935 193.956 104.273 192.11 104.273ZM209.297 104V83.174H214.172V96.902L225.677 83.174H230.123V104H225.248V90.272L213.782 104H209.297ZM219.398 80.717C217.318 80.717 215.719 80.236 214.601 79.274C213.483 78.286 212.911 76.856 212.885 74.984H216.122C216.148 75.92 216.434 76.661 216.98 77.207C217.552 77.753 218.345 78.026 219.359 78.026C220.347 78.026 221.127 77.753 221.699 77.207C222.297 76.661 222.609 75.92 222.635 74.984H225.95C225.924 76.856 225.339 78.286 224.195 79.274C223.077 80.236 221.478 80.717 219.398 80.717ZM233.638 103.961L233.872 99.866C234.054 99.892 234.223 99.918 234.379 99.944C234.535 99.97 234.678 99.983 234.808 99.983C235.614 99.983 236.238 99.736 236.68 99.242C237.122 98.748 237.447 98.085 237.655 97.253C237.889 96.395 238.045 95.446 238.123 94.406C238.227 93.34 238.305 92.274 238.357 91.208L238.708 83.174H255.556V104H250.681V85.982L251.812 87.308H241.906L242.959 85.943L242.686 91.442C242.608 93.288 242.452 95.004 242.218 96.59C242.01 98.15 241.672 99.515 241.204 100.685C240.762 101.855 240.138 102.765 239.332 103.415C238.552 104.065 237.551 104.39 236.329 104.39C235.939 104.39 235.51 104.351 235.042 104.273C234.6 104.195 234.132 104.091 233.638 103.961ZM274.758 104V99.788L274.485 98.891V91.52C274.485 90.09 274.056 88.985 273.198 88.205C272.34 87.399 271.04 86.996 269.298 86.996C268.128 86.996 266.971 87.178 265.827 87.542C264.709 87.906 263.76 88.413 262.98 89.063L261.069 85.514C262.187 84.656 263.513 84.019 265.047 83.603C266.607 83.161 268.219 82.94 269.883 82.94C272.899 82.94 275.226 83.668 276.864 85.124C278.528 86.554 279.36 88.777 279.36 91.793V104H274.758ZM268.206 104.273C266.646 104.273 265.281 104.013 264.111 103.493C262.941 102.947 262.031 102.206 261.381 101.27C260.757 100.308 260.445 99.229 260.445 98.033C260.445 96.863 260.718 95.81 261.264 94.874C261.836 93.938 262.759 93.197 264.033 92.651C265.307 92.105 266.997 91.832 269.103 91.832H275.148V95.069H269.454C267.79 95.069 266.672 95.342 266.1 95.888C265.528 96.408 265.242 97.058 265.242 97.838C265.242 98.722 265.593 99.424 266.295 99.944C266.997 100.464 267.972 100.724 269.22 100.724C270.416 100.724 271.482 100.451 272.418 99.905C273.38 99.359 274.069 98.553 274.485 97.487L275.304 100.412C274.836 101.634 273.991 102.583 272.769 103.259C271.573 103.935 270.052 104.273 268.206 104.273ZM285.392 104V83.174H290.267V91.637H300.758V83.174H305.633V104H300.758V95.771H290.267V104H285.392ZM333.188 104V83.174H338.063V104H333.188ZM322.307 90.038C324.985 90.038 327.013 90.636 328.391 91.832C329.795 93.028 330.497 94.718 330.497 96.902C330.497 99.164 329.717 100.932 328.157 102.206C326.623 103.454 324.439 104.065 321.605 104.039L312.167 104V83.174H317.042V89.999L322.307 90.038ZM321.176 100.451C322.606 100.477 323.698 100.178 324.452 99.554C325.206 98.93 325.583 98.02 325.583 96.824C325.583 95.628 325.206 94.77 324.452 94.25C323.724 93.704 322.632 93.418 321.176 93.392L317.042 93.353V100.412L321.176 100.451ZM354.093 104.273C351.909 104.273 349.959 103.818 348.243 102.908C346.553 101.972 345.227 100.698 344.265 99.086C343.303 97.474 342.822 95.641 342.822 93.587C342.822 91.507 343.303 89.674 344.265 88.088C345.227 86.476 346.553 85.215 348.243 84.305C349.959 83.395 351.909 82.94 354.093 82.94C356.121 82.94 357.902 83.356 359.436 84.188C360.996 84.994 362.179 86.19 362.985 87.776L359.241 89.96C358.617 88.972 357.85 88.244 356.94 87.776C356.056 87.308 355.094 87.074 354.054 87.074C352.858 87.074 351.779 87.334 350.817 87.854C349.855 88.374 349.101 89.128 348.555 90.116C348.009 91.078 347.736 92.235 347.736 93.587C347.736 94.939 348.009 96.109 348.555 97.097C349.101 98.059 349.855 98.8 350.817 99.32C351.779 99.84 352.858 100.1 354.054 100.1C355.094 100.1 356.056 99.866 356.94 99.398C357.85 98.93 358.617 98.202 359.241 97.214L362.985 99.398C362.179 100.958 360.996 102.167 359.436 103.025C357.902 103.857 356.121 104.273 354.093 104.273Z" fill="white"/>
<path d="M59.026 44.042L58.975 42.512L66.183 35.1H67.628L62.375 40.608L61.661 41.373L59.026 44.042ZM57.938 47V35.1H59.196V47H57.938ZM66.489 47L61.355 41.084L62.205 40.166L67.985 47H66.489ZM74.6519 47.102C73.1333 47.102 71.9376 46.6657 71.0649 45.793C70.1923 44.9203 69.7559 43.6283 69.7559 41.917V35.1H71.0139V41.866C71.0139 43.2713 71.3313 44.3083 71.9659 44.977C72.6006 45.6457 73.4959 45.98 74.6519 45.98C75.8193 45.98 76.7203 45.6457 77.3549 44.977C77.9896 44.3083 78.3069 43.2713 78.3069 41.866V35.1H79.5309V41.917C79.5309 43.6283 79.0946 44.9203 78.2219 45.793C77.3606 46.6657 76.1706 47.102 74.6519 47.102ZM83.3218 47V35.1H87.7758C88.7845 35.1 89.6515 35.2643 90.3768 35.593C91.1021 35.9103 91.6575 36.375 92.0428 36.987C92.4395 37.5877 92.6378 38.3187 92.6378 39.18C92.6378 40.0187 92.4395 40.744 92.0428 41.356C91.6575 41.9567 91.1021 42.4213 90.3768 42.75C89.6515 43.0673 88.7845 43.226 87.7758 43.226H84.0188L84.5798 42.648V47H83.3218ZM91.4478 47L88.3878 42.682H89.7478L92.8248 47H91.4478ZM84.5798 42.75L84.0188 42.155H87.7418C88.9318 42.155 89.8328 41.8943 90.4448 41.373C91.0681 40.8517 91.3798 40.1207 91.3798 39.18C91.3798 38.228 91.0681 37.4913 90.4448 36.97C89.8328 36.4487 88.9318 36.188 87.7418 36.188H84.0188L84.5798 35.593V42.75ZM98.8879 47.102C98.0039 47.102 97.1539 46.9603 96.3379 46.677C95.5333 46.3823 94.9099 46.0083 94.4679 45.555L94.9609 44.586C95.3803 44.994 95.9413 45.3397 96.6439 45.623C97.3579 45.895 98.1059 46.031 98.8879 46.031C99.6359 46.031 100.242 45.9403 100.707 45.759C101.183 45.5663 101.529 45.3113 101.744 44.994C101.971 44.6767 102.084 44.3253 102.084 43.94C102.084 43.4753 101.948 43.1013 101.676 42.818C101.415 42.5347 101.07 42.3137 100.639 42.155C100.208 41.985 99.7323 41.8377 99.2109 41.713C98.6896 41.5883 98.1683 41.458 97.6469 41.322C97.1256 41.1747 96.6439 40.982 96.2019 40.744C95.7713 40.506 95.4199 40.1943 95.1479 39.809C94.8873 39.4123 94.7569 38.8967 94.7569 38.262C94.7569 37.6727 94.9099 37.1343 95.2159 36.647C95.5333 36.1483 96.0149 35.7517 96.6609 35.457C97.3069 35.151 98.1343 34.998 99.1429 34.998C99.8116 34.998 100.475 35.0943 101.132 35.287C101.789 35.4683 102.356 35.7233 102.832 36.052L102.407 37.055C101.897 36.715 101.353 36.4657 100.775 36.307C100.208 36.1483 99.6586 36.069 99.1259 36.069C98.4119 36.069 97.8226 36.1653 97.3579 36.358C96.8933 36.5507 96.5476 36.8113 96.3209 37.14C96.1056 37.4573 95.9979 37.82 95.9979 38.228C95.9979 38.6927 96.1283 39.0667 96.3889 39.35C96.6609 39.6333 97.0123 39.8543 97.4429 40.013C97.8849 40.1717 98.3666 40.3133 98.8879 40.438C99.4093 40.5627 99.9249 40.6987 100.435 40.846C100.956 40.9933 101.432 41.186 101.863 41.424C102.305 41.6507 102.656 41.9567 102.917 42.342C103.189 42.7273 103.325 43.2317 103.325 43.855C103.325 44.433 103.166 44.9713 102.849 45.47C102.532 45.9573 102.044 46.354 101.387 46.66C100.741 46.9547 99.9079 47.102 98.8879 47.102ZM104.162 47L109.602 35.1H110.843L116.283 47H114.957L109.959 35.831H110.469L105.471 47H104.162ZM106.304 43.821L106.678 42.801H113.597L113.971 43.821H106.304ZM118.251 47V35.1H119.288L127.499 45.436H126.955V35.1H128.196V47H127.159L118.965 36.664H119.509V47H118.251ZM134.393 47V36.188H130.211V35.1H139.833V36.188H135.651V47H134.393ZM151.494 47.102C150.598 47.102 149.765 46.9547 148.995 46.66C148.235 46.354 147.572 45.929 147.006 45.385C146.45 44.8297 146.014 44.1893 145.697 43.464C145.391 42.7273 145.238 41.9227 145.238 41.05C145.238 40.1773 145.391 39.3783 145.697 38.653C146.014 37.9163 146.45 37.276 147.006 36.732C147.572 36.1767 148.235 35.7517 148.995 35.457C149.754 35.151 150.587 34.998 151.494 34.998C152.389 34.998 153.216 35.151 153.976 35.457C154.735 35.7517 155.392 36.171 155.948 36.715C156.514 37.259 156.951 37.8993 157.257 38.636C157.574 39.3727 157.733 40.1773 157.733 41.05C157.733 41.9227 157.574 42.7273 157.257 43.464C156.951 44.2007 156.514 44.841 155.948 45.385C155.392 45.929 154.735 46.354 153.976 46.66C153.216 46.9547 152.389 47.102 151.494 47.102ZM151.494 45.98C152.208 45.98 152.865 45.861 153.466 45.623C154.078 45.3737 154.605 45.028 155.047 44.586C155.5 44.1327 155.851 43.6113 156.101 43.022C156.35 42.4213 156.475 41.764 156.475 41.05C156.475 40.336 156.35 39.6843 156.101 39.095C155.851 38.4943 155.5 37.973 155.047 37.531C154.605 37.0777 154.078 36.732 153.466 36.494C152.865 36.2447 152.208 36.12 151.494 36.12C150.78 36.12 150.117 36.2447 149.505 36.494C148.893 36.732 148.36 37.0777 147.907 37.531C147.465 37.973 147.113 38.4943 146.853 39.095C146.603 39.6843 146.479 40.336 146.479 41.05C146.479 41.7527 146.603 42.4043 146.853 43.005C147.113 43.6057 147.465 44.1327 147.907 44.586C148.36 45.028 148.893 45.3737 149.505 45.623C150.117 45.861 150.78 45.98 151.494 45.98ZM160.552 47V35.1H161.589L169.8 45.436H169.256V35.1H170.497V47H169.46L161.266 36.664H161.81V47H160.552ZM174.381 47V35.1H175.639V45.912H182.303V47H174.381ZM184.392 47V35.1H185.65V47H184.392ZM189.522 47V35.1H190.559L198.77 45.436H198.226V35.1H199.467V47H198.43L190.236 36.664H190.78V47H189.522ZM204.473 40.421H210.763V41.492H204.473V40.421ZM204.609 45.912H211.766V47H203.351V35.1H211.511V36.188H204.609V45.912Z" fill="white"/>
<rect x="56" y="173" width="158" height="34" rx="17" fill="white"/>
<path d="M77.164 194L73.936 189.812L74.656 189.38L78.184 194H77.164ZM71.416 194V185.6H72.28V194H71.416ZM72.016 190.148V189.368H74.644V190.148H72.016ZM74.728 189.896L73.912 189.752L77.044 185.6H78.004L74.728 189.896ZM81.9745 194.06C81.3185 194.06 80.7425 193.924 80.2465 193.652C79.7505 193.372 79.3625 192.992 79.0825 192.512C78.8025 192.024 78.6625 191.468 78.6625 190.844C78.6625 190.22 78.7945 189.668 79.0585 189.188C79.3305 188.708 79.6985 188.332 80.1625 188.06C80.6345 187.78 81.1625 187.64 81.7465 187.64C82.3385 187.64 82.8625 187.776 83.3185 188.048C83.7825 188.312 84.1465 188.688 84.4105 189.176C84.6745 189.656 84.8065 190.212 84.8065 190.844C84.8065 190.884 84.8025 190.928 84.7945 190.976C84.7945 191.016 84.7945 191.06 84.7945 191.108H79.3105V190.472H84.3385L84.0025 190.724C84.0025 190.268 83.9025 189.864 83.7025 189.512C83.5105 189.152 83.2465 188.872 82.9105 188.672C82.5745 188.472 82.1865 188.372 81.7465 188.372C81.3145 188.372 80.9265 188.472 80.5825 188.672C80.2385 188.872 79.9705 189.152 79.7785 189.512C79.5865 189.872 79.4905 190.284 79.4905 190.748V190.88C79.4905 191.36 79.5945 191.784 79.8025 192.152C80.0185 192.512 80.3145 192.796 80.6905 193.004C81.0745 193.204 81.5105 193.304 81.9985 193.304C82.3825 193.304 82.7385 193.236 83.0665 193.1C83.4025 192.964 83.6905 192.756 83.9305 192.476L84.4105 193.028C84.1305 193.364 83.7785 193.62 83.3545 193.796C82.9385 193.972 82.4785 194.06 81.9745 194.06ZM89.9445 194.06C89.4005 194.06 88.9085 193.936 88.4685 193.688C88.0285 193.432 87.6765 193.068 87.4125 192.596C87.1565 192.116 87.0285 191.532 87.0285 190.844C87.0285 190.156 87.1565 189.576 87.4125 189.104C87.6685 188.624 88.0165 188.26 88.4565 188.012C88.8965 187.764 89.3925 187.64 89.9445 187.64C90.5445 187.64 91.0805 187.776 91.5525 188.048C92.0325 188.312 92.4085 188.688 92.6805 189.176C92.9525 189.656 93.0885 190.212 93.0885 190.844C93.0885 191.484 92.9525 192.044 92.6805 192.524C92.4085 193.004 92.0325 193.38 91.5525 193.652C91.0805 193.924 90.5445 194.06 89.9445 194.06ZM86.6925 196.328V187.7H87.5085V189.596L87.4245 190.856L87.5445 192.128V196.328H86.6925ZM89.8845 193.304C90.3325 193.304 90.7325 193.204 91.0845 193.004C91.4365 192.796 91.7165 192.508 91.9245 192.14C92.1325 191.764 92.2365 191.332 92.2365 190.844C92.2365 190.356 92.1325 189.928 91.9245 189.56C91.7165 189.192 91.4365 188.904 91.0845 188.696C90.7325 188.488 90.3325 188.384 89.8845 188.384C89.4365 188.384 89.0325 188.488 88.6725 188.696C88.3205 188.904 88.0405 189.192 87.8325 189.56C87.6325 189.928 87.5325 190.356 87.5325 190.844C87.5325 191.332 87.6325 191.764 87.8325 192.14C88.0405 192.508 88.3205 192.796 88.6725 193.004C89.0325 193.204 89.4365 193.304 89.8845 193.304ZM94.919 194V187.7H95.771V194H94.919ZM95.351 186.308C95.175 186.308 95.027 186.248 94.907 186.128C94.787 186.008 94.727 185.864 94.727 185.696C94.727 185.528 94.787 185.388 94.907 185.276C95.027 185.156 95.175 185.096 95.351 185.096C95.527 185.096 95.675 185.152 95.795 185.264C95.915 185.376 95.975 185.516 95.975 185.684C95.975 185.86 95.915 186.008 95.795 186.128C95.683 186.248 95.535 186.308 95.351 186.308ZM104.173 194.072C103.661 194.072 103.205 193.988 102.805 193.82C102.413 193.652 102.077 193.396 101.797 193.052C101.517 192.708 101.305 192.284 101.161 191.78C101.017 191.268 100.945 190.676 100.945 190.004C100.945 189.404 101.001 188.88 101.113 188.432C101.225 187.976 101.381 187.584 101.581 187.256C101.781 186.928 102.013 186.652 102.277 186.428C102.549 186.196 102.841 186.012 103.153 185.876C103.473 185.732 103.801 185.624 104.137 185.552L106.969 184.892L107.113 185.684L104.449 186.284C104.281 186.324 104.077 186.38 103.837 186.452C103.605 186.524 103.365 186.632 103.117 186.776C102.877 186.92 102.653 187.12 102.445 187.376C102.237 187.632 102.069 187.964 101.941 188.372C101.821 188.772 101.761 189.272 101.761 189.872C101.761 190 101.765 190.104 101.773 190.184C101.781 190.256 101.789 190.336 101.797 190.424C101.813 190.504 101.825 190.624 101.833 190.784L101.461 190.472C101.549 189.984 101.729 189.56 102.001 189.2C102.273 188.832 102.613 188.548 103.021 188.348C103.437 188.14 103.897 188.036 104.401 188.036C104.985 188.036 105.505 188.164 105.961 188.42C106.417 188.668 106.773 189.016 107.029 189.464C107.293 189.912 107.425 190.432 107.425 191.024C107.425 191.608 107.289 192.132 107.017 192.596C106.753 193.06 106.377 193.424 105.889 193.688C105.401 193.944 104.829 194.072 104.173 194.072ZM104.269 193.364C104.717 193.364 105.113 193.264 105.457 193.064C105.801 192.856 106.069 192.576 106.261 192.224C106.461 191.872 106.561 191.476 106.561 191.036C106.561 190.604 106.461 190.22 106.261 189.884C106.069 189.548 105.801 189.284 105.457 189.092C105.113 188.892 104.713 188.792 104.257 188.792C103.809 188.792 103.413 188.888 103.069 189.08C102.725 189.264 102.453 189.524 102.253 189.86C102.061 190.196 101.965 190.584 101.965 191.024C101.965 191.464 102.061 191.86 102.253 192.212C102.453 192.564 102.725 192.844 103.069 193.052C103.421 193.26 103.821 193.364 104.269 193.364ZM113.128 194V192.608L113.092 192.38V190.052C113.092 189.516 112.94 189.104 112.636 188.816C112.34 188.528 111.896 188.384 111.304 188.384C110.896 188.384 110.508 188.452 110.14 188.588C109.772 188.724 109.46 188.904 109.204 189.128L108.82 188.492C109.14 188.22 109.524 188.012 109.972 187.868C110.42 187.716 110.892 187.64 111.388 187.64C112.204 187.64 112.832 187.844 113.272 188.252C113.72 188.652 113.944 189.264 113.944 190.088V194H113.128ZM110.956 194.06C110.484 194.06 110.072 193.984 109.72 193.832C109.376 193.672 109.112 193.456 108.928 193.184C108.744 192.904 108.652 192.584 108.652 192.224C108.652 191.896 108.728 191.6 108.88 191.336C109.04 191.064 109.296 190.848 109.648 190.688C110.008 190.52 110.488 190.436 111.088 190.436H113.26V191.072H111.112C110.504 191.072 110.08 191.18 109.84 191.396C109.608 191.612 109.492 191.88 109.492 192.2C109.492 192.56 109.632 192.848 109.912 193.064C110.192 193.28 110.584 193.388 111.088 193.388C111.568 193.388 111.98 193.28 112.324 193.064C112.676 192.84 112.932 192.52 113.092 192.104L113.284 192.692C113.124 193.108 112.844 193.44 112.444 193.688C112.052 193.936 111.556 194.06 110.956 194.06ZM116.212 194V187.7H117.064V192.704L121.276 187.7H122.032V194H121.18V188.984L116.98 194H116.212ZM119.068 186.788C118.54 186.788 118.112 186.656 117.784 186.392C117.464 186.12 117.296 185.732 117.28 185.228H117.892C117.9 185.548 118.012 185.8 118.228 185.984C118.444 186.168 118.724 186.26 119.068 186.26C119.412 186.26 119.692 186.168 119.908 185.984C120.132 185.8 120.248 185.548 120.256 185.228H120.868C120.86 185.732 120.692 186.12 120.364 186.392C120.036 186.656 119.604 186.788 119.068 186.788ZM123.322 193.988L123.382 193.256C123.438 193.264 123.49 193.276 123.538 193.292C123.594 193.3 123.642 193.304 123.682 193.304C123.938 193.304 124.142 193.208 124.294 193.016C124.454 192.824 124.574 192.568 124.654 192.248C124.734 191.928 124.79 191.568 124.822 191.168C124.854 190.76 124.882 190.352 124.906 189.944L125.014 187.7H129.634V194H128.782V188.192L128.998 188.444H125.566L125.77 188.18L125.674 190.004C125.65 190.548 125.606 191.068 125.542 191.564C125.486 192.06 125.394 192.496 125.266 192.872C125.146 193.248 124.978 193.544 124.762 193.76C124.546 193.968 124.27 194.072 123.934 194.072C123.838 194.072 123.738 194.064 123.634 194.048C123.538 194.032 123.434 194.012 123.322 193.988ZM135.968 194V192.608L135.932 192.38V190.052C135.932 189.516 135.78 189.104 135.476 188.816C135.18 188.528 134.736 188.384 134.144 188.384C133.736 188.384 133.348 188.452 132.98 188.588C132.612 188.724 132.3 188.904 132.044 189.128L131.66 188.492C131.98 188.22 132.364 188.012 132.812 187.868C133.26 187.716 133.732 187.64 134.228 187.64C135.044 187.64 135.672 187.844 136.112 188.252C136.56 188.652 136.784 189.264 136.784 190.088V194H135.968ZM133.796 194.06C133.324 194.06 132.912 193.984 132.56 193.832C132.216 193.672 131.952 193.456 131.768 193.184C131.584 192.904 131.492 192.584 131.492 192.224C131.492 191.896 131.568 191.6 131.72 191.336C131.88 191.064 132.136 190.848 132.488 190.688C132.848 190.52 133.328 190.436 133.928 190.436H136.1V191.072H133.952C133.344 191.072 132.92 191.18 132.68 191.396C132.448 191.612 132.332 191.88 132.332 192.2C132.332 192.56 132.472 192.848 132.752 193.064C133.032 193.28 133.424 193.388 133.928 193.388C134.408 193.388 134.82 193.28 135.164 193.064C135.516 192.84 135.772 192.52 135.932 192.104L136.124 192.692C135.964 193.108 135.684 193.44 135.284 193.688C134.892 193.936 134.396 194.06 133.796 194.06ZM139.052 194V187.7H139.904V190.484H143.876V187.7H144.728V194H143.876V191.216H139.904V194H139.052ZM153.294 194V187.7H154.146V194H153.294ZM149.802 189.92C150.594 189.928 151.198 190.104 151.614 190.448C152.03 190.792 152.238 191.288 152.238 191.936C152.238 192.608 152.014 193.124 151.566 193.484C151.118 193.844 150.478 194.02 149.646 194.012L147.15 194V187.7H148.002V189.896L149.802 189.92ZM149.586 193.364C150.178 193.372 150.622 193.256 150.918 193.016C151.222 192.768 151.374 192.408 151.374 191.936C151.374 191.464 151.226 191.12 150.93 190.904C150.634 190.68 150.186 190.564 149.586 190.556L148.002 190.532V193.34L149.586 193.364ZM159.211 194.06C158.587 194.06 158.027 193.924 157.531 193.652C157.043 193.372 156.659 192.992 156.379 192.512C156.099 192.024 155.959 191.468 155.959 190.844C155.959 190.212 156.099 189.656 156.379 189.176C156.659 188.696 157.043 188.32 157.531 188.048C158.027 187.776 158.587 187.64 159.211 187.64C159.747 187.64 160.231 187.744 160.663 187.952C161.095 188.16 161.435 188.472 161.683 188.888L161.047 189.32C160.831 189 160.563 188.764 160.243 188.612C159.923 188.46 159.575 188.384 159.199 188.384C158.751 188.384 158.347 188.488 157.987 188.696C157.627 188.896 157.343 189.18 157.135 189.548C156.927 189.916 156.823 190.348 156.823 190.844C156.823 191.34 156.927 191.772 157.135 192.14C157.343 192.508 157.627 192.796 157.987 193.004C158.347 193.204 158.751 193.304 159.199 193.304C159.575 193.304 159.923 193.228 160.243 193.076C160.563 192.924 160.831 192.692 161.047 192.38L161.683 192.812C161.435 193.22 161.095 193.532 160.663 193.748C160.231 193.956 159.747 194.06 159.211 194.06Z" fill="#444444"/>
<g filter="url(#filter0_d_1259_1605)">
<rect x="182" y="175" width="30" height="30" rx="15" fill="#444444"/>
</g>
<path d="M195 186L199 190L195 194" stroke="white"/>
<path d="M57.652 135V125.2H65.898V135H64.876V125.816L65.142 126.096H58.408L58.674 125.816V135H57.652ZM67.6227 134.986L67.6927 134.132C67.7581 134.141 67.8187 134.155 67.8747 134.174C67.9401 134.183 67.9961 134.188 68.0427 134.188C68.3414 134.188 68.5794 134.076 68.7567 133.852C68.9434 133.628 69.0834 133.329 69.1767 132.956C69.2701 132.583 69.3354 132.163 69.3727 131.696C69.4101 131.22 69.4427 130.744 69.4707 130.268L69.5967 127.65H74.9867V135H73.9927V128.224L74.2447 128.518H70.2407L70.4787 128.21L70.3667 130.338C70.3387 130.973 70.2874 131.579 70.2127 132.158C70.1474 132.737 70.0401 133.245 69.8907 133.684C69.7507 134.123 69.5547 134.468 69.3027 134.72C69.0507 134.963 68.7287 135.084 68.3367 135.084C68.2247 135.084 68.1081 135.075 67.9867 135.056C67.8747 135.037 67.7534 135.014 67.6227 134.986ZM82.3764 135V133.376L82.3344 133.11V130.394C82.3344 129.769 82.1571 129.288 81.8024 128.952C81.4571 128.616 80.9391 128.448 80.2484 128.448C79.7724 128.448 79.3198 128.527 78.8904 128.686C78.4611 128.845 78.0971 129.055 77.7984 129.316L77.3504 128.574C77.7238 128.257 78.1718 128.014 78.6944 127.846C79.2171 127.669 79.7678 127.58 80.3464 127.58C81.2984 127.58 82.0311 127.818 82.5444 128.294C83.0671 128.761 83.3284 129.475 83.3284 130.436V135H82.3764ZM79.8424 135.07C79.2918 135.07 78.8111 134.981 78.4004 134.804C77.9991 134.617 77.6911 134.365 77.4764 134.048C77.2618 133.721 77.1544 133.348 77.1544 132.928C77.1544 132.545 77.2431 132.2 77.4204 131.892C77.6071 131.575 77.9058 131.323 78.3164 131.136C78.7364 130.94 79.2964 130.842 79.9964 130.842H82.5304V131.584H80.0244C79.3151 131.584 78.8204 131.71 78.5404 131.962C78.2698 132.214 78.1344 132.527 78.1344 132.9C78.1344 133.32 78.2978 133.656 78.6244 133.908C78.9511 134.16 79.4084 134.286 79.9964 134.286C80.5564 134.286 81.0371 134.16 81.4384 133.908C81.8491 133.647 82.1478 133.273 82.3344 132.788L82.5584 133.474C82.3718 133.959 82.0451 134.347 81.5784 134.636C81.1211 134.925 80.5424 135.07 79.8424 135.07ZM87.3745 135V128.252L87.6265 128.518H84.5885V127.65H91.1545V128.518H88.1165L88.3685 128.252V135H87.3745ZM96.3799 135.084C96.3799 135.084 96.3613 135.084 96.3239 135.084C96.2866 135.084 96.2493 135.084 96.2119 135.084C96.1839 135.084 96.1606 135.084 96.1419 135.084C94.6859 135.075 93.5519 134.743 92.7399 134.09C91.9279 133.437 91.5219 132.508 91.5219 131.304C91.5219 130.119 91.9279 129.204 92.7399 128.56C93.5613 127.907 94.7139 127.575 96.1979 127.566C96.2073 127.566 96.2259 127.566 96.2539 127.566C96.2913 127.566 96.3239 127.566 96.3519 127.566C96.3799 127.566 96.3986 127.566 96.4079 127.566C97.9013 127.575 99.0633 127.907 99.8939 128.56C100.725 129.204 101.14 130.119 101.14 131.304C101.14 132.517 100.72 133.451 99.8799 134.104C99.0493 134.757 97.8826 135.084 96.3799 135.084ZM96.3659 134.216C97.1966 134.216 97.8919 134.104 98.4519 133.88C99.0119 133.647 99.4366 133.315 99.7259 132.886C100.015 132.457 100.16 131.929 100.16 131.304C100.16 130.697 100.015 130.184 99.7259 129.764C99.4366 129.335 99.0119 129.008 98.4519 128.784C97.8919 128.56 97.1966 128.448 96.3659 128.448C96.3566 128.448 96.3286 128.448 96.2819 128.448C96.2446 128.448 96.2213 128.448 96.2119 128.448C95.3999 128.448 94.7186 128.565 94.1679 128.798C93.6173 129.022 93.2019 129.344 92.9219 129.764C92.6419 130.184 92.5019 130.697 92.5019 131.304C92.5019 131.92 92.6419 132.443 92.9219 132.872C93.2113 133.301 93.6313 133.633 94.1819 133.866C94.7326 134.09 95.4093 134.207 96.2119 134.216C96.2306 134.216 96.2586 134.216 96.2959 134.216C96.3333 134.216 96.3566 134.216 96.3659 134.216ZM95.8339 137.716V124.612H96.7999V137.716H95.8339ZM106.266 135.07C105.557 135.07 104.917 134.911 104.348 134.594C103.788 134.267 103.345 133.824 103.018 133.264C102.691 132.695 102.528 132.046 102.528 131.318C102.528 130.581 102.691 129.932 103.018 129.372C103.345 128.812 103.788 128.373 104.348 128.056C104.908 127.739 105.547 127.58 106.266 127.58C106.994 127.58 107.638 127.739 108.198 128.056C108.767 128.373 109.211 128.812 109.528 129.372C109.855 129.932 110.018 130.581 110.018 131.318C110.018 132.046 109.855 132.695 109.528 133.264C109.211 133.824 108.767 134.267 108.198 134.594C107.629 134.911 106.985 135.07 106.266 135.07ZM106.266 134.188C106.798 134.188 107.269 134.071 107.68 133.838C108.091 133.595 108.413 133.259 108.646 132.83C108.889 132.391 109.01 131.887 109.01 131.318C109.01 130.739 108.889 130.235 108.646 129.806C108.413 129.377 108.091 129.045 107.68 128.812C107.269 128.569 106.803 128.448 106.28 128.448C105.757 128.448 105.291 128.569 104.88 128.812C104.469 129.045 104.143 129.377 103.9 129.806C103.657 130.235 103.536 130.739 103.536 131.318C103.536 131.887 103.657 132.391 103.9 132.83C104.143 133.259 104.469 133.595 104.88 133.838C105.291 134.071 105.753 134.188 106.266 134.188ZM115.937 135.07C115.302 135.07 114.728 134.925 114.215 134.636C113.701 134.337 113.291 133.913 112.983 133.362C112.684 132.802 112.535 132.121 112.535 131.318C112.535 130.515 112.684 129.839 112.983 129.288C113.281 128.728 113.687 128.303 114.201 128.014C114.714 127.725 115.293 127.58 115.937 127.58C116.637 127.58 117.262 127.739 117.813 128.056C118.373 128.364 118.811 128.803 119.129 129.372C119.446 129.932 119.605 130.581 119.605 131.318C119.605 132.065 119.446 132.718 119.129 133.278C118.811 133.838 118.373 134.277 117.813 134.594C117.262 134.911 116.637 135.07 115.937 135.07ZM112.143 137.716V127.65H113.095V129.862L112.997 131.332L113.137 132.816V137.716H112.143ZM115.867 134.188C116.389 134.188 116.856 134.071 117.267 133.838C117.677 133.595 118.004 133.259 118.247 132.83C118.489 132.391 118.611 131.887 118.611 131.318C118.611 130.749 118.489 130.249 118.247 129.82C118.004 129.391 117.677 129.055 117.267 128.812C116.856 128.569 116.389 128.448 115.867 128.448C115.344 128.448 114.873 128.569 114.453 128.812C114.042 129.055 113.715 129.391 113.473 129.82C113.239 130.249 113.123 130.749 113.123 131.318C113.123 131.887 113.239 132.391 113.473 132.83C113.715 133.259 114.042 133.595 114.453 133.838C114.873 134.071 115.344 134.188 115.867 134.188ZM121.74 135V127.65H122.748L126.08 133.292H125.66L129.048 127.65H129.972V135H129.062V128.784L129.244 128.868L126.08 134.104H125.632L122.44 128.812L122.65 128.77V135H121.74ZM137.365 135V133.376L137.323 133.11V130.394C137.323 129.769 137.145 129.288 136.791 128.952C136.445 128.616 135.927 128.448 135.237 128.448C134.761 128.448 134.308 128.527 133.879 128.686C133.449 128.845 133.085 129.055 132.787 129.316L132.339 128.574C132.712 128.257 133.16 128.014 133.683 127.846C134.205 127.669 134.756 127.58 135.335 127.58C136.287 127.58 137.019 127.818 137.533 128.294C138.055 128.761 138.317 129.475 138.317 130.436V135H137.365ZM134.831 135.07C134.28 135.07 133.799 134.981 133.389 134.804C132.987 134.617 132.679 134.365 132.465 134.048C132.25 133.721 132.143 133.348 132.143 132.928C132.143 132.545 132.231 132.2 132.409 131.892C132.595 131.575 132.894 131.323 133.305 131.136C133.725 130.94 134.285 130.842 134.985 130.842H137.519V131.584H135.013C134.303 131.584 133.809 131.71 133.529 131.962C133.258 132.214 133.123 132.527 133.123 132.9C133.123 133.32 133.286 133.656 133.613 133.908C133.939 134.16 134.397 134.286 134.985 134.286C135.545 134.286 136.025 134.16 136.427 133.908C136.837 133.647 137.136 133.273 137.323 132.788L137.547 133.474C137.36 133.959 137.033 134.347 136.567 134.636C136.109 134.925 135.531 135.07 134.831 135.07ZM153.349 135L150.829 131.36L151.655 130.87L154.539 135H153.349ZM149.177 131.724V130.87H151.501V131.724H149.177ZM151.753 131.43L150.801 131.29L153.251 127.65H154.329L151.753 131.43ZM144.641 135H143.451L146.335 130.87L147.147 131.36L144.641 135ZM149.485 135H148.491V127.65H149.485V135ZM148.799 131.724H146.489V130.87H148.799V131.724ZM146.251 131.43L143.661 127.65H144.739L147.175 131.29L146.251 131.43ZM158.58 127.58C159.354 127.58 160.031 127.743 160.61 128.07C161.188 128.387 161.641 128.826 161.968 129.386C162.294 129.946 162.458 130.59 162.458 131.318C162.458 132.046 162.299 132.695 161.982 133.264C161.674 133.824 161.249 134.267 160.708 134.594C160.166 134.911 159.546 135.07 158.846 135.07C158.164 135.07 157.553 134.911 157.012 134.594C156.48 134.277 156.06 133.838 155.752 133.278C155.444 132.709 155.29 132.055 155.29 131.318C155.29 131.281 155.29 131.234 155.29 131.178C155.29 131.122 155.294 131.071 155.304 131.024H161.702V131.766H155.822L156.228 131.472C156.228 131.995 156.34 132.466 156.564 132.886C156.788 133.297 157.096 133.623 157.488 133.866C157.889 134.099 158.342 134.216 158.846 134.216C159.359 134.216 159.812 134.099 160.204 133.866C160.605 133.623 160.918 133.292 161.142 132.872C161.366 132.452 161.478 131.976 161.478 131.444V131.276C161.478 130.716 161.352 130.226 161.1 129.806C160.857 129.386 160.516 129.055 160.078 128.812C159.639 128.569 159.135 128.448 158.566 128.448C158.108 128.448 157.688 128.527 157.306 128.686C156.923 128.845 156.592 129.092 156.312 129.428L155.752 128.77C156.088 128.378 156.498 128.084 156.984 127.888C157.478 127.683 158.01 127.58 158.58 127.58ZM164.574 135V127.65H165.568V130.898H170.202V127.65H171.196V135H170.202V131.752H165.568V135H164.574ZM177.171 135.07C176.406 135.07 175.734 134.911 175.155 134.594C174.577 134.267 174.124 133.824 173.797 133.264C173.471 132.695 173.307 132.046 173.307 131.318C173.307 130.59 173.461 129.946 173.769 129.386C174.087 128.826 174.516 128.387 175.057 128.07C175.608 127.743 176.224 127.58 176.905 127.58C177.596 127.58 178.207 127.739 178.739 128.056C179.281 128.364 179.705 128.803 180.013 129.372C180.321 129.932 180.475 130.581 180.475 131.318C180.475 131.365 180.471 131.416 180.461 131.472C180.461 131.519 180.461 131.57 180.461 131.626H174.063V130.884H179.929L179.537 131.178C179.537 130.646 179.421 130.175 179.187 129.764C178.963 129.344 178.655 129.017 178.263 128.784C177.871 128.551 177.419 128.434 176.905 128.434C176.401 128.434 175.949 128.551 175.547 128.784C175.146 129.017 174.833 129.344 174.609 129.764C174.385 130.184 174.273 130.665 174.273 131.206V131.36C174.273 131.92 174.395 132.415 174.637 132.844C174.889 133.264 175.235 133.595 175.673 133.838C176.121 134.071 176.63 134.188 177.199 134.188C177.647 134.188 178.063 134.109 178.445 133.95C178.837 133.791 179.173 133.549 179.453 133.222L180.013 133.866C179.687 134.258 179.276 134.557 178.781 134.762C178.296 134.967 177.759 135.07 177.171 135.07ZM191.73 135L188.706 131.36L189.532 130.87L192.906 135H191.73ZM186.34 135V127.65H187.334V135H186.34ZM187.026 131.724V130.87H189.392V131.724H187.026ZM189.616 131.43L188.692 131.29L191.618 127.65H192.696L189.616 131.43ZM194.177 137.786C193.831 137.786 193.5 137.73 193.183 137.618C192.875 137.506 192.609 137.338 192.385 137.114L192.847 136.372C193.033 136.549 193.234 136.685 193.449 136.778C193.673 136.881 193.92 136.932 194.191 136.932C194.517 136.932 194.797 136.839 195.031 136.652C195.273 136.475 195.502 136.157 195.717 135.7L196.193 134.622L196.305 134.468L199.329 127.65H200.309L196.627 135.882C196.421 136.358 196.193 136.736 195.941 137.016C195.698 137.296 195.432 137.492 195.143 137.604C194.853 137.725 194.531 137.786 194.177 137.786ZM196.137 135.21L192.749 127.65H193.785L196.781 134.398L196.137 135.21ZM205.651 135.07C205.017 135.07 204.443 134.925 203.929 134.636C203.416 134.337 203.005 133.913 202.697 133.362C202.399 132.802 202.249 132.121 202.249 131.318C202.249 130.515 202.399 129.839 202.697 129.288C202.996 128.728 203.402 128.303 203.915 128.014C204.429 127.725 205.007 127.58 205.651 127.58C206.351 127.58 206.977 127.739 207.527 128.056C208.087 128.364 208.526 128.803 208.843 129.372C209.161 129.932 209.319 130.581 209.319 131.318C209.319 132.065 209.161 132.718 208.843 133.278C208.526 133.838 208.087 134.277 207.527 134.594C206.977 134.911 206.351 135.07 205.651 135.07ZM201.857 137.716V127.65H202.809V129.862L202.711 131.332L202.851 132.816V137.716H201.857ZM205.581 134.188C206.104 134.188 206.571 134.071 206.981 133.838C207.392 133.595 207.719 133.259 207.961 132.83C208.204 132.391 208.325 131.887 208.325 131.318C208.325 130.749 208.204 130.249 207.961 129.82C207.719 129.391 207.392 129.055 206.981 128.812C206.571 128.569 206.104 128.448 205.581 128.448C205.059 128.448 204.587 128.569 204.167 128.812C203.757 129.055 203.43 129.391 203.187 129.82C202.954 130.249 202.837 130.749 202.837 131.318C202.837 131.887 202.954 132.391 203.187 132.83C203.43 133.259 203.757 133.595 204.167 133.838C204.587 134.071 205.059 134.188 205.581 134.188ZM214.535 135.07C213.807 135.07 213.154 134.911 212.575 134.594C212.006 134.267 211.558 133.824 211.231 133.264C210.904 132.695 210.741 132.046 210.741 131.318C210.741 130.581 210.904 129.932 211.231 129.372C211.558 128.812 212.006 128.373 212.575 128.056C213.154 127.739 213.807 127.58 214.535 127.58C215.16 127.58 215.725 127.701 216.229 127.944C216.733 128.187 217.13 128.551 217.419 129.036L216.677 129.54C216.425 129.167 216.112 128.891 215.739 128.714C215.366 128.537 214.96 128.448 214.521 128.448C213.998 128.448 213.527 128.569 213.107 128.812C212.687 129.045 212.356 129.377 212.113 129.806C211.87 130.235 211.749 130.739 211.749 131.318C211.749 131.897 211.87 132.401 212.113 132.83C212.356 133.259 212.687 133.595 213.107 133.838C213.527 134.071 213.998 134.188 214.521 134.188C214.96 134.188 215.366 134.099 215.739 133.922C216.112 133.745 216.425 133.474 216.677 133.11L217.419 133.614C217.13 134.09 216.733 134.454 216.229 134.706C215.725 134.949 215.16 135.07 214.535 135.07ZM220.607 135V128.252L220.859 128.518H217.821V127.65H224.387V128.518H221.349L221.601 128.252V135H220.607ZM230.388 135V133.376L230.346 133.11V130.394C230.346 129.769 230.169 129.288 229.814 128.952C229.469 128.616 228.951 128.448 228.26 128.448C227.784 128.448 227.331 128.527 226.902 128.686C226.473 128.845 226.109 129.055 225.81 129.316L225.362 128.574C225.735 128.257 226.183 128.014 226.706 127.846C227.229 127.669 227.779 127.58 228.358 127.58C229.31 127.58 230.043 127.818 230.556 128.294C231.079 128.761 231.34 129.475 231.34 130.436V135H230.388ZM227.854 135.07C227.303 135.07 226.823 134.981 226.412 134.804C226.011 134.617 225.703 134.365 225.488 134.048C225.273 133.721 225.166 133.348 225.166 132.928C225.166 132.545 225.255 132.2 225.432 131.892C225.619 131.575 225.917 131.323 226.328 131.136C226.748 130.94 227.308 130.842 228.008 130.842H230.542V131.584H228.036C227.327 131.584 226.832 131.71 226.552 131.962C226.281 132.214 226.146 132.527 226.146 132.9C226.146 133.32 226.309 133.656 226.636 133.908C226.963 134.16 227.42 134.286 228.008 134.286C228.568 134.286 229.049 134.16 229.45 133.908C229.861 133.647 230.159 133.273 230.346 132.788L230.57 133.474C230.383 133.959 230.057 134.347 229.59 134.636C229.133 134.925 228.554 135.07 227.854 135.07ZM237.78 135.07C237.146 135.07 236.572 134.925 236.058 134.636C235.545 134.337 235.134 133.913 234.826 133.362C234.528 132.802 234.378 132.121 234.378 131.318C234.378 130.515 234.528 129.839 234.826 129.288C235.125 128.728 235.531 128.303 236.044 128.014C236.558 127.725 237.136 127.58 237.78 127.58C238.48 127.58 239.106 127.739 239.656 128.056C240.216 128.364 240.655 128.803 240.972 129.372C241.29 129.932 241.448 130.581 241.448 131.318C241.448 132.065 241.29 132.718 240.972 133.278C240.655 133.838 240.216 134.277 239.656 134.594C239.106 134.911 238.48 135.07 237.78 135.07ZM233.986 137.716V127.65H234.938V129.862L234.84 131.332L234.98 132.816V137.716H233.986ZM237.71 134.188C238.233 134.188 238.7 134.071 239.11 133.838C239.521 133.595 239.848 133.259 240.09 132.83C240.333 132.391 240.454 131.887 240.454 131.318C240.454 130.749 240.333 130.249 240.09 129.82C239.848 129.391 239.521 129.055 239.11 128.812C238.7 128.569 238.233 128.448 237.71 128.448C237.188 128.448 236.716 128.569 236.296 128.812C235.886 129.055 235.559 129.391 235.316 129.82C235.083 130.249 234.966 130.749 234.966 131.318C234.966 131.887 235.083 132.391 235.316 132.83C235.559 133.259 235.886 133.595 236.296 133.838C236.716 134.071 237.188 134.188 237.71 134.188ZM250.552 135.084C249.955 135.084 249.423 134.986 248.956 134.79C248.499 134.594 248.107 134.295 247.78 133.894C247.453 133.493 247.206 132.998 247.038 132.41C246.87 131.813 246.786 131.122 246.786 130.338C246.786 129.638 246.851 129.027 246.982 128.504C247.113 127.972 247.295 127.515 247.528 127.132C247.761 126.749 248.032 126.427 248.34 126.166C248.657 125.895 248.998 125.681 249.362 125.522C249.735 125.354 250.118 125.228 250.51 125.144L253.814 124.374L253.982 125.298L250.874 125.998C250.678 126.045 250.44 126.11 250.16 126.194C249.889 126.278 249.609 126.404 249.32 126.572C249.04 126.74 248.779 126.973 248.536 127.272C248.293 127.571 248.097 127.958 247.948 128.434C247.808 128.901 247.738 129.484 247.738 130.184C247.738 130.333 247.743 130.455 247.752 130.548C247.761 130.632 247.771 130.725 247.78 130.828C247.799 130.921 247.813 131.061 247.822 131.248L247.388 130.884C247.491 130.315 247.701 129.82 248.018 129.4C248.335 128.971 248.732 128.639 249.208 128.406C249.693 128.163 250.23 128.042 250.818 128.042C251.499 128.042 252.106 128.191 252.638 128.49C253.17 128.779 253.585 129.185 253.884 129.708C254.192 130.231 254.346 130.837 254.346 131.528C254.346 132.209 254.187 132.821 253.87 133.362C253.562 133.903 253.123 134.328 252.554 134.636C251.985 134.935 251.317 135.084 250.552 135.084ZM250.664 134.258C251.187 134.258 251.649 134.141 252.05 133.908C252.451 133.665 252.764 133.339 252.988 132.928C253.221 132.517 253.338 132.055 253.338 131.542C253.338 131.038 253.221 130.59 252.988 130.198C252.764 129.806 252.451 129.498 252.05 129.274C251.649 129.041 251.182 128.924 250.65 128.924C250.127 128.924 249.665 129.036 249.264 129.26C248.863 129.475 248.545 129.778 248.312 130.17C248.088 130.562 247.976 131.015 247.976 131.528C247.976 132.041 248.088 132.503 248.312 132.914C248.545 133.325 248.863 133.651 249.264 133.894C249.675 134.137 250.141 134.258 250.664 134.258ZM259.501 135.07C258.791 135.07 258.152 134.911 257.583 134.594C257.023 134.267 256.579 133.824 256.253 133.264C255.926 132.695 255.763 132.046 255.763 131.318C255.763 130.581 255.926 129.932 256.253 129.372C256.579 128.812 257.023 128.373 257.583 128.056C258.143 127.739 258.782 127.58 259.501 127.58C260.229 127.58 260.873 127.739 261.433 128.056C262.002 128.373 262.445 128.812 262.763 129.372C263.089 129.932 263.253 130.581 263.253 131.318C263.253 132.046 263.089 132.695 262.763 133.264C262.445 133.824 262.002 134.267 261.433 134.594C260.863 134.911 260.219 135.07 259.501 135.07ZM259.501 134.188C260.033 134.188 260.504 134.071 260.915 133.838C261.325 133.595 261.647 133.259 261.881 132.83C262.123 132.391 262.245 131.887 262.245 131.318C262.245 130.739 262.123 130.235 261.881 129.806C261.647 129.377 261.325 129.045 260.915 128.812C260.504 128.569 260.037 128.448 259.515 128.448C258.992 128.448 258.525 128.569 258.115 128.812C257.704 129.045 257.377 129.377 257.135 129.806C256.892 130.235 256.771 130.739 256.771 131.318C256.771 131.887 256.892 132.391 257.135 132.83C257.377 133.259 257.704 133.595 258.115 133.838C258.525 134.071 258.987 134.188 259.501 134.188ZM265.377 135V127.65H266.371V133.488L271.285 127.65H272.167V135H271.173V129.148L266.273 135H265.377ZM268.709 126.586C268.093 126.586 267.594 126.432 267.211 126.124C266.838 125.807 266.642 125.354 266.623 124.766H267.337C267.346 125.139 267.477 125.433 267.729 125.648C267.981 125.863 268.308 125.97 268.709 125.97C269.11 125.97 269.437 125.863 269.689 125.648C269.95 125.433 270.086 125.139 270.095 124.766H270.809C270.8 125.354 270.604 125.807 270.221 126.124C269.838 126.432 269.334 126.586 268.709 126.586ZM282.184 135V127.65H283.178V135H282.184ZM278.11 130.24C279.034 130.249 279.738 130.455 280.224 130.856C280.709 131.257 280.952 131.836 280.952 132.592C280.952 133.376 280.69 133.978 280.168 134.398C279.645 134.818 278.898 135.023 277.928 135.014L275.016 135V127.65H276.01V130.212L278.11 130.24ZM277.858 134.258C278.548 134.267 279.066 134.132 279.412 133.852C279.766 133.563 279.944 133.143 279.944 132.592C279.944 132.041 279.771 131.64 279.426 131.388C279.08 131.127 278.558 130.991 277.858 130.982L276.01 130.954V134.23L277.858 134.258ZM286.008 135V127.65H287.002V130.898H291.636V127.65H292.63V135H291.636V131.752H287.002V135H286.008ZM300.285 134.132L300.061 134.398V127.65H301.055V134.398L300.789 134.132H304.891L304.625 134.398V127.65H305.619V135H295.455V127.65H296.449V134.398L296.197 134.132H300.285ZM313.007 135V133.376L312.965 133.11V130.394C312.965 129.769 312.788 129.288 312.433 128.952C312.088 128.616 311.57 128.448 310.879 128.448C310.403 128.448 309.951 128.527 309.521 128.686C309.092 128.845 308.728 129.055 308.429 129.316L307.981 128.574C308.355 128.257 308.803 128.014 309.325 127.846C309.848 127.669 310.399 127.58 310.977 127.58C311.929 127.58 312.662 127.818 313.175 128.294C313.698 128.761 313.959 129.475 313.959 130.436V135H313.007ZM310.473 135.07C309.923 135.07 309.442 134.981 309.031 134.804C308.63 134.617 308.322 134.365 308.107 134.048C307.893 133.721 307.785 133.348 307.785 132.928C307.785 132.545 307.874 132.2 308.051 131.892C308.238 131.575 308.537 131.323 308.947 131.136C309.367 130.94 309.927 130.842 310.627 130.842H313.161V131.584H310.655C309.946 131.584 309.451 131.71 309.171 131.962C308.901 132.214 308.765 132.527 308.765 132.9C308.765 133.32 308.929 133.656 309.255 133.908C309.582 134.16 310.039 134.286 310.627 134.286C311.187 134.286 311.668 134.16 312.069 133.908C312.48 133.647 312.779 133.273 312.965 132.788L313.189 133.474C313.003 133.959 312.676 134.347 312.209 134.636C311.752 134.925 311.173 135.07 310.473 135.07ZM325.659 135L322.635 131.36L323.461 130.87L326.835 135H325.659ZM320.269 135V127.65H321.263V135H320.269ZM320.955 131.724V130.87H323.321V131.724H320.955ZM323.545 131.43L322.621 131.29L325.547 127.65H326.625L323.545 131.43ZM331.294 135.07C330.529 135.07 329.857 134.911 329.278 134.594C328.7 134.267 328.247 133.824 327.92 133.264C327.594 132.695 327.43 132.046 327.43 131.318C327.43 130.59 327.584 129.946 327.892 129.386C328.21 128.826 328.639 128.387 329.18 128.07C329.731 127.743 330.347 127.58 331.028 127.58C331.719 127.58 332.33 127.739 332.862 128.056C333.404 128.364 333.828 128.803 334.136 129.372C334.444 129.932 334.598 130.581 334.598 131.318C334.598 131.365 334.594 131.416 334.584 131.472C334.584 131.519 334.584 131.57 334.584 131.626H328.186V130.884H334.052L333.66 131.178C333.66 130.646 333.544 130.175 333.31 129.764C333.086 129.344 332.778 129.017 332.386 128.784C331.994 128.551 331.542 128.434 331.028 128.434C330.524 128.434 330.072 128.551 329.67 128.784C329.269 129.017 328.956 129.344 328.732 129.764C328.508 130.184 328.396 130.665 328.396 131.206V131.36C328.396 131.92 328.518 132.415 328.76 132.844C329.012 133.264 329.358 133.595 329.796 133.838C330.244 134.071 330.753 134.188 331.322 134.188C331.77 134.188 332.186 134.109 332.568 133.95C332.96 133.791 333.296 133.549 333.576 133.222L334.136 133.866C333.81 134.258 333.399 134.557 332.904 134.762C332.419 134.967 331.882 135.07 331.294 135.07ZM340.593 135.07C339.958 135.07 339.384 134.925 338.871 134.636C338.357 134.337 337.947 133.913 337.639 133.362C337.34 132.802 337.191 132.121 337.191 131.318C337.191 130.515 337.34 129.839 337.639 129.288C337.937 128.728 338.343 128.303 338.857 128.014C339.37 127.725 339.949 127.58 340.593 127.58C341.293 127.58 341.918 127.739 342.469 128.056C343.029 128.364 343.467 128.803 343.785 129.372C344.102 129.932 344.261 130.581 344.261 131.318C344.261 132.065 344.102 132.718 343.785 133.278C343.467 133.838 343.029 134.277 342.469 134.594C341.918 134.911 341.293 135.07 340.593 135.07ZM336.799 137.716V127.65H337.751V129.862L337.653 131.332L337.793 132.816V137.716H336.799ZM340.523 134.188C341.045 134.188 341.512 134.071 341.923 133.838C342.333 133.595 342.66 133.259 342.903 132.83C343.145 132.391 343.267 131.887 343.267 131.318C343.267 130.749 343.145 130.249 342.903 129.82C342.66 129.391 342.333 129.055 341.923 128.812C341.512 128.569 341.045 128.448 340.523 128.448C340 128.448 339.529 128.569 339.109 128.812C338.698 129.055 338.371 129.391 338.129 129.82C337.895 130.249 337.779 130.749 337.779 131.318C337.779 131.887 337.895 132.391 338.129 132.83C338.371 133.259 338.698 133.595 339.109 133.838C339.529 134.071 340 134.188 340.523 134.188ZM346.396 135V127.65H347.39V135H346.396ZM346.9 126.026C346.695 126.026 346.522 125.956 346.382 125.816C346.242 125.676 346.172 125.508 346.172 125.312C346.172 125.116 346.242 124.953 346.382 124.822C346.522 124.682 346.695 124.612 346.9 124.612C347.106 124.612 347.278 124.677 347.418 124.808C347.558 124.939 347.628 125.102 347.628 125.298C347.628 125.503 347.558 125.676 347.418 125.816C347.288 125.956 347.115 126.026 346.9 126.026ZM357.193 135.084C356.595 135.084 356.063 134.986 355.597 134.79C355.139 134.594 354.747 134.295 354.421 133.894C354.094 133.493 353.847 132.998 353.679 132.41C353.511 131.813 353.427 131.122 353.427 130.338C353.427 129.638 353.492 129.027 353.623 128.504C353.753 127.972 353.935 127.515 354.169 127.132C354.402 126.749 354.673 126.427 354.981 126.166C355.298 125.895 355.639 125.681 356.003 125.522C356.376 125.354 356.759 125.228 357.151 125.144L360.455 124.374L360.623 125.298L357.515 125.998C357.319 126.045 357.081 126.11 356.801 126.194C356.53 126.278 356.25 126.404 355.961 126.572C355.681 126.74 355.419 126.973 355.177 127.272C354.934 127.571 354.738 127.958 354.589 128.434C354.449 128.901 354.379 129.484 354.379 130.184C354.379 130.333 354.383 130.455 354.393 130.548C354.402 130.632 354.411 130.725 354.421 130.828C354.439 130.921 354.453 131.061 354.463 131.248L354.029 130.884C354.131 130.315 354.341 129.82 354.659 129.4C354.976 128.971 355.373 128.639 355.849 128.406C356.334 128.163 356.871 128.042 357.459 128.042C358.14 128.042 358.747 128.191 359.279 128.49C359.811 128.779 360.226 129.185 360.525 129.708C360.833 130.231 360.987 130.837 360.987 131.528C360.987 132.209 360.828 132.821 360.511 133.362C360.203 133.903 359.764 134.328 359.195 134.636C358.625 134.935 357.958 135.084 357.193 135.084ZM357.305 134.258C357.827 134.258 358.289 134.141 358.691 133.908C359.092 133.665 359.405 133.339 359.629 132.928C359.862 132.517 359.979 132.055 359.979 131.542C359.979 131.038 359.862 130.59 359.629 130.198C359.405 129.806 359.092 129.498 358.691 129.274C358.289 129.041 357.823 128.924 357.291 128.924C356.768 128.924 356.306 129.036 355.905 129.26C355.503 129.475 355.186 129.778 354.953 130.17C354.729 130.562 354.617 131.015 354.617 131.528C354.617 132.041 354.729 132.503 354.953 132.914C355.186 133.325 355.503 133.651 355.905 133.894C356.315 134.137 356.782 134.258 357.305 134.258ZM367.64 135V133.376L367.598 133.11V130.394C367.598 129.769 367.421 129.288 367.066 128.952C366.721 128.616 366.203 128.448 365.512 128.448C365.036 128.448 364.583 128.527 364.154 128.686C363.725 128.845 363.361 129.055 363.062 129.316L362.614 128.574C362.987 128.257 363.435 128.014 363.958 127.846C364.481 127.669 365.031 127.58 365.61 127.58C366.562 127.58 367.295 127.818 367.808 128.294C368.331 128.761 368.592 129.475 368.592 130.436V135H367.64ZM365.106 135.07C364.555 135.07 364.075 134.981 363.664 134.804C363.263 134.617 362.955 134.365 362.74 134.048C362.525 133.721 362.418 133.348 362.418 132.928C362.418 132.545 362.507 132.2 362.684 131.892C362.871 131.575 363.169 131.323 363.58 131.136C364 130.94 364.56 130.842 365.26 130.842H367.794V131.584H365.288C364.579 131.584 364.084 131.71 363.804 131.962C363.533 132.214 363.398 132.527 363.398 132.9C363.398 133.32 363.561 133.656 363.888 133.908C364.215 134.16 364.672 134.286 365.26 134.286C365.82 134.286 366.301 134.16 366.702 133.908C367.113 133.647 367.411 133.273 367.598 132.788L367.822 133.474C367.635 133.959 367.309 134.347 366.842 134.636C366.385 134.925 365.806 135.07 365.106 135.07ZM371.238 135V127.65H372.232V133.488L377.146 127.65H378.028V135H377.034V129.148L372.134 135H371.238ZM374.57 126.586C373.954 126.586 373.455 126.432 373.072 126.124C372.699 125.807 372.503 125.354 372.484 124.766H373.198C373.208 125.139 373.338 125.433 373.59 125.648C373.842 125.863 374.169 125.97 374.57 125.97C374.972 125.97 375.298 125.863 375.55 125.648C375.812 125.433 375.947 125.139 375.956 124.766H376.67C376.661 125.354 376.465 125.807 376.082 126.124C375.7 126.432 375.196 126.586 374.57 126.586ZM379.533 134.986L379.603 134.132C379.668 134.141 379.729 134.155 379.785 134.174C379.85 134.183 379.906 134.188 379.953 134.188C380.252 134.188 380.49 134.076 380.667 133.852C380.854 133.628 380.994 133.329 381.087 132.956C381.18 132.583 381.246 132.163 381.283 131.696C381.32 131.22 381.353 130.744 381.381 130.268L381.507 127.65H386.897V135H385.903V128.224L386.155 128.518H382.151L382.389 128.21L382.277 130.338C382.249 130.973 382.198 131.579 382.123 132.158C382.058 132.737 381.95 133.245 381.801 133.684C381.661 134.123 381.465 134.468 381.213 134.72C380.961 134.963 380.639 135.084 380.247 135.084C380.135 135.084 380.018 135.075 379.897 135.056C379.785 135.037 379.664 135.014 379.533 134.986ZM394.287 135V133.376L394.245 133.11V130.394C394.245 129.769 394.067 129.288 393.713 128.952C393.367 128.616 392.849 128.448 392.159 128.448C391.683 128.448 391.23 128.527 390.801 128.686C390.371 128.845 390.007 129.055 389.709 129.316L389.261 128.574C389.634 128.257 390.082 128.014 390.605 127.846C391.127 127.669 391.678 127.58 392.257 127.58C393.209 127.58 393.941 127.818 394.455 128.294C394.977 128.761 395.239 129.475 395.239 130.436V135H394.287ZM391.753 135.07C391.202 135.07 390.721 134.981 390.311 134.804C389.909 134.617 389.601 134.365 389.387 134.048C389.172 133.721 389.065 133.348 389.065 132.928C389.065 132.545 389.153 132.2 389.331 131.892C389.517 131.575 389.816 131.323 390.227 131.136C390.647 130.94 391.207 130.842 391.907 130.842H394.441V131.584H391.935C391.225 131.584 390.731 131.71 390.451 131.962C390.18 132.214 390.045 132.527 390.045 132.9C390.045 133.32 390.208 133.656 390.535 133.908C390.861 134.16 391.319 134.286 391.907 134.286C392.467 134.286 392.947 134.16 393.349 133.908C393.759 133.647 394.058 133.273 394.245 132.788L394.469 133.474C394.282 133.959 393.955 134.347 393.489 134.636C393.031 134.925 392.453 135.07 391.753 135.07ZM397.885 135V127.65H398.879V130.898H403.513V127.65H404.507V135H403.513V131.752H398.879V135H397.885ZM414.5 135V127.65H415.494V135H414.5ZM410.426 130.24C411.35 130.249 412.055 130.455 412.54 130.856C413.025 131.257 413.268 131.836 413.268 132.592C413.268 133.376 413.007 133.978 412.484 134.398C411.961 134.818 411.215 135.023 410.244 135.014L407.332 135V127.65H408.326V130.212L410.426 130.24ZM410.174 134.258C410.865 134.267 411.383 134.132 411.728 133.852C412.083 133.563 412.26 133.143 412.26 132.592C412.26 132.041 412.087 131.64 411.742 131.388C411.397 131.127 410.874 130.991 410.174 130.982L408.326 130.954V134.23L410.174 134.258ZM421.404 135.07C420.676 135.07 420.023 134.911 419.444 134.594C418.875 134.267 418.427 133.824 418.1 133.264C417.773 132.695 417.61 132.046 417.61 131.318C417.61 130.581 417.773 129.932 418.1 129.372C418.427 128.812 418.875 128.373 419.444 128.056C420.023 127.739 420.676 127.58 421.404 127.58C422.029 127.58 422.594 127.701 423.098 127.944C423.602 128.187 423.999 128.551 424.288 129.036L423.546 129.54C423.294 129.167 422.981 128.891 422.608 128.714C422.235 128.537 421.829 128.448 421.39 128.448C420.867 128.448 420.396 128.569 419.976 128.812C419.556 129.045 419.225 129.377 418.982 129.806C418.739 130.235 418.618 130.739 418.618 131.318C418.618 131.897 418.739 132.401 418.982 132.83C419.225 133.259 419.556 133.595 419.976 133.838C420.396 134.071 420.867 134.188 421.39 134.188C421.829 134.188 422.235 134.099 422.608 133.922C422.981 133.745 423.294 133.474 423.546 133.11L424.288 133.614C423.999 134.09 423.602 134.454 423.098 134.706C422.594 134.949 422.029 135.07 421.404 135.07ZM433.181 135.084C432.584 135.084 432.052 134.986 431.585 134.79C431.128 134.594 430.736 134.295 430.409 133.894C430.082 133.493 429.835 132.998 429.667 132.41C429.499 131.813 429.415 131.122 429.415 130.338C429.415 129.638 429.48 129.027 429.611 128.504C429.742 127.972 429.924 127.515 430.157 127.132C430.39 126.749 430.661 126.427 430.969 126.166C431.286 125.895 431.627 125.681 431.991 125.522C432.364 125.354 432.747 125.228 433.139 125.144L436.443 124.374L436.611 125.298L433.503 125.998C433.307 126.045 433.069 126.11 432.789 126.194C432.518 126.278 432.238 126.404 431.949 126.572C431.669 126.74 431.408 126.973 431.165 127.272C430.922 127.571 430.726 127.958 430.577 128.434C430.437 128.901 430.367 129.484 430.367 130.184C430.367 130.333 430.372 130.455 430.381 130.548C430.39 130.632 430.4 130.725 430.409 130.828C430.428 130.921 430.442 131.061 430.451 131.248L430.017 130.884C430.12 130.315 430.33 129.82 430.647 129.4C430.964 128.971 431.361 128.639 431.837 128.406C432.322 128.163 432.859 128.042 433.447 128.042C434.128 128.042 434.735 128.191 435.267 128.49C435.799 128.779 436.214 129.185 436.513 129.708C436.821 130.231 436.975 130.837 436.975 131.528C436.975 132.209 436.816 132.821 436.499 133.362C436.191 133.903 435.752 134.328 435.183 134.636C434.614 134.935 433.946 135.084 433.181 135.084ZM433.293 134.258C433.816 134.258 434.278 134.141 434.679 133.908C435.08 133.665 435.393 133.339 435.617 132.928C435.85 132.517 435.967 132.055 435.967 131.542C435.967 131.038 435.85 130.59 435.617 130.198C435.393 129.806 435.08 129.498 434.679 129.274C434.278 129.041 433.811 128.924 433.279 128.924C432.756 128.924 432.294 129.036 431.893 129.26C431.492 129.475 431.174 129.778 430.941 130.17C430.717 130.562 430.605 131.015 430.605 131.528C430.605 132.041 430.717 132.503 430.941 132.914C431.174 133.325 431.492 133.651 431.893 133.894C432.304 134.137 432.77 134.258 433.293 134.258ZM442.255 135.07C441.49 135.07 440.818 134.911 440.239 134.594C439.661 134.267 439.208 133.824 438.881 133.264C438.555 132.695 438.391 132.046 438.391 131.318C438.391 130.59 438.545 129.946 438.853 129.386C439.171 128.826 439.6 128.387 440.141 128.07C440.692 127.743 441.308 127.58 441.989 127.58C442.68 127.58 443.291 127.739 443.823 128.056C444.365 128.364 444.789 128.803 445.097 129.372C445.405 129.932 445.559 130.581 445.559 131.318C445.559 131.365 445.555 131.416 445.545 131.472C445.545 131.519 445.545 131.57 445.545 131.626H439.147V130.884H445.013L444.621 131.178C444.621 130.646 444.505 130.175 444.271 129.764C444.047 129.344 443.739 129.017 443.347 128.784C442.955 128.551 442.503 128.434 441.989 128.434C441.485 128.434 441.033 128.551 440.631 128.784C440.23 129.017 439.917 129.344 439.693 129.764C439.469 130.184 439.357 130.665 439.357 131.206V131.36C439.357 131.92 439.479 132.415 439.721 132.844C439.973 133.264 440.319 133.595 440.757 133.838C441.205 134.071 441.714 134.188 442.283 134.188C442.731 134.188 443.147 134.109 443.529 133.95C443.921 133.791 444.257 133.549 444.537 133.222L445.097 133.866C444.771 134.258 444.36 134.557 443.865 134.762C443.38 134.967 442.843 135.07 442.255 135.07ZM451.554 135.07C450.919 135.07 450.345 134.925 449.832 134.636C449.318 134.337 448.908 133.913 448.6 133.362C448.301 132.802 448.152 132.121 448.152 131.318C448.152 130.515 448.301 129.839 448.6 129.288C448.898 128.728 449.304 128.303 449.818 128.014C450.331 127.725 450.91 127.58 451.554 127.58C452.254 127.58 452.879 127.739 453.43 128.056C453.99 128.364 454.428 128.803 454.746 129.372C455.063 129.932 455.222 130.581 455.222 131.318C455.222 132.065 455.063 132.718 454.746 133.278C454.428 133.838 453.99 134.277 453.43 134.594C452.879 134.911 452.254 135.07 451.554 135.07ZM447.76 137.716V127.65H448.712V129.862L448.614 131.332L448.754 132.816V137.716H447.76ZM451.484 134.188C452.006 134.188 452.473 134.071 452.884 133.838C453.294 133.595 453.621 133.259 453.864 132.83C454.106 132.391 454.228 131.887 454.228 131.318C454.228 130.749 454.106 130.249 453.864 129.82C453.621 129.391 453.294 129.055 452.884 128.812C452.473 128.569 452.006 128.448 451.484 128.448C450.961 128.448 450.49 128.569 450.07 128.812C449.659 129.055 449.332 129.391 449.09 129.82C448.856 130.249 448.74 130.749 448.74 131.318C448.74 131.887 448.856 132.391 449.09 132.83C449.332 133.259 449.659 133.595 450.07 133.838C450.49 134.071 450.961 134.188 451.484 134.188ZM457.278 137.786C456.933 137.786 456.602 137.73 456.284 137.618C455.976 137.506 455.71 137.338 455.486 137.114L455.948 136.372C456.135 136.549 456.336 136.685 456.55 136.778C456.774 136.881 457.022 136.932 457.292 136.932C457.619 136.932 457.899 136.839 458.132 136.652C458.375 136.475 458.604 136.157 458.818 135.7L459.294 134.622L459.406 134.468L462.43 127.65H463.41L459.728 135.882C459.523 136.358 459.294 136.736 459.042 137.016C458.8 137.296 458.534 137.492 458.244 137.604C457.955 137.725 457.633 137.786 457.278 137.786ZM459.238 135.21L455.85 127.65H456.886L459.882 134.398L459.238 135.21ZM464.959 135V127.65H465.953V135H464.959ZM465.463 126.026C465.258 126.026 465.085 125.956 464.945 125.816C464.805 125.676 464.735 125.508 464.735 125.312C464.735 125.116 464.805 124.953 464.945 124.822C465.085 124.682 465.258 124.612 465.463 124.612C465.668 124.612 465.841 124.677 465.981 124.808C466.121 124.939 466.191 125.102 466.191 125.298C466.191 125.503 466.121 125.676 465.981 125.816C465.85 125.956 465.678 126.026 465.463 126.026ZM468.787 135V127.65H469.781V130.898H474.415V127.65H475.409V135H474.415V131.752H469.781V135H468.787ZM475.647 136.61V134.734L475.899 135H474.401V134.132H476.585V136.61H475.647ZM478.494 135V127.65H479.488V135H478.494ZM478.998 126.026C478.793 126.026 478.62 125.956 478.48 125.816C478.34 125.676 478.27 125.508 478.27 125.312C478.27 125.116 478.34 124.953 478.48 124.822C478.62 124.682 478.793 124.612 478.998 124.612C479.203 124.612 479.376 124.677 479.516 124.808C479.656 124.939 479.726 125.102 479.726 125.298C479.726 125.503 479.656 125.676 479.516 125.816C479.385 125.956 479.213 126.026 478.998 126.026ZM484.146 135.084C483.614 135.084 483.086 135.009 482.564 134.86C482.041 134.711 481.579 134.482 481.178 134.174L481.5 133.432C481.854 133.693 482.265 133.894 482.732 134.034C483.198 134.165 483.66 134.23 484.118 134.23C484.575 134.221 484.972 134.155 485.308 134.034C485.644 133.913 485.905 133.745 486.092 133.53C486.278 133.315 486.372 133.073 486.372 132.802C486.372 132.41 486.194 132.107 485.84 131.892C485.485 131.668 485 131.556 484.384 131.556H483.124V130.828H484.314C484.678 130.828 485 130.781 485.28 130.688C485.56 130.595 485.774 130.459 485.924 130.282C486.082 130.105 486.162 129.895 486.162 129.652C486.162 129.391 486.068 129.167 485.882 128.98C485.704 128.793 485.457 128.653 485.14 128.56C484.822 128.467 484.463 128.42 484.062 128.42C483.698 128.429 483.32 128.485 482.928 128.588C482.536 128.681 482.148 128.826 481.766 129.022L481.486 128.252C481.915 128.028 482.34 127.86 482.76 127.748C483.189 127.627 483.618 127.566 484.048 127.566C484.636 127.547 485.163 127.617 485.63 127.776C486.106 127.935 486.484 128.163 486.764 128.462C487.044 128.751 487.184 129.101 487.184 129.512C487.184 129.876 487.072 130.193 486.848 130.464C486.624 130.735 486.325 130.945 485.952 131.094C485.578 131.243 485.154 131.318 484.678 131.318L484.72 131.052C485.56 131.052 486.213 131.215 486.68 131.542C487.156 131.869 487.394 132.312 487.394 132.872C487.394 133.311 487.249 133.698 486.96 134.034C486.67 134.361 486.278 134.617 485.784 134.804C485.298 134.991 484.752 135.084 484.146 135.084ZM494.69 134.524V128.518H491.148L491.064 130.156C491.046 130.651 491.013 131.136 490.966 131.612C490.929 132.088 490.859 132.527 490.756 132.928C490.663 133.32 490.528 133.642 490.35 133.894C490.173 134.137 489.944 134.277 489.664 134.314L488.67 134.132C488.96 134.141 489.198 134.039 489.384 133.824C489.571 133.6 489.716 133.297 489.818 132.914C489.921 132.531 489.996 132.097 490.042 131.612C490.089 131.117 490.126 130.613 490.154 130.1L490.252 127.65H495.684V134.524H494.69ZM488.362 136.778V134.132H496.832V136.778H495.894V135H489.3V136.778H488.362ZM498.769 135V127.65H499.763V135H498.769ZM499.273 126.026C499.068 126.026 498.895 125.956 498.755 125.816C498.615 125.676 498.545 125.508 498.545 125.312C498.545 125.116 498.615 124.953 498.755 124.822C498.895 124.682 499.068 124.612 499.273 124.612C499.479 124.612 499.651 124.677 499.791 124.808C499.931 124.939 500.001 125.102 500.001 125.298C500.001 125.503 499.931 125.676 499.791 125.816C499.661 125.956 499.488 126.026 499.273 126.026ZM60.494 150.07C59.766 150.07 59.1127 149.911 58.534 149.594C57.9647 149.267 57.5167 148.824 57.19 148.264C56.8633 147.695 56.7 147.046 56.7 146.318C56.7 145.581 56.8633 144.932 57.19 144.372C57.5167 143.812 57.9647 143.373 58.534 143.056C59.1127 142.739 59.766 142.58 60.494 142.58C61.1193 142.58 61.684 142.701 62.188 142.944C62.692 143.187 63.0887 143.551 63.378 144.036L62.636 144.54C62.384 144.167 62.0713 143.891 61.698 143.714C61.3247 143.537 60.9187 143.448 60.48 143.448C59.9573 143.448 59.486 143.569 59.066 143.812C58.646 144.045 58.3147 144.377 58.072 144.806C57.8293 145.235 57.708 145.739 57.708 146.318C57.708 146.897 57.8293 147.401 58.072 147.83C58.3147 148.259 58.646 148.595 59.066 148.838C59.486 149.071 59.9573 149.188 60.48 149.188C60.9187 149.188 61.3247 149.099 61.698 148.922C62.0713 148.745 62.384 148.474 62.636 148.11L63.378 148.614C63.0887 149.09 62.692 149.454 62.188 149.706C61.684 149.949 61.1193 150.07 60.494 150.07ZM64.7873 150.28V149.566H70.5833V150.28H64.7873ZM67.4053 150.518L63.9193 142.65H64.9693L67.9513 149.468H67.4613L70.4993 142.65H71.4793L67.9793 150.518H67.4053ZM68.1893 149.51V152.716H67.1953V149.51H68.1893ZM76.8076 150.07C76.1729 150.07 75.5989 149.925 75.0856 149.636C74.5723 149.337 74.1616 148.913 73.8536 148.362C73.5549 147.802 73.4056 147.121 73.4056 146.318C73.4056 145.515 73.5549 144.839 73.8536 144.288C74.1523 143.728 74.5583 143.303 75.0716 143.014C75.5849 142.725 76.1636 142.58 76.8076 142.58C77.5076 142.58 78.1329 142.739 78.6836 143.056C79.2436 143.364 79.6823 143.803 79.9996 144.372C80.3169 144.932 80.4756 145.581 80.4756 146.318C80.4756 147.065 80.3169 147.718 79.9996 148.278C79.6823 148.838 79.2436 149.277 78.6836 149.594C78.1329 149.911 77.5076 150.07 76.8076 150.07ZM73.0136 152.716V142.65H73.9656V144.862L73.8676 146.332L74.0076 147.816V152.716H73.0136ZM76.7376 149.188C77.2603 149.188 77.7269 149.071 78.1376 148.838C78.5483 148.595 78.8749 148.259 79.1176 147.83C79.3603 147.391 79.4816 146.887 79.4816 146.318C79.4816 145.749 79.3603 145.249 79.1176 144.82C78.8749 144.391 78.5483 144.055 78.1376 143.812C77.7269 143.569 77.2603 143.448 76.7376 143.448C76.2149 143.448 75.7436 143.569 75.3236 143.812C74.9129 144.055 74.5863 144.391 74.3436 144.82C74.1103 145.249 73.9936 145.749 73.9936 146.318C73.9936 146.887 74.1103 147.391 74.3436 147.83C74.5863 148.259 74.9129 148.595 75.3236 148.838C75.7436 149.071 76.2149 149.188 76.7376 149.188ZM87.1343 150V148.376L87.0923 148.11V145.394C87.0923 144.769 86.9149 144.288 86.5603 143.952C86.2149 143.616 85.6969 143.448 85.0063 143.448C84.5303 143.448 84.0776 143.527 83.6483 143.686C83.2189 143.845 82.8549 144.055 82.5563 144.316L82.1083 143.574C82.4816 143.257 82.9296 143.014 83.4523 142.846C83.9749 142.669 84.5256 142.58 85.1043 142.58C86.0563 142.58 86.7889 142.818 87.3023 143.294C87.8249 143.761 88.0863 144.475 88.0863 145.436V150H87.1343ZM84.6003 150.07C84.0496 150.07 83.5689 149.981 83.1583 149.804C82.7569 149.617 82.4489 149.365 82.2343 149.048C82.0196 148.721 81.9123 148.348 81.9123 147.928C81.9123 147.545 82.0009 147.2 82.1783 146.892C82.3649 146.575 82.6636 146.323 83.0743 146.136C83.4943 145.94 84.0543 145.842 84.7542 145.842H87.2883V146.584H84.7823C84.0729 146.584 83.5783 146.71 83.2983 146.962C83.0276 147.214 82.8923 147.527 82.8923 147.9C82.8923 148.32 83.0556 148.656 83.3823 148.908C83.7089 149.16 84.1663 149.286 84.7542 149.286C85.3143 149.286 85.7949 149.16 86.1963 148.908C86.6069 148.647 86.9056 148.273 87.0923 147.788L87.3163 148.474C87.1296 148.959 86.8029 149.347 86.3363 149.636C85.8789 149.925 85.3003 150.07 84.6003 150.07ZM90.7324 150V142.65H91.7264V148.488L96.6404 142.65H97.5224V150H96.5284V144.148L91.6284 150H90.7324ZM94.0644 141.586C93.4484 141.586 92.949 141.432 92.5664 141.124C92.193 140.807 91.997 140.354 91.9784 139.766H92.6924C92.7017 140.139 92.8324 140.433 93.0844 140.648C93.3364 140.863 93.663 140.97 94.0644 140.97C94.4657 140.97 94.7924 140.863 95.0444 140.648C95.3057 140.433 95.441 140.139 95.4504 139.766H96.1644C96.155 140.354 95.959 140.807 95.5764 141.124C95.1937 141.432 94.6897 141.586 94.0644 141.586ZM100.371 150V142.65H101.379L104.711 148.292H104.291L107.679 142.65H108.603V150H107.693V143.784L107.875 143.868L104.711 149.104H104.263L101.071 143.812L101.281 143.77V150H100.371ZM118.6 150V142.65H119.594V150H118.6ZM114.526 145.24C115.45 145.249 116.154 145.455 116.64 145.856C117.125 146.257 117.368 146.836 117.368 147.592C117.368 148.376 117.106 148.978 116.584 149.398C116.061 149.818 115.314 150.023 114.344 150.014L111.432 150V142.65H112.426V145.212L114.526 145.24ZM114.274 149.258C114.964 149.267 115.482 149.132 115.828 148.852C116.182 148.563 116.36 148.143 116.36 147.592C116.36 147.041 116.187 146.64 115.842 146.388C115.496 146.127 114.974 145.991 114.274 145.982L112.426 145.954V149.23L114.274 149.258ZM124.247 150.084C123.715 150.084 123.188 150.009 122.665 149.86C122.143 149.711 121.681 149.482 121.279 149.174L121.601 148.432C121.956 148.693 122.367 148.894 122.833 149.034C123.3 149.165 123.762 149.23 124.219 149.23C124.677 149.221 125.073 149.155 125.409 149.034C125.745 148.913 126.007 148.745 126.193 148.53C126.38 148.315 126.473 148.073 126.473 147.802C126.473 147.41 126.296 147.107 125.941 146.892C125.587 146.668 125.101 146.556 124.485 146.556H123.225V145.828H124.415C124.779 145.828 125.101 145.781 125.381 145.688C125.661 145.595 125.876 145.459 126.025 145.282C126.184 145.105 126.263 144.895 126.263 144.652C126.263 144.391 126.17 144.167 125.983 143.98C125.806 143.793 125.559 143.653 125.241 143.56C124.924 143.467 124.565 143.42 124.163 143.42C123.799 143.429 123.421 143.485 123.029 143.588C122.637 143.681 122.25 143.826 121.867 144.022L121.587 143.252C122.017 143.028 122.441 142.86 122.861 142.748C123.291 142.627 123.72 142.566 124.149 142.566C124.737 142.547 125.265 142.617 125.731 142.776C126.207 142.935 126.585 143.163 126.865 143.462C127.145 143.751 127.285 144.101 127.285 144.512C127.285 144.876 127.173 145.193 126.949 145.464C126.725 145.735 126.427 145.945 126.053 146.094C125.68 146.243 125.255 146.318 124.779 146.318L124.821 146.052C125.661 146.052 126.315 146.215 126.781 146.542C127.257 146.869 127.495 147.312 127.495 147.872C127.495 148.311 127.351 148.698 127.061 149.034C126.772 149.361 126.38 149.617 125.885 149.804C125.4 149.991 124.854 150.084 124.247 150.084ZM129.822 150.07C129.617 150.07 129.439 149.995 129.29 149.846C129.15 149.697 129.08 149.515 129.08 149.3C129.08 149.076 129.15 148.894 129.29 148.754C129.439 148.614 129.617 148.544 129.822 148.544C130.027 148.544 130.2 148.614 130.34 148.754C130.489 148.894 130.564 149.076 130.564 149.3C130.564 149.515 130.489 149.697 130.34 149.846C130.2 149.995 130.027 150.07 129.822 150.07ZM136.621 150V140.2H143.789V141.082H137.643V144.288H140.849C142.006 144.288 142.883 144.526 143.481 145.002C144.087 145.469 144.391 146.159 144.391 147.074C144.391 148.017 144.064 148.74 143.411 149.244C142.767 149.748 141.838 150 140.625 150H136.621ZM137.643 149.174H140.611C141.516 149.174 142.197 149.001 142.655 148.656C143.121 148.301 143.355 147.788 143.355 147.116C143.355 145.781 142.44 145.114 140.611 145.114H137.643V149.174ZM146.541 150V142.65H147.535V150H146.541ZM147.045 141.026C146.84 141.026 146.667 140.956 146.527 140.816C146.387 140.676 146.317 140.508 146.317 140.312C146.317 140.116 146.387 139.953 146.527 139.822C146.667 139.682 146.84 139.612 147.045 139.612C147.25 139.612 147.423 139.677 147.563 139.808C147.703 139.939 147.773 140.102 147.773 140.298C147.773 140.503 147.703 140.676 147.563 140.816C147.432 140.956 147.26 141.026 147.045 141.026ZM152.193 150.084C151.661 150.084 151.133 150.009 150.611 149.86C150.088 149.711 149.626 149.482 149.225 149.174L149.547 148.432C149.901 148.693 150.312 148.894 150.779 149.034C151.245 149.165 151.707 149.23 152.165 149.23C152.622 149.221 153.019 149.155 153.355 149.034C153.691 148.913 153.952 148.745 154.139 148.53C154.325 148.315 154.419 148.073 154.419 147.802C154.419 147.41 154.241 147.107 153.887 146.892C153.532 146.668 153.047 146.556 152.431 146.556H151.171V145.828H152.361C152.725 145.828 153.047 145.781 153.327 145.688C153.607 145.595 153.821 145.459 153.971 145.282C154.129 145.105 154.209 144.895 154.209 144.652C154.209 144.391 154.115 144.167 153.929 143.98C153.751 143.793 153.504 143.653 153.187 143.56C152.869 143.467 152.51 143.42 152.109 143.42C151.745 143.429 151.367 143.485 150.975 143.588C150.583 143.681 150.195 143.826 149.813 144.022L149.533 143.252C149.962 143.028 150.387 142.86 150.807 142.748C151.236 142.627 151.665 142.566 152.095 142.566C152.683 142.547 153.21 142.617 153.677 142.776C154.153 142.935 154.531 143.163 154.811 143.462C155.091 143.751 155.231 144.101 155.231 144.512C155.231 144.876 155.119 145.193 154.895 145.464C154.671 145.735 154.372 145.945 153.999 146.094C153.625 146.243 153.201 146.318 152.725 146.318L152.767 146.052C153.607 146.052 154.26 146.215 154.727 146.542C155.203 146.869 155.441 147.312 155.441 147.872C155.441 148.311 155.296 148.698 155.007 149.034C154.717 149.361 154.325 149.617 153.831 149.804C153.345 149.991 152.799 150.084 152.193 150.084ZM162.737 149.524V143.518H159.195L159.111 145.156C159.093 145.651 159.06 146.136 159.013 146.612C158.976 147.088 158.906 147.527 158.803 147.928C158.71 148.32 158.575 148.642 158.397 148.894C158.22 149.137 157.991 149.277 157.711 149.314L156.717 149.132C157.007 149.141 157.245 149.039 157.431 148.824C157.618 148.6 157.763 148.297 157.865 147.914C157.968 147.531 158.043 147.097 158.089 146.612C158.136 146.117 158.173 145.613 158.201 145.1L158.299 142.65H163.731V149.524H162.737ZM156.409 151.778V149.132H164.879V151.778H163.941V150H157.347V151.778H156.409ZM166.816 150V142.65H167.81V150H166.816ZM167.32 141.026C167.115 141.026 166.942 140.956 166.802 140.816C166.662 140.676 166.592 140.508 166.592 140.312C166.592 140.116 166.662 139.953 166.802 139.822C166.942 139.682 167.115 139.612 167.32 139.612C167.526 139.612 167.698 139.677 167.838 139.808C167.978 139.939 168.048 140.102 168.048 140.298C168.048 140.503 167.978 140.676 167.838 140.816C167.708 140.956 167.535 141.026 167.32 141.026ZM170.644 150V142.65H171.638V145.898H176.272V142.65H177.266V150H176.272V146.752H171.638V150H170.644ZM177.504 151.61V149.734L177.756 150H176.258V149.132H178.442V151.61H177.504ZM189.056 149.524V143.518H185.514L185.43 145.156C185.411 145.651 185.378 146.136 185.332 146.612C185.294 147.088 185.224 147.527 185.122 147.928C185.028 148.32 184.893 148.642 184.716 148.894C184.538 149.137 184.31 149.277 184.03 149.314L183.036 149.132C183.325 149.141 183.563 149.039 183.75 148.824C183.936 148.6 184.081 148.297 184.184 147.914C184.286 147.531 184.361 147.097 184.408 146.612C184.454 146.117 184.492 145.613 184.52 145.1L184.618 142.65H190.05V149.524H189.056ZM182.728 151.778V149.132H191.198V151.778H190.26V150H183.666V151.778H182.728ZM197.699 150V148.376L197.657 148.11V145.394C197.657 144.769 197.479 144.288 197.125 143.952C196.779 143.616 196.261 143.448 195.571 143.448C195.095 143.448 194.642 143.527 194.213 143.686C193.783 143.845 193.419 144.055 193.121 144.316L192.673 143.574C193.046 143.257 193.494 143.014 194.017 142.846C194.539 142.669 195.09 142.58 195.669 142.58C196.621 142.58 197.353 142.818 197.867 143.294C198.389 143.761 198.651 144.475 198.651 145.436V150H197.699ZM195.165 150.07C194.614 150.07 194.133 149.981 193.723 149.804C193.321 149.617 193.013 149.365 192.799 149.048C192.584 148.721 192.477 148.348 192.477 147.928C192.477 147.545 192.565 147.2 192.743 146.892C192.929 146.575 193.228 146.323 193.639 146.136C194.059 145.94 194.619 145.842 195.319 145.842H197.853V146.584H195.347C194.637 146.584 194.143 146.71 193.863 146.962C193.592 147.214 193.457 147.527 193.457 147.9C193.457 148.32 193.62 148.656 193.947 148.908C194.273 149.16 194.731 149.286 195.319 149.286C195.879 149.286 196.359 149.16 196.761 148.908C197.171 148.647 197.47 148.273 197.657 147.788L197.881 148.474C197.694 148.959 197.367 149.347 196.901 149.636C196.443 149.925 195.865 150.07 195.165 150.07ZM201.297 150V142.65H202.305L205.637 148.292H205.217L208.605 142.65H209.529V150H208.619V143.784L208.801 143.868L205.637 149.104H205.189L201.997 143.812L202.207 143.77V150H201.297ZM212.483 152.786C212.138 152.786 211.807 152.73 211.489 152.618C211.181 152.506 210.915 152.338 210.691 152.114L211.153 151.372C211.34 151.549 211.541 151.685 211.755 151.778C211.979 151.881 212.227 151.932 212.497 151.932C212.824 151.932 213.104 151.839 213.337 151.652C213.58 151.475 213.809 151.157 214.023 150.7L214.499 149.622L214.611 149.468L217.635 142.65H218.615L214.933 150.882C214.728 151.358 214.499 151.736 214.247 152.016C214.005 152.296 213.739 152.492 213.449 152.604C213.16 152.725 212.838 152.786 212.483 152.786ZM214.443 150.21L211.055 142.65H212.091L215.087 149.398L214.443 150.21ZM227.332 150V142.65H228.326V150H227.332ZM223.258 145.24C224.182 145.249 224.887 145.455 225.372 145.856C225.857 146.257 226.1 146.836 226.1 147.592C226.1 148.376 225.839 148.978 225.316 149.398C224.793 149.818 224.047 150.023 223.076 150.014L220.164 150V142.65H221.158V145.212L223.258 145.24ZM223.006 149.258C223.697 149.267 224.215 149.132 224.56 148.852C224.915 148.563 225.092 148.143 225.092 147.592C225.092 147.041 224.919 146.64 224.574 146.388C224.229 146.127 223.706 145.991 223.006 145.982L221.158 145.954V149.23L223.006 149.258ZM231.156 150V142.65H232.164L235.496 148.292H235.076L238.464 142.65H239.388V150H238.478V143.784L238.66 143.868L235.496 149.104H235.048L231.856 143.812L232.066 143.77V150H231.156ZM249.385 150V142.65H250.379V150H249.385ZM245.311 145.24C246.235 145.249 246.939 145.455 247.425 145.856C247.91 146.257 248.153 146.836 248.153 147.592C248.153 148.376 247.891 148.978 247.369 149.398C246.846 149.818 246.099 150.023 245.129 150.014L242.217 150V142.65H243.211V145.212L245.311 145.24ZM245.059 149.258C245.749 149.267 246.267 149.132 246.613 148.852C246.967 148.563 247.145 148.143 247.145 147.592C247.145 147.041 246.972 146.64 246.627 146.388C246.281 146.127 245.759 145.991 245.059 145.982L243.211 145.954V149.23L245.059 149.258ZM255.033 150.084C254.501 150.084 253.973 150.009 253.451 149.86C252.928 149.711 252.466 149.482 252.065 149.174L252.387 148.432C252.741 148.693 253.152 148.894 253.619 149.034C254.085 149.165 254.547 149.23 255.005 149.23C255.462 149.221 255.859 149.155 256.195 149.034C256.531 148.913 256.792 148.745 256.979 148.53C257.165 148.315 257.259 148.073 257.259 147.802C257.259 147.41 257.081 147.107 256.727 146.892C256.372 146.668 255.887 146.556 255.271 146.556H254.011V145.828H255.201C255.565 145.828 255.887 145.781 256.167 145.688C256.447 145.595 256.661 145.459 256.811 145.282C256.969 145.105 257.049 144.895 257.049 144.652C257.049 144.391 256.955 144.167 256.769 143.98C256.591 143.793 256.344 143.653 256.027 143.56C255.709 143.467 255.35 143.42 254.949 143.42C254.585 143.429 254.207 143.485 253.815 143.588C253.423 143.681 253.035 143.826 252.653 144.022L252.373 143.252C252.802 143.028 253.227 142.86 253.647 142.748C254.076 142.627 254.505 142.566 254.935 142.566C255.523 142.547 256.05 142.617 256.517 142.776C256.993 142.935 257.371 143.163 257.651 143.462C257.931 143.751 258.071 144.101 258.071 144.512C258.071 144.876 257.959 145.193 257.735 145.464C257.511 145.735 257.212 145.945 256.839 146.094C256.465 146.243 256.041 146.318 255.565 146.318L255.607 146.052C256.447 146.052 257.1 146.215 257.567 146.542C258.043 146.869 258.281 147.312 258.281 147.872C258.281 148.311 258.136 148.698 257.847 149.034C257.557 149.361 257.165 149.617 256.671 149.804C256.185 149.991 255.639 150.084 255.033 150.084ZM259.767 147.102V146.374H264.961V147.102H259.767ZM260.747 150V142.65H265.955V143.518H261.489L261.741 143.266V150H260.747ZM272.128 150V148.376L272.086 148.11V145.394C272.086 144.769 271.909 144.288 271.554 143.952C271.209 143.616 270.691 143.448 270 143.448C269.524 143.448 269.072 143.527 268.642 143.686C268.213 143.845 267.849 144.055 267.55 144.316L267.102 143.574C267.476 143.257 267.924 143.014 268.446 142.846C268.969 142.669 269.52 142.58 270.098 142.58C271.05 142.58 271.783 142.818 272.296 143.294C272.819 143.761 273.08 144.475 273.08 145.436V150H272.128ZM269.594 150.07C269.044 150.07 268.563 149.981 268.152 149.804C267.751 149.617 267.443 149.365 267.228 149.048C267.014 148.721 266.906 148.348 266.906 147.928C266.906 147.545 266.995 147.2 267.172 146.892C267.359 146.575 267.658 146.323 268.068 146.136C268.488 145.94 269.048 145.842 269.748 145.842H272.282V146.584H269.776C269.067 146.584 268.572 146.71 268.292 146.962C268.022 147.214 267.886 147.527 267.886 147.9C267.886 148.32 268.05 148.656 268.376 148.908C268.703 149.16 269.16 149.286 269.748 149.286C270.308 149.286 270.789 149.16 271.19 148.908C271.601 148.647 271.9 148.273 272.086 147.788L272.31 148.474C272.124 148.959 271.797 149.347 271.33 149.636C270.873 149.925 270.294 150.07 269.594 150.07ZM282.471 150.07C281.743 150.07 281.089 149.911 280.511 149.594C279.941 149.267 279.493 148.824 279.167 148.264C278.84 147.695 278.677 147.046 278.677 146.318C278.677 145.581 278.84 144.932 279.167 144.372C279.493 143.812 279.941 143.373 280.511 143.056C281.089 142.739 281.743 142.58 282.471 142.58C283.096 142.58 283.661 142.701 284.165 142.944C284.669 143.187 285.065 143.551 285.355 144.036L284.613 144.54C284.361 144.167 284.048 143.891 283.675 143.714C283.301 143.537 282.895 143.448 282.457 143.448C281.934 143.448 281.463 143.569 281.043 143.812C280.623 144.045 280.291 144.377 280.049 144.806C279.806 145.235 279.685 145.739 279.685 146.318C279.685 146.897 279.806 147.401 280.049 147.83C280.291 148.259 280.623 148.595 281.043 148.838C281.463 149.071 281.934 149.188 282.457 149.188C282.895 149.188 283.301 149.099 283.675 148.922C284.048 148.745 284.361 148.474 284.613 148.11L285.355 148.614C285.065 149.09 284.669 149.454 284.165 149.706C283.661 149.949 283.096 150.07 282.471 150.07ZM290.306 150.07C289.541 150.07 288.869 149.911 288.29 149.594C287.712 149.267 287.259 148.824 286.932 148.264C286.606 147.695 286.442 147.046 286.442 146.318C286.442 145.59 286.596 144.946 286.904 144.386C287.222 143.826 287.651 143.387 288.192 143.07C288.743 142.743 289.359 142.58 290.04 142.58C290.731 142.58 291.342 142.739 291.874 143.056C292.416 143.364 292.84 143.803 293.148 144.372C293.456 144.932 293.61 145.581 293.61 146.318C293.61 146.365 293.606 146.416 293.596 146.472C293.596 146.519 293.596 146.57 293.596 146.626H287.198V145.884H293.064L292.672 146.178C292.672 145.646 292.556 145.175 292.322 144.764C292.098 144.344 291.79 144.017 291.398 143.784C291.006 143.551 290.554 143.434 290.04 143.434C289.536 143.434 289.084 143.551 288.682 143.784C288.281 144.017 287.968 144.344 287.744 144.764C287.52 145.184 287.408 145.665 287.408 146.206V146.36C287.408 146.92 287.53 147.415 287.772 147.844C288.024 148.264 288.37 148.595 288.808 148.838C289.256 149.071 289.765 149.188 290.334 149.188C290.782 149.188 291.198 149.109 291.58 148.95C291.972 148.791 292.308 148.549 292.588 148.222L293.148 148.866C292.822 149.258 292.411 149.557 291.916 149.762C291.431 149.967 290.894 150.07 290.306 150.07ZM295.81 150V142.65H302.418V150H301.424V143.252L301.676 143.518H296.552L296.804 143.252V150H295.81ZM306.644 150V143.252L306.896 143.518H303.858V142.65H310.424V143.518H307.386L307.638 143.252V150H306.644ZM311.861 150V142.65H312.855V150H311.861ZM312.365 141.026C312.16 141.026 311.987 140.956 311.847 140.816C311.707 140.676 311.637 140.508 311.637 140.312C311.637 140.116 311.707 139.953 311.847 139.822C311.987 139.682 312.16 139.612 312.365 139.612C312.571 139.612 312.743 139.677 312.883 139.808C313.023 139.939 313.093 140.102 313.093 140.298C313.093 140.503 313.023 140.676 312.883 140.816C312.753 140.956 312.58 141.026 312.365 141.026ZM315.689 150V142.65H320.897V143.518H316.431L316.683 143.266V150H315.689ZM322.334 150V142.65H323.328V150H322.334ZM322.838 141.026C322.633 141.026 322.46 140.956 322.32 140.816C322.18 140.676 322.11 140.508 322.11 140.312C322.11 140.116 322.18 139.953 322.32 139.822C322.46 139.682 322.633 139.612 322.838 139.612C323.043 139.612 323.216 139.677 323.356 139.808C323.496 139.939 323.566 140.102 323.566 140.298C323.566 140.503 323.496 140.676 323.356 140.816C323.225 140.956 323.053 141.026 322.838 141.026ZM326.162 150V142.65H327.156V145.898H331.79V142.65H332.784V150H331.79V146.752H327.156V150H326.162ZM340.673 150V143.252L340.925 143.518H337.887V142.65H344.453V143.518H341.415L341.667 143.252V150H340.673ZM345.891 150V142.65H346.885V148.488L351.799 142.65H352.681V150H351.687V144.148L346.787 150H345.891ZM355.529 150V142.65H360.737V143.518H356.271L356.523 143.266V150H355.529ZM362.174 150V142.65H363.168V150H362.174ZM362.678 141.026C362.472 141.026 362.3 140.956 362.16 140.816C362.02 140.676 361.95 140.508 361.95 140.312C361.95 140.116 362.02 139.953 362.16 139.822C362.3 139.682 362.472 139.612 362.678 139.612C362.883 139.612 363.056 139.677 363.196 139.808C363.336 139.939 363.406 140.102 363.406 140.298C363.406 140.503 363.336 140.676 363.196 140.816C363.065 140.956 362.892 141.026 362.678 141.026ZM367.826 150.084C367.294 150.084 366.766 150.009 366.244 149.86C365.721 149.711 365.259 149.482 364.858 149.174L365.18 148.432C365.534 148.693 365.945 148.894 366.412 149.034C366.878 149.165 367.34 149.23 367.798 149.23C368.255 149.221 368.652 149.155 368.988 149.034C369.324 148.913 369.585 148.745 369.772 148.53C369.958 148.315 370.052 148.073 370.052 147.802C370.052 147.41 369.874 147.107 369.52 146.892C369.165 146.668 368.68 146.556 368.064 146.556H366.804V145.828H367.994C368.358 145.828 368.68 145.781 368.96 145.688C369.24 145.595 369.454 145.459 369.604 145.282C369.762 145.105 369.842 144.895 369.842 144.652C369.842 144.391 369.748 144.167 369.562 143.98C369.384 143.793 369.137 143.653 368.82 143.56C368.502 143.467 368.143 143.42 367.742 143.42C367.378 143.429 367 143.485 366.608 143.588C366.216 143.681 365.828 143.826 365.446 144.022L365.166 143.252C365.595 143.028 366.02 142.86 366.44 142.748C366.869 142.627 367.298 142.566 367.728 142.566C368.316 142.547 368.843 142.617 369.31 142.776C369.786 142.935 370.164 143.163 370.444 143.462C370.724 143.751 370.864 144.101 370.864 144.512C370.864 144.876 370.752 145.193 370.528 145.464C370.304 145.735 370.005 145.945 369.632 146.094C369.258 146.243 368.834 146.318 368.358 146.318L368.4 146.052C369.24 146.052 369.893 146.215 370.36 146.542C370.836 146.869 371.074 147.312 371.074 147.872C371.074 148.311 370.929 148.698 370.64 149.034C370.35 149.361 369.958 149.617 369.464 149.804C368.978 149.991 368.432 150.084 367.826 150.084ZM376.48 150.07C375.715 150.07 375.043 149.911 374.464 149.594C373.885 149.267 373.433 148.824 373.106 148.264C372.779 147.695 372.616 147.046 372.616 146.318C372.616 145.59 372.77 144.946 373.078 144.386C373.395 143.826 373.825 143.387 374.366 143.07C374.917 142.743 375.533 142.58 376.214 142.58C376.905 142.58 377.516 142.739 378.048 143.056C378.589 143.364 379.014 143.803 379.322 144.372C379.63 144.932 379.784 145.581 379.784 146.318C379.784 146.365 379.779 146.416 379.77 146.472C379.77 146.519 379.77 146.57 379.77 146.626H373.372V145.884H379.238L378.846 146.178C378.846 145.646 378.729 145.175 378.496 144.764C378.272 144.344 377.964 144.017 377.572 143.784C377.18 143.551 376.727 143.434 376.214 143.434C375.71 143.434 375.257 143.551 374.856 143.784C374.455 144.017 374.142 144.344 373.918 144.764C373.694 145.184 373.582 145.665 373.582 146.206V146.36C373.582 146.92 373.703 147.415 373.946 147.844C374.198 148.264 374.543 148.595 374.982 148.838C375.43 149.071 375.939 149.188 376.508 149.188C376.956 149.188 377.371 149.109 377.754 148.95C378.146 148.791 378.482 148.549 378.762 148.222L379.322 148.866C378.995 149.258 378.585 149.557 378.09 149.762C377.605 149.967 377.068 150.07 376.48 150.07ZM386.874 149.524V143.518H383.332L383.248 145.156C383.229 145.651 383.197 146.136 383.15 146.612C383.113 147.088 383.043 147.527 382.94 147.928C382.847 148.32 382.711 148.642 382.534 148.894C382.357 149.137 382.128 149.277 381.848 149.314L380.854 149.132C381.143 149.141 381.381 149.039 381.568 148.824C381.755 148.6 381.899 148.297 382.002 147.914C382.105 147.531 382.179 147.097 382.226 146.612C382.273 146.117 382.31 145.613 382.338 145.1L382.436 142.65H387.868V149.524H386.874ZM380.546 151.778V149.132H389.016V151.778H388.078V150H381.484V151.778H380.546ZM390.953 150V142.65H391.947V150H390.953ZM391.457 141.026C391.252 141.026 391.079 140.956 390.939 140.816C390.799 140.676 390.729 140.508 390.729 140.312C390.729 140.116 390.799 139.953 390.939 139.822C391.079 139.682 391.252 139.612 391.457 139.612C391.662 139.612 391.835 139.677 391.975 139.808C392.115 139.939 392.185 140.102 392.185 140.298C392.185 140.503 392.115 140.676 391.975 140.816C391.844 140.956 391.672 141.026 391.457 141.026ZM394.879 152.716H393.927C394.487 151.755 394.893 150.737 395.145 149.664C395.407 148.581 395.537 147.415 395.537 146.164C395.537 144.913 395.407 143.751 395.145 142.678C394.893 141.595 394.487 140.573 393.927 139.612H394.879C395.411 140.443 395.817 141.423 396.097 142.552C396.377 143.672 396.517 144.876 396.517 146.164C396.517 147.452 396.377 148.656 396.097 149.776C395.817 150.887 395.411 151.867 394.879 152.716Z" fill="white"/>
</g>
<defs>
<filter id="filter0_d_1259_1605" x="175" y="172" width="44" height="44" filterUnits="userSpaceOnUse" color-interpolation-filters="sRGB">
<feFlood flood-opacity="0" result="BackgroundImageFix"/>
<feColorMatrix in="SourceAlpha" type="matrix" values="0 0 0 0 0 0 0 0 0 0 0 0 0 0 0 0 0 0 127 0" result="hardAlpha"/>
<feOffset dy="4"/>
<feGaussianBlur stdDeviation="3.5"/>
<feComposite in2="hardAlpha" operator="out"/>
<feColorMatrix type="matrix" values="0 0 0 0 0 0 0 0 0 0 0 0 0 0 0 0 0 0 0.54 0"/>
<feBlend mode="normal" in2="BackgroundImageFix" result="effect1_dropShadow_1259_1605"/>
<feBlend mode="normal" in="SourceGraphic" in2="effect1_dropShadow_1259_1605" result="shape"/>
</filter>
<clipPath id="clip0_1259_1605">
<rect width="949" height="247" fill="white"/>
</clipPath>
</defs>
</svg>
