<svg width="1683" height="334" viewBox="0 0 1683 334" fill="none" xmlns="http://www.w3.org/2000/svg">
<path d="M262.756 327.451H186.379L66.2895 174.017V327.451H0V0H66.2895V144.546L181.576 0H257.953L133.54 159.048L262.756 327.451Z" fill="#D5D3D3"/>
<path d="M441.787 93.5574H503.754V327.451H441.787V301.255C426.736 323.085 402.878 334 370.214 334C343.954 334 322.178 325.424 304.885 308.272C287.912 291.12 279.426 267.418 279.426 237.168V93.5574H341.392V229.683C341.392 245.276 345.716 257.283 354.362 265.703C363.008 273.811 374.537 277.866 388.948 277.866C404.96 277.866 417.769 273.032 427.377 263.364C436.984 253.697 441.787 239.195 441.787 219.86V93.5574Z" fill="#D5D3D3"/>
<path d="M622.473 133.787C628.238 118.818 637.685 107.591 650.815 100.106C664.265 92.6218 679.156 88.8795 695.488 88.8795V156.241C676.594 154.058 659.621 157.8 644.57 167.468C629.839 177.135 622.473 193.196 622.473 215.65V327.451H560.507V93.5574H622.473V133.787Z" fill="#D5D3D3"/>
<path d="M781.386 159.983C781.386 166.22 785.549 171.366 793.875 175.42C802.521 179.162 812.929 182.593 825.098 185.712C837.268 188.518 849.437 192.261 861.606 196.938C873.775 201.304 884.022 208.789 892.349 219.392C900.995 229.995 905.318 243.249 905.318 259.154C905.318 283.167 896.031 301.723 877.458 314.821C859.204 327.607 836.307 334 808.766 334C759.449 334 725.824 315.444 707.891 278.333L761.691 248.863C768.736 269.134 784.428 279.269 808.766 279.269C830.863 279.269 841.911 272.564 841.911 259.154C841.911 252.917 837.588 247.927 828.941 244.185C820.615 240.131 810.367 236.544 798.198 233.426C786.029 230.307 773.86 226.409 761.691 221.731C749.522 217.053 739.114 209.725 730.468 199.745C722.142 189.454 717.978 176.668 717.978 161.387C717.978 138.309 726.625 120.221 743.918 107.123C761.531 93.7134 783.307 87.0084 809.247 87.0084C828.781 87.0084 846.554 91.3744 862.566 100.106C878.578 108.527 891.228 120.689 900.515 136.594L847.675 164.661C839.99 148.756 827.18 140.804 809.247 140.804C801.241 140.804 794.516 142.519 789.072 145.95C783.948 149.38 781.386 154.058 781.386 159.983Z" fill="#D5D3D3"/>
<path d="M1166.56 327.451L1146.38 268.51H1012.36L992.188 327.451H920.615L1038.3 0H1120.44L1238.61 327.451H1166.56ZM1033.5 208.165H1125.73L1079.61 74.3782L1033.5 208.165Z" fill="#212121"/>
<path d="M1401.92 87.0084C1428.18 87.0084 1449.79 95.5845 1466.77 112.737C1484.06 129.889 1492.71 153.59 1492.71 183.84V327.451H1430.74V191.325C1430.74 175.732 1426.42 163.881 1417.77 155.773C1409.12 147.353 1397.6 143.143 1383.19 143.143C1367.17 143.143 1354.36 147.977 1344.76 157.644C1335.15 167.312 1330.35 181.813 1330.35 201.148V327.451H1268.38V93.5574H1330.35V119.754C1345.4 97.9234 1369.25 87.0084 1401.92 87.0084Z" fill="#212121"/>
<path d="M1683 151.563H1628.72V248.863C1628.72 256.971 1630.8 262.896 1634.96 266.639C1639.13 270.381 1645.21 272.564 1653.22 273.188C1661.22 273.5 1671.15 273.344 1683 272.72V327.451C1640.41 332.129 1610.31 328.231 1592.69 315.756C1575.4 303.282 1566.75 280.984 1566.75 248.863V151.563H1524.96V93.5574H1566.75V46.3109L1628.72 28.0672V93.5574H1683V151.563Z" fill="#212121"/>
</svg>
