<svg width="949" height="247" viewBox="0 0 949 247" fill="none" xmlns="http://www.w3.org/2000/svg">
<g clip-path="url(#clip0_1238_185)">
<rect width="949" height="247" rx="25" fill="#6E63E5"/>
<path opacity="0.79" d="M737 64L741.099 122.907C741.583 129.873 747.127 135.417 754.093 135.901L813 140L754.093 144.099C747.127 144.583 741.583 150.127 741.099 157.093L737 216L732.901 157.093C732.417 150.127 726.873 144.583 719.907 144.099L661 140L719.907 135.901C726.873 135.417 732.417 129.873 732.901 122.907L737 64Z" fill="#D9D9D9"/>
<path opacity="0.15" d="M834 -65L838.099 -6.0932C838.583 0.872803 844.127 6.41655 851.093 6.90125L910 11L851.093 15.0988C844.127 15.5835 838.583 21.1272 838.099 28.0932L834 87L829.901 28.0932C829.417 21.1272 823.873 15.5835 816.907 15.0988L758 11L816.907 6.90125C823.873 6.41655 829.417 0.872795 829.901 -6.09321L834 -65Z" fill="#D9D9D9"/>
<path opacity="0.15" d="M633 160L637.099 218.907C637.583 225.873 643.127 231.417 650.093 231.901L709 236L650.093 240.099C643.127 240.583 637.583 246.127 637.099 253.093L633 312L628.901 253.093C628.417 246.127 622.873 240.583 615.907 240.099L557 236L615.907 231.901C622.873 231.417 628.417 225.873 628.901 218.907L633 160Z" fill="#D9D9D9"/>
<path opacity="0.15" d="M910 160L912.212 191.793C912.697 198.759 918.241 204.303 925.207 204.788L957 207L925.207 209.212C918.241 209.697 912.697 215.241 912.212 222.207L910 254L907.788 222.207C907.303 215.241 901.759 209.697 894.793 209.212L863 207L894.793 204.788C901.759 204.303 907.303 198.759 907.788 191.793L910 160Z" fill="#D9D9D9"/>
<path opacity="0.15" d="M615.5 -10L618.46 32.5452C618.945 39.5112 624.489 45.055 631.455 45.5397L674 48.5L631.455 51.4603C624.489 51.945 618.945 57.4888 618.46 64.4548L615.5 107L612.54 64.4548C612.055 57.4888 606.511 51.945 599.545 51.4603L557 48.5L599.545 45.5397C606.511 45.055 612.055 39.5112 612.54 32.5452L615.5 -10Z" fill="#D9D9D9"/>
<path d="M59.861 104V76.7H81.116V80.873H64.853V87.581H72.926C76.202 87.581 78.685 88.27 80.375 89.648C82.091 91 82.949 92.976 82.949 95.576C82.949 98.254 82 100.334 80.102 101.816C78.23 103.272 75.578 104 72.146 104H59.861ZM64.853 100.1H71.873C73.823 100.1 75.305 99.723 76.319 98.969C77.333 98.215 77.84 97.123 77.84 95.693C77.84 92.885 75.851 91.481 71.873 91.481H64.853V100.1ZM87.9547 104V83.174H92.8297V104H87.9547ZM90.4117 79.742C89.5017 79.742 88.7477 79.456 88.1497 78.884C87.5777 78.312 87.2917 77.623 87.2917 76.817C87.2917 75.985 87.5777 75.296 88.1497 74.75C88.7477 74.178 89.5017 73.892 90.4117 73.892C91.3217 73.892 92.0627 74.165 92.6347 74.711C93.2327 75.231 93.5317 75.894 93.5317 76.7C93.5317 77.558 93.2457 78.286 92.6737 78.884C92.1017 79.456 91.3477 79.742 90.4117 79.742ZM105.743 104.351C104.157 104.351 102.584 104.169 101.024 103.805C99.49 103.415 98.099 102.869 96.851 102.167L98.216 98.54C99.23 99.112 100.374 99.554 101.648 99.866C102.922 100.178 104.196 100.334 105.47 100.334C106.562 100.334 107.498 100.23 108.278 100.022C109.058 99.788 109.656 99.45 110.072 99.008C110.514 98.566 110.735 98.059 110.735 97.487C110.735 96.655 110.371 96.031 109.643 95.615C108.941 95.173 107.927 94.952 106.601 94.952H102.584V91.676H106.211C107.043 91.676 107.745 91.585 108.317 91.403C108.915 91.221 109.37 90.948 109.682 90.584C109.994 90.22 110.15 89.791 110.15 89.297C110.15 88.803 109.955 88.374 109.565 88.01C109.201 87.62 108.668 87.334 107.966 87.152C107.264 86.944 106.419 86.84 105.431 86.84C104.391 86.84 103.312 86.97 102.194 87.23C101.102 87.49 99.984 87.867 98.84 88.361L97.592 84.773C98.918 84.175 100.205 83.72 101.453 83.408C102.727 83.07 103.988 82.888 105.236 82.862C107.134 82.784 108.824 82.979 110.306 83.447C111.788 83.915 112.958 84.591 113.816 85.475C114.674 86.359 115.103 87.399 115.103 88.595C115.103 89.583 114.791 90.48 114.167 91.286C113.569 92.066 112.737 92.677 111.671 93.119C110.631 93.561 109.435 93.782 108.083 93.782L108.239 92.729C110.553 92.729 112.373 93.197 113.699 94.133C115.025 95.043 115.688 96.291 115.688 97.877C115.688 99.151 115.259 100.282 114.401 101.27C113.543 102.232 112.36 102.986 110.852 103.532C109.37 104.078 107.667 104.351 105.743 104.351ZM130.654 104.39C128.938 104.39 127.404 104.13 126.052 103.61C124.7 103.09 123.53 102.297 122.542 101.231C121.58 100.139 120.839 98.761 120.319 97.097C119.799 95.433 119.539 93.457 119.539 91.169C119.539 89.505 119.682 87.984 119.968 86.606C120.254 85.228 120.683 83.993 121.255 82.901C121.827 81.783 122.542 80.795 123.4 79.937C124.284 79.079 125.311 78.364 126.481 77.792C127.651 77.22 128.977 76.778 130.459 76.466L140.131 74.399L140.833 78.767L132.058 80.561C131.564 80.665 130.966 80.821 130.264 81.029C129.588 81.211 128.886 81.497 128.158 81.887C127.456 82.251 126.793 82.784 126.169 83.486C125.571 84.162 125.077 85.046 124.687 86.138C124.323 87.204 124.141 88.543 124.141 90.155C124.141 90.649 124.154 91.026 124.18 91.286C124.232 91.52 124.271 91.78 124.297 92.066C124.349 92.326 124.375 92.716 124.375 93.236L122.542 91.325C123.062 89.999 123.777 88.868 124.687 87.932C125.623 86.97 126.702 86.242 127.924 85.748C129.172 85.228 130.524 84.968 131.98 84.968C133.93 84.968 135.659 85.371 137.167 86.177C138.675 86.983 139.858 88.114 140.716 89.57C141.574 91.026 142.003 92.677 142.003 94.523C142.003 96.447 141.535 98.15 140.599 99.632C139.663 101.114 138.337 102.284 136.621 103.142C134.931 103.974 132.942 104.39 130.654 104.39ZM131.044 100.451C132.214 100.451 133.241 100.204 134.125 99.71C135.035 99.19 135.737 98.488 136.231 97.604C136.751 96.72 137.011 95.732 137.011 94.64C137.011 93.548 136.751 92.599 136.231 91.793C135.737 90.961 135.035 90.298 134.125 89.804C133.241 89.31 132.188 89.063 130.966 89.063C129.796 89.063 128.743 89.297 127.807 89.765C126.897 90.233 126.182 90.883 125.662 91.715C125.168 92.521 124.921 93.457 124.921 94.523C124.921 95.615 125.181 96.616 125.701 97.526C126.221 98.436 126.936 99.151 127.846 99.671C128.782 100.191 129.848 100.451 131.044 100.451ZM156.432 104.273C154.118 104.273 152.09 103.818 150.348 102.908C148.632 101.972 147.293 100.698 146.331 99.086C145.395 97.474 144.927 95.641 144.927 93.587C144.927 91.507 145.382 89.674 146.292 88.088C147.228 86.476 148.502 85.215 150.114 84.305C151.752 83.395 153.611 82.94 155.691 82.94C157.719 82.94 159.526 83.382 161.112 84.266C162.698 85.15 163.946 86.398 164.856 88.01C165.766 89.622 166.221 91.52 166.221 93.704C166.221 93.912 166.208 94.146 166.182 94.406C166.182 94.666 166.169 94.913 166.143 95.147H148.788V91.91H163.569L161.658 92.924C161.684 91.728 161.437 90.675 160.917 89.765C160.397 88.855 159.682 88.14 158.772 87.62C157.888 87.1 156.861 86.84 155.691 86.84C154.495 86.84 153.442 87.1 152.532 87.62C151.648 88.14 150.946 88.868 150.426 89.804C149.932 90.714 149.685 91.793 149.685 93.041V93.821C149.685 95.069 149.971 96.174 150.543 97.136C151.115 98.098 151.921 98.839 152.961 99.359C154.001 99.879 155.197 100.139 156.549 100.139C157.719 100.139 158.772 99.957 159.708 99.593C160.644 99.229 161.476 98.657 162.204 97.877L164.817 100.88C163.881 101.972 162.698 102.817 161.268 103.415C159.864 103.987 158.252 104.273 156.432 104.273ZM171.553 104V83.174H176.428V91.637H186.919V83.174H191.794V104H186.919V95.771H176.428V104H171.553ZM219.051 104.39C217.335 104.39 215.801 104.13 214.449 103.61C213.097 103.09 211.927 102.297 210.939 101.231C209.977 100.139 209.236 98.761 208.716 97.097C208.196 95.433 207.936 93.457 207.936 91.169C207.936 89.505 208.079 87.984 208.365 86.606C208.651 85.228 209.08 83.993 209.652 82.901C210.224 81.783 210.939 80.795 211.797 79.937C212.681 79.079 213.708 78.364 214.878 77.792C216.048 77.22 217.374 76.778 218.856 76.466L228.528 74.399L229.23 78.767L220.455 80.561C219.961 80.665 219.363 80.821 218.661 81.029C217.985 81.211 217.283 81.497 216.555 81.887C215.853 82.251 215.19 82.784 214.566 83.486C213.968 84.162 213.474 85.046 213.084 86.138C212.72 87.204 212.538 88.543 212.538 90.155C212.538 90.649 212.551 91.026 212.577 91.286C212.629 91.52 212.668 91.78 212.694 92.066C212.746 92.326 212.772 92.716 212.772 93.236L210.939 91.325C211.459 89.999 212.174 88.868 213.084 87.932C214.02 86.97 215.099 86.242 216.321 85.748C217.569 85.228 218.921 84.968 220.377 84.968C222.327 84.968 224.056 85.371 225.564 86.177C227.072 86.983 228.255 88.114 229.113 89.57C229.971 91.026 230.4 92.677 230.4 94.523C230.4 96.447 229.932 98.15 228.996 99.632C228.06 101.114 226.734 102.284 225.018 103.142C223.328 103.974 221.339 104.39 219.051 104.39ZM219.441 100.451C220.611 100.451 221.638 100.204 222.522 99.71C223.432 99.19 224.134 98.488 224.628 97.604C225.148 96.72 225.408 95.732 225.408 94.64C225.408 93.548 225.148 92.599 224.628 91.793C224.134 90.961 223.432 90.298 222.522 89.804C221.638 89.31 220.585 89.063 219.363 89.063C218.193 89.063 217.14 89.297 216.204 89.765C215.294 90.233 214.579 90.883 214.059 91.715C213.565 92.521 213.318 93.457 213.318 94.523C213.318 95.615 213.578 96.616 214.098 97.526C214.618 98.436 215.333 99.151 216.243 99.671C217.179 100.191 218.245 100.451 219.441 100.451ZM235.119 104V83.174H239.994V104H235.119ZM237.576 79.742C236.666 79.742 235.912 79.456 235.314 78.884C234.742 78.312 234.456 77.623 234.456 76.817C234.456 75.985 234.742 75.296 235.314 74.75C235.912 74.178 236.666 73.892 237.576 73.892C238.486 73.892 239.227 74.165 239.799 74.711C240.397 75.231 240.696 75.894 240.696 76.7C240.696 77.558 240.41 78.286 239.838 78.884C239.266 79.456 238.512 79.742 237.576 79.742ZM258.127 104.273C256.437 104.273 254.89 103.883 253.486 103.103C252.108 102.323 251.003 101.153 250.171 99.593C249.365 98.007 248.962 96.005 248.962 93.587C248.962 91.143 249.352 89.141 250.132 87.581C250.938 86.021 252.03 84.864 253.408 84.11C254.786 83.33 256.359 82.94 258.127 82.94C260.181 82.94 261.988 83.382 263.548 84.266C265.134 85.15 266.382 86.385 267.292 87.971C268.228 89.557 268.696 91.429 268.696 93.587C268.696 95.745 268.228 97.63 267.292 99.242C266.382 100.828 265.134 102.063 263.548 102.947C261.988 103.831 260.181 104.273 258.127 104.273ZM246.583 111.566V83.174H251.224V88.088L251.068 93.626L251.458 99.164V111.566H246.583ZM257.581 100.1C258.751 100.1 259.791 99.84 260.701 99.32C261.637 98.8 262.378 98.046 262.924 97.058C263.47 96.07 263.743 94.913 263.743 93.587C263.743 92.235 263.47 91.078 262.924 90.116C262.378 89.128 261.637 88.374 260.701 87.854C259.791 87.334 258.751 87.074 257.581 87.074C256.411 87.074 255.358 87.334 254.422 87.854C253.486 88.374 252.745 89.128 252.199 90.116C251.653 91.078 251.38 92.235 251.38 93.587C251.38 94.913 251.653 96.07 252.199 97.058C252.745 98.046 253.486 98.8 254.422 99.32C255.358 99.84 256.411 100.1 257.581 100.1ZM273.547 104V83.174H289.537V87.308H277.291L278.422 86.216V104H273.547ZM301.883 104.273C299.569 104.273 297.541 103.818 295.799 102.908C294.083 101.972 292.744 100.698 291.782 99.086C290.846 97.474 290.378 95.641 290.378 93.587C290.378 91.507 290.833 89.674 291.743 88.088C292.679 86.476 293.953 85.215 295.565 84.305C297.203 83.395 299.062 82.94 301.142 82.94C303.17 82.94 304.977 83.382 306.563 84.266C308.149 85.15 309.397 86.398 310.307 88.01C311.217 89.622 311.672 91.52 311.672 93.704C311.672 93.912 311.659 94.146 311.633 94.406C311.633 94.666 311.62 94.913 311.594 95.147H294.239V91.91H309.02L307.109 92.924C307.135 91.728 306.888 90.675 306.368 89.765C305.848 88.855 305.133 88.14 304.223 87.62C303.339 87.1 302.312 86.84 301.142 86.84C299.946 86.84 298.893 87.1 297.983 87.62C297.099 88.14 296.397 88.868 295.877 89.804C295.383 90.714 295.136 91.793 295.136 93.041V93.821C295.136 95.069 295.422 96.174 295.994 97.136C296.566 98.098 297.372 98.839 298.412 99.359C299.452 99.879 300.648 100.139 302 100.139C303.17 100.139 304.223 99.957 305.159 99.593C306.095 99.229 306.927 98.657 307.655 97.877L310.268 100.88C309.332 101.972 308.149 102.817 306.719 103.415C305.315 103.987 303.703 104.273 301.883 104.273ZM84.119 143L78.035 133.016L82.013 130.559L89.93 143H84.119ZM74.096 134.654V130.598H81.077V134.654H74.096ZM82.481 133.172L77.879 132.626L84.197 122.174H89.384L82.481 133.172ZM62.123 143H56.351L64.229 130.559L68.207 133.016L62.123 143ZM75.539 143H70.703V122.174H75.539V143ZM72.146 134.654H65.204V130.598H72.146V134.654ZM63.761 133.172L56.858 122.174H62.045L68.324 132.626L63.761 133.172ZM105.808 143V138.788L105.535 137.891V130.52C105.535 129.09 105.106 127.985 104.248 127.205C103.39 126.399 102.09 125.996 100.348 125.996C99.1785 125.996 98.0215 126.178 96.8775 126.542C95.7595 126.906 94.8105 127.413 94.0305 128.063L92.1195 124.514C93.2375 123.656 94.5635 123.019 96.0975 122.603C97.6575 122.161 99.2695 121.94 100.933 121.94C103.949 121.94 106.276 122.668 107.914 124.124C109.578 125.554 110.41 127.777 110.41 130.793V143H105.808ZM99.2565 143.273C97.6965 143.273 96.3315 143.013 95.1615 142.493C93.9915 141.947 93.0815 141.206 92.4315 140.27C91.8075 139.308 91.4955 138.229 91.4955 137.033C91.4955 135.863 91.7685 134.81 92.3145 133.874C92.8865 132.938 93.8095 132.197 95.0835 131.651C96.3575 131.105 98.0475 130.832 100.153 130.832H106.198V134.069H100.504C98.8405 134.069 97.7225 134.342 97.1505 134.888C96.5785 135.408 96.2925 136.058 96.2925 136.838C96.2925 137.722 96.6435 138.424 97.3455 138.944C98.0475 139.464 99.0225 139.724 100.27 139.724C101.466 139.724 102.532 139.451 103.468 138.905C104.43 138.359 105.119 137.553 105.535 136.487L106.354 139.412C105.886 140.634 105.041 141.583 103.819 142.259C102.623 142.935 101.102 143.273 99.2565 143.273ZM127.987 143.273C126.297 143.273 124.75 142.883 123.346 142.103C121.968 141.323 120.863 140.153 120.031 138.593C119.225 137.007 118.822 135.005 118.822 132.587C118.822 130.143 119.212 128.141 119.992 126.581C120.798 125.021 121.89 123.864 123.268 123.11C124.646 122.33 126.219 121.94 127.987 121.94C130.041 121.94 131.848 122.382 133.408 123.266C134.994 124.15 136.242 125.385 137.152 126.971C138.088 128.557 138.556 130.429 138.556 132.587C138.556 134.745 138.088 136.63 137.152 138.242C136.242 139.828 134.994 141.063 133.408 141.947C131.848 142.831 130.041 143.273 127.987 143.273ZM116.443 150.566V122.174H121.084V127.088L120.928 132.626L121.318 138.164V150.566H116.443ZM127.441 139.1C128.611 139.1 129.651 138.84 130.561 138.32C131.497 137.8 132.238 137.046 132.784 136.058C133.33 135.07 133.603 133.913 133.603 132.587C133.603 131.235 133.33 130.078 132.784 129.116C132.238 128.128 131.497 127.374 130.561 126.854C129.651 126.334 128.611 126.074 127.441 126.074C126.271 126.074 125.218 126.334 124.282 126.854C123.346 127.374 122.605 128.128 122.059 129.116C121.513 130.078 121.24 131.235 121.24 132.587C121.24 133.913 121.513 135.07 122.059 136.058C122.605 137.046 123.346 137.8 124.282 138.32C125.218 138.84 126.271 139.1 127.441 139.1ZM158.345 143L150.818 133.016L154.796 130.559L164.078 143H158.345ZM143.408 143V122.174H148.283V143H143.408ZM146.84 134.654V130.598H153.899V134.654H146.84ZM155.264 133.172L150.701 132.626L158.345 122.174H163.571L155.264 133.172ZM160.958 147.329V141.83L162.05 143H158.345V138.944H165.365V147.329H160.958ZM188.537 143V122.174H193.412V143H188.537ZM177.656 129.038C180.334 129.038 182.362 129.636 183.74 130.832C185.144 132.028 185.846 133.718 185.846 135.902C185.846 138.164 185.066 139.932 183.506 141.206C181.972 142.454 179.788 143.065 176.954 143.039L167.516 143V122.174H172.391V128.999L177.656 129.038ZM176.525 139.451C177.955 139.477 179.047 139.178 179.801 138.554C180.555 137.93 180.932 137.02 180.932 135.824C180.932 134.628 180.555 133.77 179.801 133.25C179.073 132.704 177.981 132.418 176.525 132.392L172.391 132.353V139.412L176.525 139.451ZM199.965 143V122.174H204.84V130.637H215.331V122.174H220.206V143H215.331V134.771H204.84V143H199.965ZM247.463 143.39C245.747 143.39 244.213 143.13 242.861 142.61C241.509 142.09 240.339 141.297 239.351 140.231C238.389 139.139 237.648 137.761 237.128 136.097C236.608 134.433 236.348 132.457 236.348 130.169C236.348 128.505 236.491 126.984 236.777 125.606C237.063 124.228 237.492 122.993 238.064 121.901C238.636 120.783 239.351 119.795 240.209 118.937C241.093 118.079 242.12 117.364 243.29 116.792C244.46 116.22 245.786 115.778 247.268 115.466L256.94 113.399L257.642 117.767L248.867 119.561C248.373 119.665 247.775 119.821 247.073 120.029C246.397 120.211 245.695 120.497 244.967 120.887C244.265 121.251 243.602 121.784 242.978 122.486C242.38 123.162 241.886 124.046 241.496 125.138C241.132 126.204 240.95 127.543 240.95 129.155C240.95 129.649 240.963 130.026 240.989 130.286C241.041 130.52 241.08 130.78 241.106 131.066C241.158 131.326 241.184 131.716 241.184 132.236L239.351 130.325C239.871 128.999 240.586 127.868 241.496 126.932C242.432 125.97 243.511 125.242 244.733 124.748C245.981 124.228 247.333 123.968 248.789 123.968C250.739 123.968 252.468 124.371 253.976 125.177C255.484 125.983 256.667 127.114 257.525 128.57C258.383 130.026 258.812 131.677 258.812 133.523C258.812 135.447 258.344 137.15 257.408 138.632C256.472 140.114 255.146 141.284 253.43 142.142C251.74 142.974 249.751 143.39 247.463 143.39ZM247.853 139.451C249.023 139.451 250.05 139.204 250.934 138.71C251.844 138.19 252.546 137.488 253.04 136.604C253.56 135.72 253.82 134.732 253.82 133.64C253.82 132.548 253.56 131.599 253.04 130.793C252.546 129.961 251.844 129.298 250.934 128.804C250.05 128.31 248.997 128.063 247.775 128.063C246.605 128.063 245.552 128.297 244.616 128.765C243.706 129.233 242.991 129.883 242.471 130.715C241.977 131.521 241.73 132.457 241.73 133.523C241.73 134.615 241.99 135.616 242.51 136.526C243.03 137.436 243.745 138.151 244.655 138.671C245.591 139.191 246.657 139.451 247.853 139.451ZM272.813 143.273C270.681 143.273 268.783 142.818 267.119 141.908C265.455 140.972 264.142 139.698 263.18 138.086C262.218 136.474 261.737 134.641 261.737 132.587C261.737 130.507 262.218 128.674 263.18 127.088C264.142 125.476 265.455 124.215 267.119 123.305C268.783 122.395 270.681 121.94 272.813 121.94C274.971 121.94 276.882 122.395 278.546 123.305C280.236 124.215 281.549 125.463 282.485 127.049C283.447 128.635 283.928 130.481 283.928 132.587C283.928 134.641 283.447 136.474 282.485 138.086C281.549 139.698 280.236 140.972 278.546 141.908C276.882 142.818 274.971 143.273 272.813 143.273ZM272.813 139.1C274.009 139.1 275.075 138.84 276.011 138.32C276.947 137.8 277.675 137.046 278.195 136.058C278.741 135.07 279.014 133.913 279.014 132.587C279.014 131.235 278.741 130.078 278.195 129.116C277.675 128.128 276.947 127.374 276.011 126.854C275.075 126.334 274.022 126.074 272.852 126.074C271.656 126.074 270.59 126.334 269.654 126.854C268.744 127.374 268.016 128.128 267.47 129.116C266.924 130.078 266.651 131.235 266.651 132.587C266.651 133.913 266.924 135.07 267.47 136.058C268.016 137.046 268.744 137.8 269.654 138.32C270.59 138.84 271.643 139.1 272.813 139.1ZM285.473 142.961L285.707 138.866C285.889 138.892 286.058 138.918 286.214 138.944C286.37 138.97 286.513 138.983 286.643 138.983C287.449 138.983 288.073 138.736 288.515 138.242C288.957 137.748 289.282 137.085 289.49 136.253C289.724 135.395 289.88 134.446 289.958 133.406C290.062 132.34 290.14 131.274 290.192 130.208L290.543 122.174H307.391V143H302.516V124.982L303.647 126.308H293.741L294.794 124.943L294.521 130.442C294.443 132.288 294.287 134.004 294.053 135.59C293.845 137.15 293.507 138.515 293.039 139.685C292.597 140.855 291.973 141.765 291.167 142.415C290.387 143.065 289.386 143.39 288.164 143.39C287.774 143.39 287.345 143.351 286.877 143.273C286.435 143.195 285.967 143.091 285.473 142.961ZM326.593 143V138.788L326.32 137.891V130.52C326.32 129.09 325.891 127.985 325.033 127.205C324.175 126.399 322.875 125.996 321.133 125.996C319.963 125.996 318.806 126.178 317.662 126.542C316.544 126.906 315.595 127.413 314.815 128.063L312.904 124.514C314.022 123.656 315.348 123.019 316.882 122.603C318.442 122.161 320.054 121.94 321.718 121.94C324.734 121.94 327.061 122.668 328.699 124.124C330.363 125.554 331.195 127.777 331.195 130.793V143H326.593ZM320.041 143.273C318.481 143.273 317.116 143.013 315.946 142.493C314.776 141.947 313.866 141.206 313.216 140.27C312.592 139.308 312.28 138.229 312.28 137.033C312.28 135.863 312.553 134.81 313.099 133.874C313.671 132.938 314.594 132.197 315.868 131.651C317.142 131.105 318.832 130.832 320.938 130.832H326.983V134.069H321.289C319.625 134.069 318.507 134.342 317.935 134.888C317.363 135.408 317.077 136.058 317.077 136.838C317.077 137.722 317.428 138.424 318.13 138.944C318.832 139.464 319.807 139.724 321.055 139.724C322.251 139.724 323.317 139.451 324.253 138.905C325.215 138.359 325.904 137.553 326.32 136.487L327.139 139.412C326.671 140.634 325.826 141.583 324.604 142.259C323.408 142.935 321.887 143.273 320.041 143.273ZM351.228 138.866L350.175 140.036V122.174H355.05V140.036L353.88 138.866H364.176L363.045 140.036V122.174H367.92V143H337.227V122.174H342.102V140.036L340.971 138.866H351.228ZM387.111 143V138.788L386.838 137.891V130.52C386.838 129.09 386.409 127.985 385.551 127.205C384.693 126.399 383.393 125.996 381.651 125.996C380.481 125.996 379.324 126.178 378.18 126.542C377.062 126.906 376.113 127.413 375.333 128.063L373.422 124.514C374.54 123.656 375.866 123.019 377.4 122.603C378.96 122.161 380.572 121.94 382.236 121.94C385.252 121.94 387.579 122.668 389.217 124.124C390.881 125.554 391.713 127.777 391.713 130.793V143H387.111ZM380.559 143.273C378.999 143.273 377.634 143.013 376.464 142.493C375.294 141.947 374.384 141.206 373.734 140.27C373.11 139.308 372.798 138.229 372.798 137.033C372.798 135.863 373.071 134.81 373.617 133.874C374.189 132.938 375.112 132.197 376.386 131.651C377.66 131.105 379.35 130.832 381.456 130.832H387.501V134.069H381.807C380.143 134.069 379.025 134.342 378.453 134.888C377.881 135.408 377.595 136.058 377.595 136.838C377.595 137.722 377.946 138.424 378.648 138.944C379.35 139.464 380.325 139.724 381.573 139.724C382.769 139.724 383.835 139.451 384.771 138.905C385.733 138.359 386.422 137.553 386.838 136.487L387.657 139.412C387.189 140.634 386.344 141.583 385.122 142.259C383.926 142.935 382.405 143.273 380.559 143.273ZM412.683 143L405.156 133.016L409.134 130.559L418.416 143H412.683ZM397.746 143V122.174H402.621V143H397.746ZM401.178 134.654V130.598H408.237V134.654H401.178ZM409.602 133.172L405.039 132.626L412.683 122.174H417.909L409.602 133.172ZM415.296 147.329V141.83L416.388 143H412.683V138.944H419.703V147.329H415.296ZM436.791 143L429.264 133.016L433.242 130.559L442.524 143H436.791ZM421.854 143V122.174H426.729V143H421.854ZM425.286 134.654V130.598H432.345V134.654H425.286ZM433.71 133.172L429.147 132.626L436.791 122.174H442.017L433.71 133.172ZM439.404 147.329V141.83L440.496 143H436.791V138.944H443.811V147.329H439.404ZM458.218 143V138.788L457.945 137.891V130.52C457.945 129.09 457.516 127.985 456.658 127.205C455.8 126.399 454.5 125.996 452.758 125.996C451.588 125.996 450.431 126.178 449.287 126.542C448.169 126.906 447.22 127.413 446.44 128.063L444.529 124.514C445.647 123.656 446.973 123.019 448.507 122.603C450.067 122.161 451.679 121.94 453.343 121.94C456.359 121.94 458.686 122.668 460.324 124.124C461.988 125.554 462.82 127.777 462.82 130.793V143H458.218ZM451.666 143.273C450.106 143.273 448.741 143.013 447.571 142.493C446.401 141.947 445.491 141.206 444.841 140.27C444.217 139.308 443.905 138.229 443.905 137.033C443.905 135.863 444.178 134.81 444.724 133.874C445.296 132.938 446.219 132.197 447.493 131.651C448.767 131.105 450.457 130.832 452.563 130.832H458.608V134.069H452.914C451.25 134.069 450.132 134.342 449.56 134.888C448.988 135.408 448.702 136.058 448.702 136.838C448.702 137.722 449.053 138.424 449.755 138.944C450.457 139.464 451.432 139.724 452.68 139.724C453.876 139.724 454.942 139.451 455.878 138.905C456.84 138.359 457.529 137.553 457.945 136.487L458.764 139.412C458.296 140.634 457.451 141.583 456.229 142.259C455.033 142.935 453.512 143.273 451.666 143.273Z" fill="white"/>
<path d="M59.026 44.042L58.975 42.512L66.183 35.1H67.628L62.375 40.608L61.661 41.373L59.026 44.042ZM57.938 47V35.1H59.196V47H57.938ZM66.489 47L61.355 41.084L62.205 40.166L67.985 47H66.489ZM74.6519 47.102C73.1333 47.102 71.9376 46.6657 71.0649 45.793C70.1923 44.9203 69.7559 43.6283 69.7559 41.917V35.1H71.0139V41.866C71.0139 43.2713 71.3313 44.3083 71.9659 44.977C72.6006 45.6457 73.4959 45.98 74.6519 45.98C75.8193 45.98 76.7203 45.6457 77.3549 44.977C77.9896 44.3083 78.3069 43.2713 78.3069 41.866V35.1H79.5309V41.917C79.5309 43.6283 79.0946 44.9203 78.2219 45.793C77.3606 46.6657 76.1706 47.102 74.6519 47.102ZM83.3218 47V35.1H87.7758C88.7845 35.1 89.6515 35.2643 90.3768 35.593C91.1021 35.9103 91.6575 36.375 92.0428 36.987C92.4395 37.5877 92.6378 38.3187 92.6378 39.18C92.6378 40.0187 92.4395 40.744 92.0428 41.356C91.6575 41.9567 91.1021 42.4213 90.3768 42.75C89.6515 43.0673 88.7845 43.226 87.7758 43.226H84.0188L84.5798 42.648V47H83.3218ZM91.4478 47L88.3878 42.682H89.7478L92.8248 47H91.4478ZM84.5798 42.75L84.0188 42.155H87.7418C88.9318 42.155 89.8328 41.8943 90.4448 41.373C91.0681 40.8517 91.3798 40.1207 91.3798 39.18C91.3798 38.228 91.0681 37.4913 90.4448 36.97C89.8328 36.4487 88.9318 36.188 87.7418 36.188H84.0188L84.5798 35.593V42.75ZM98.8879 47.102C98.0039 47.102 97.1539 46.9603 96.3379 46.677C95.5333 46.3823 94.9099 46.0083 94.4679 45.555L94.9609 44.586C95.3803 44.994 95.9413 45.3397 96.6439 45.623C97.3579 45.895 98.1059 46.031 98.8879 46.031C99.6359 46.031 100.242 45.9403 100.707 45.759C101.183 45.5663 101.529 45.3113 101.744 44.994C101.971 44.6767 102.084 44.3253 102.084 43.94C102.084 43.4753 101.948 43.1013 101.676 42.818C101.415 42.5347 101.07 42.3137 100.639 42.155C100.208 41.985 99.7323 41.8377 99.2109 41.713C98.6896 41.5883 98.1683 41.458 97.6469 41.322C97.1256 41.1747 96.6439 40.982 96.2019 40.744C95.7713 40.506 95.4199 40.1943 95.1479 39.809C94.8873 39.4123 94.7569 38.8967 94.7569 38.262C94.7569 37.6727 94.9099 37.1343 95.2159 36.647C95.5333 36.1483 96.0149 35.7517 96.6609 35.457C97.3069 35.151 98.1343 34.998 99.1429 34.998C99.8116 34.998 100.475 35.0943 101.132 35.287C101.789 35.4683 102.356 35.7233 102.832 36.052L102.407 37.055C101.897 36.715 101.353 36.4657 100.775 36.307C100.208 36.1483 99.6586 36.069 99.1259 36.069C98.4119 36.069 97.8226 36.1653 97.3579 36.358C96.8933 36.5507 96.5476 36.8113 96.3209 37.14C96.1056 37.4573 95.9979 37.82 95.9979 38.228C95.9979 38.6927 96.1283 39.0667 96.3889 39.35C96.6609 39.6333 97.0123 39.8543 97.4429 40.013C97.8849 40.1717 98.3666 40.3133 98.8879 40.438C99.4093 40.5627 99.9249 40.6987 100.435 40.846C100.956 40.9933 101.432 41.186 101.863 41.424C102.305 41.6507 102.656 41.9567 102.917 42.342C103.189 42.7273 103.325 43.2317 103.325 43.855C103.325 44.433 103.166 44.9713 102.849 45.47C102.532 45.9573 102.044 46.354 101.387 46.66C100.741 46.9547 99.9079 47.102 98.8879 47.102ZM104.162 47L109.602 35.1H110.843L116.283 47H114.957L109.959 35.831H110.469L105.471 47H104.162ZM106.304 43.821L106.678 42.801H113.597L113.971 43.821H106.304ZM118.251 47V35.1H119.288L127.499 45.436H126.955V35.1H128.196V47H127.159L118.965 36.664H119.509V47H118.251ZM134.393 47V36.188H130.211V35.1H139.833V36.188H135.651V47H134.393ZM151.494 47.102C150.598 47.102 149.765 46.9547 148.995 46.66C148.235 46.354 147.572 45.929 147.006 45.385C146.45 44.8297 146.014 44.1893 145.697 43.464C145.391 42.7273 145.238 41.9227 145.238 41.05C145.238 40.1773 145.391 39.3783 145.697 38.653C146.014 37.9163 146.45 37.276 147.006 36.732C147.572 36.1767 148.235 35.7517 148.995 35.457C149.754 35.151 150.587 34.998 151.494 34.998C152.389 34.998 153.216 35.151 153.976 35.457C154.735 35.7517 155.392 36.171 155.948 36.715C156.514 37.259 156.951 37.8993 157.257 38.636C157.574 39.3727 157.733 40.1773 157.733 41.05C157.733 41.9227 157.574 42.7273 157.257 43.464C156.951 44.2007 156.514 44.841 155.948 45.385C155.392 45.929 154.735 46.354 153.976 46.66C153.216 46.9547 152.389 47.102 151.494 47.102ZM151.494 45.98C152.208 45.98 152.865 45.861 153.466 45.623C154.078 45.3737 154.605 45.028 155.047 44.586C155.5 44.1327 155.851 43.6113 156.101 43.022C156.35 42.4213 156.475 41.764 156.475 41.05C156.475 40.336 156.35 39.6843 156.101 39.095C155.851 38.4943 155.5 37.973 155.047 37.531C154.605 37.0777 154.078 36.732 153.466 36.494C152.865 36.2447 152.208 36.12 151.494 36.12C150.78 36.12 150.117 36.2447 149.505 36.494C148.893 36.732 148.36 37.0777 147.907 37.531C147.465 37.973 147.113 38.4943 146.853 39.095C146.603 39.6843 146.479 40.336 146.479 41.05C146.479 41.7527 146.603 42.4043 146.853 43.005C147.113 43.6057 147.465 44.1327 147.907 44.586C148.36 45.028 148.893 45.3737 149.505 45.623C150.117 45.861 150.78 45.98 151.494 45.98ZM160.552 47V35.1H161.589L169.8 45.436H169.256V35.1H170.497V47H169.46L161.266 36.664H161.81V47H160.552ZM174.381 47V35.1H175.639V45.912H182.303V47H174.381ZM184.392 47V35.1H185.65V47H184.392ZM189.522 47V35.1H190.559L198.77 45.436H198.226V35.1H199.467V47H198.43L190.236 36.664H190.78V47H189.522ZM204.473 40.421H210.763V41.492H204.473V40.421ZM204.609 45.912H211.766V47H203.351V35.1H211.511V36.188H204.609V45.912Z" fill="white"/>
<rect x="56" y="173" width="112" height="34" rx="17" fill="white"/>
<g filter="url(#filter0_d_1238_185)">
<rect x="136" y="175" width="30" height="30" rx="15" fill="#444444"/>
</g>
<path d="M149 186L153 190L149 194" stroke="white"/>
<path d="M73.084 194V186.128L73.324 186.368H70.132V185.6H76.912V186.368H73.732L73.96 186.128V194H73.084ZM78.1026 194V187.7H78.9546V194H78.1026ZM78.5346 186.308C78.3586 186.308 78.2106 186.248 78.0906 186.128C77.9706 186.008 77.9106 185.864 77.9106 185.696C77.9106 185.528 77.9706 185.388 78.0906 185.276C78.2106 185.156 78.3586 185.096 78.5346 185.096C78.7106 185.096 78.8586 185.152 78.9786 185.264C79.0986 185.376 79.1586 185.516 79.1586 185.684C79.1586 185.86 79.0986 186.008 78.9786 186.128C78.8666 186.248 78.7186 186.308 78.5346 186.308ZM84.6359 194.06C84.0919 194.06 83.5999 193.936 83.1599 193.688C82.7199 193.432 82.3679 193.068 82.1039 192.596C81.8479 192.116 81.7199 191.532 81.7199 190.844C81.7199 190.156 81.8479 189.576 82.1039 189.104C82.3599 188.624 82.7079 188.26 83.1479 188.012C83.5879 187.764 84.0839 187.64 84.6359 187.64C85.2359 187.64 85.7719 187.776 86.2439 188.048C86.7239 188.312 87.0999 188.688 87.3719 189.176C87.6439 189.656 87.7799 190.212 87.7799 190.844C87.7799 191.484 87.6439 192.044 87.3719 192.524C87.0999 193.004 86.7239 193.38 86.2439 193.652C85.7719 193.924 85.2359 194.06 84.6359 194.06ZM81.3839 196.328V187.7H82.1999V189.596L82.1159 190.856L82.2359 192.128V196.328H81.3839ZM84.5759 193.304C85.0239 193.304 85.4239 193.204 85.7759 193.004C86.1279 192.796 86.4079 192.508 86.6159 192.14C86.8239 191.764 86.9279 191.332 86.9279 190.844C86.9279 190.356 86.8239 189.928 86.6159 189.56C86.4079 189.192 86.1279 188.904 85.7759 188.696C85.4239 188.488 85.0239 188.384 84.5759 188.384C84.1279 188.384 83.7239 188.488 83.3639 188.696C83.0119 188.904 82.7319 189.192 82.5239 189.56C82.3239 189.928 82.2239 190.356 82.2239 190.844C82.2239 191.332 82.3239 191.764 82.5239 192.14C82.7319 192.508 83.0119 192.796 83.3639 193.004C83.7239 193.204 84.1279 193.304 84.5759 193.304ZM94.2304 194L91.6384 190.88L92.3464 190.46L95.2384 194H94.2304ZM89.6104 194V187.7H90.4624V194H89.6104ZM90.1984 191.192V190.46H92.2264V191.192H90.1984ZM92.4184 190.94L91.6264 190.82L94.1344 187.7H95.0584L92.4184 190.94ZM99.0604 194.06C98.4044 194.06 97.8284 193.924 97.3324 193.652C96.8364 193.372 96.4484 192.992 96.1684 192.512C95.8884 192.024 95.7484 191.468 95.7484 190.844C95.7484 190.22 95.8804 189.668 96.1444 189.188C96.4164 188.708 96.7844 188.332 97.2484 188.06C97.7204 187.78 98.2484 187.64 98.8324 187.64C99.4244 187.64 99.9484 187.776 100.404 188.048C100.868 188.312 101.232 188.688 101.496 189.176C101.76 189.656 101.892 190.212 101.892 190.844C101.892 190.884 101.888 190.928 101.88 190.976C101.88 191.016 101.88 191.06 101.88 191.108H96.3964V190.472H101.424L101.088 190.724C101.088 190.268 100.988 189.864 100.788 189.512C100.596 189.152 100.332 188.872 99.9964 188.672C99.6604 188.472 99.2724 188.372 98.8324 188.372C98.4004 188.372 98.0124 188.472 97.6684 188.672C97.3244 188.872 97.0564 189.152 96.8644 189.512C96.6724 189.872 96.5764 190.284 96.5764 190.748V190.88C96.5764 191.36 96.6804 191.784 96.8884 192.152C97.1044 192.512 97.4004 192.796 97.7764 193.004C98.1604 193.204 98.5964 193.304 99.0844 193.304C99.4684 193.304 99.8244 193.236 100.152 193.1C100.488 192.964 100.776 192.756 101.016 192.476L101.496 193.028C101.216 193.364 100.864 193.62 100.44 193.796C100.024 193.972 99.5644 194.06 99.0604 194.06ZM102.498 193.988L102.558 193.256C102.614 193.264 102.666 193.276 102.714 193.292C102.77 193.3 102.818 193.304 102.858 193.304C103.114 193.304 103.318 193.208 103.47 193.016C103.63 192.824 103.75 192.568 103.83 192.248C103.91 191.928 103.966 191.568 103.998 191.168C104.03 190.76 104.058 190.352 104.082 189.944L104.19 187.7H108.81V194H107.958V188.192L108.174 188.444H104.742L104.946 188.18L104.85 190.004C104.826 190.548 104.782 191.068 104.718 191.564C104.662 192.06 104.57 192.496 104.442 192.872C104.322 193.248 104.154 193.544 103.938 193.76C103.722 193.968 103.446 194.072 103.11 194.072C103.014 194.072 102.914 194.064 102.81 194.048C102.714 194.032 102.61 194.012 102.498 193.988ZM111.34 196.388C111.044 196.388 110.76 196.34 110.488 196.244C110.224 196.148 109.996 196.004 109.804 195.812L110.2 195.176C110.36 195.328 110.532 195.444 110.716 195.524C110.908 195.612 111.12 195.656 111.352 195.656C111.632 195.656 111.872 195.576 112.072 195.416C112.28 195.264 112.476 194.992 112.66 194.6L113.068 193.676L113.164 193.544L115.756 187.7H116.596L113.44 194.756C113.264 195.164 113.068 195.488 112.852 195.728C112.644 195.968 112.416 196.136 112.168 196.232C111.92 196.336 111.644 196.388 111.34 196.388ZM113.02 194.18L110.116 187.7H111.004L113.572 193.484L113.02 194.18Z" fill="#444444"/>
</g>
<defs>
<filter id="filter0_d_1238_185" x="129" y="172" width="44" height="44" filterUnits="userSpaceOnUse" color-interpolation-filters="sRGB">
<feFlood flood-opacity="0" result="BackgroundImageFix"/>
<feColorMatrix in="SourceAlpha" type="matrix" values="0 0 0 0 0 0 0 0 0 0 0 0 0 0 0 0 0 0 127 0" result="hardAlpha"/>
<feOffset dy="4"/>
<feGaussianBlur stdDeviation="3.5"/>
<feComposite in2="hardAlpha" operator="out"/>
<feColorMatrix type="matrix" values="0 0 0 0 0 0 0 0 0 0 0 0 0 0 0 0 0 0 0.54 0"/>
<feBlend mode="normal" in2="BackgroundImageFix" result="effect1_dropShadow_1238_185"/>
<feBlend mode="normal" in="SourceGraphic" in2="effect1_dropShadow_1238_185" result="shape"/>
</filter>
<clipPath id="clip0_1238_185">
<rect width="949" height="247" fill="white"/>
</clipPath>
</defs>
</svg>
