<svg width="325" height="203" viewBox="0 0 325 203" fill="none" xmlns="http://www.w3.org/2000/svg">
<rect width="325" height="203" rx="25" fill="#F5F6FB"/>
<path d="M53 142H299.5" stroke="#CED4EF"/>
<path d="M53 30H299.5" stroke="#CED4EF"/>
<path d="M53 86H299.5" stroke="#CED4EF"/>
<rect x="69" y="33" width="29" height="109" rx="5" fill="#2A6DB3"/>
<rect x="109" y="44" width="29" height="98" rx="5" fill="#87ACD4"/>
<rect x="149" y="36" width="29" height="106" rx="5" fill="#2A6DB3"/>
<rect x="189" y="32" width="29" height="110" rx="5" fill="#87ACD4"/>
<rect x="229" y="38" width="29" height="104" rx="5" fill="#2A6DB3"/>
<rect x="269" y="44" width="29" height="98" rx="5" fill="#87ACD4"/>
<path d="M31.468 142V141.388L34.96 137.968C35.28 137.656 35.52 137.384 35.68 137.152C35.84 136.912 35.948 136.688 36.004 136.48C36.06 136.272 36.088 136.076 36.088 135.892C36.088 135.404 35.92 135.02 35.584 134.74C35.256 134.46 34.768 134.32 34.12 134.32C33.624 134.32 33.184 134.396 32.8 134.548C32.424 134.7 32.1 134.936 31.828 135.256L31.216 134.728C31.544 134.344 31.964 134.048 32.476 133.84C32.988 133.632 33.56 133.528 34.192 133.528C34.76 133.528 35.252 133.62 35.668 133.804C36.084 133.98 36.404 134.24 36.628 134.584C36.86 134.928 36.976 135.332 36.976 135.796C36.976 136.068 36.936 136.336 36.856 136.6C36.784 136.864 36.648 137.144 36.448 137.44C36.256 137.728 35.972 138.056 35.596 138.424L32.392 141.568L32.152 141.232H37.36V142H31.468ZM41.7689 142.072C41.1209 142.072 40.5449 141.904 40.0409 141.568C39.5369 141.224 39.1409 140.736 38.8529 140.104C38.5649 139.464 38.4209 138.696 38.4209 137.8C38.4209 136.904 38.5649 136.14 38.8529 135.508C39.1409 134.868 39.5369 134.38 40.0409 134.044C40.5449 133.7 41.1209 133.528 41.7689 133.528C42.4169 133.528 42.9929 133.7 43.4969 134.044C44.0009 134.38 44.3969 134.868 44.6849 135.508C44.9809 136.14 45.1289 136.904 45.1289 137.8C45.1289 138.696 44.9809 139.464 44.6849 140.104C44.3969 140.736 44.0009 141.224 43.4969 141.568C42.9929 141.904 42.4169 142.072 41.7689 142.072ZM41.7689 141.28C42.2649 141.28 42.6969 141.148 43.0649 140.884C43.4329 140.612 43.7209 140.22 43.9289 139.708C44.1369 139.188 44.2409 138.552 44.2409 137.8C44.2409 137.048 44.1369 136.416 43.9289 135.904C43.7209 135.384 43.4329 134.992 43.0649 134.728C42.6969 134.456 42.2649 134.32 41.7689 134.32C41.2889 134.32 40.8609 134.456 40.4849 134.728C40.1089 134.992 39.8169 135.384 39.6089 135.904C39.4009 136.416 39.2969 137.048 39.2969 137.8C39.2969 138.552 39.4009 139.188 39.6089 139.708C39.8169 140.22 40.1089 140.612 40.4849 140.884C40.8609 141.148 41.2889 141.28 41.7689 141.28Z" fill="#444444"/>
<path d="M33.816 86.072C33.144 86.072 32.564 85.976 32.076 85.784C31.596 85.592 31.224 85.316 30.96 84.956C30.704 84.588 30.576 84.156 30.576 83.66C30.576 83.18 30.7 82.772 30.948 82.436C31.204 82.092 31.572 81.828 32.052 81.644C32.54 81.46 33.128 81.368 33.816 81.368C34.496 81.368 35.08 81.46 35.568 81.644C36.056 81.828 36.428 82.092 36.684 82.436C36.948 82.772 37.08 83.18 37.08 83.66C37.08 84.156 36.948 84.588 36.684 84.956C36.42 85.316 36.044 85.592 35.556 85.784C35.068 85.976 34.488 86.072 33.816 86.072ZM33.816 85.34C34.56 85.34 35.14 85.188 35.556 84.884C35.98 84.58 36.192 84.168 36.192 83.648C36.192 83.128 35.98 82.72 35.556 82.424C35.14 82.12 34.56 81.968 33.816 81.968C33.072 81.968 32.492 82.12 32.076 82.424C31.66 82.72 31.452 83.128 31.452 83.648C31.452 84.168 31.66 84.58 32.076 84.884C32.492 85.188 33.072 85.34 33.816 85.34ZM33.816 81.86C33.192 81.86 32.66 81.776 32.22 81.608C31.788 81.44 31.456 81.2 31.224 80.888C30.992 80.568 30.876 80.188 30.876 79.748C30.876 79.284 30.996 78.888 31.236 78.56C31.484 78.224 31.828 77.968 32.268 77.792C32.708 77.616 33.224 77.528 33.816 77.528C34.408 77.528 34.924 77.616 35.364 77.792C35.812 77.968 36.16 78.224 36.408 78.56C36.656 78.888 36.78 79.284 36.78 79.748C36.78 80.188 36.664 80.568 36.432 80.888C36.2 81.2 35.86 81.44 35.412 81.608C34.972 81.776 34.44 81.86 33.816 81.86ZM33.816 81.284C34.472 81.284 34.984 81.148 35.352 80.876C35.72 80.604 35.904 80.24 35.904 79.784C35.904 79.304 35.712 78.932 35.328 78.668C34.952 78.396 34.448 78.26 33.816 78.26C33.184 78.26 32.68 78.396 32.304 78.668C31.928 78.932 31.74 79.3 31.74 79.772C31.74 80.236 31.92 80.604 32.28 80.876C32.648 81.148 33.16 81.284 33.816 81.284ZM41.6243 86.072C40.9763 86.072 40.4003 85.904 39.8963 85.568C39.3923 85.224 38.9963 84.736 38.7083 84.104C38.4203 83.464 38.2763 82.696 38.2763 81.8C38.2763 80.904 38.4203 80.14 38.7083 79.508C38.9963 78.868 39.3923 78.38 39.8963 78.044C40.4003 77.7 40.9763 77.528 41.6243 77.528C42.2723 77.528 42.8483 77.7 43.3523 78.044C43.8563 78.38 44.2523 78.868 44.5403 79.508C44.8363 80.14 44.9843 80.904 44.9843 81.8C44.9843 82.696 44.8363 83.464 44.5403 84.104C44.2523 84.736 43.8563 85.224 43.3523 85.568C42.8483 85.904 42.2723 86.072 41.6243 86.072ZM41.6243 85.28C42.1203 85.28 42.5523 85.148 42.9203 84.884C43.2883 84.612 43.5763 84.22 43.7843 83.708C43.9923 83.188 44.0963 82.552 44.0963 81.8C44.0963 81.048 43.9923 80.416 43.7843 79.904C43.5763 79.384 43.2883 78.992 42.9203 78.728C42.5523 78.456 42.1203 78.32 41.6243 78.32C41.1443 78.32 40.7163 78.456 40.3403 78.728C39.9643 78.992 39.6723 79.384 39.4643 79.904C39.2563 80.416 39.1523 81.048 39.1523 81.8C39.1523 82.552 39.2563 83.188 39.4643 83.708C39.6723 84.22 39.9643 84.612 40.3403 84.884C40.7163 85.148 41.1443 85.28 41.6243 85.28Z" fill="#444444"/>
<path d="M27.088 30V21.96L27.472 22.368H25.108V21.6H27.952V30H27.088ZM29.8159 27.792V27.168L34.2679 21.6H35.2279L30.8119 27.168L30.3439 27.024H37.0999V27.792H29.8159ZM34.5559 30V27.792L34.5799 27.024V25.08H35.4199V30H34.5559ZM41.2415 30.072C40.5935 30.072 40.0175 29.904 39.5135 29.568C39.0095 29.224 38.6135 28.736 38.3255 28.104C38.0375 27.464 37.8935 26.696 37.8935 25.8C37.8935 24.904 38.0375 24.14 38.3255 23.508C38.6135 22.868 39.0095 22.38 39.5135 22.044C40.0175 21.7 40.5935 21.528 41.2415 21.528C41.8895 21.528 42.4655 21.7 42.9695 22.044C43.4735 22.38 43.8695 22.868 44.1575 23.508C44.4535 24.14 44.6015 24.904 44.6015 25.8C44.6015 26.696 44.4535 27.464 44.1575 28.104C43.8695 28.736 43.4735 29.224 42.9695 29.568C42.4655 29.904 41.8895 30.072 41.2415 30.072ZM41.2415 29.28C41.7375 29.28 42.1695 29.148 42.5375 28.884C42.9055 28.612 43.1935 28.22 43.4015 27.708C43.6095 27.188 43.7135 26.552 43.7135 25.8C43.7135 25.048 43.6095 24.416 43.4015 23.904C43.1935 23.384 42.9055 22.992 42.5375 22.728C42.1695 22.456 41.7375 22.32 41.2415 22.32C40.7615 22.32 40.3335 22.456 39.9575 22.728C39.5815 22.992 39.2895 23.384 39.0815 23.904C38.8735 24.416 38.7695 25.048 38.7695 25.8C38.7695 26.552 38.8735 27.188 39.0815 27.708C39.2895 28.22 39.5815 28.612 39.9575 28.884C40.3335 29.148 40.7615 29.28 41.2415 29.28Z" fill="#444444"/>
<path d="M59.422 184.066C58.8793 184.066 58.3697 183.974 57.893 183.791C57.4163 183.608 56.9947 183.344 56.628 182.999C56.2687 182.647 55.9863 182.233 55.781 181.756C55.5757 181.279 55.473 180.751 55.473 180.172C55.473 180.106 55.473 180.04 55.473 179.974C55.4803 179.908 55.4913 179.842 55.506 179.776H63.151V180.381H56.078L56.287 180.15C56.287 180.619 56.364 181.048 56.518 181.437C56.6793 181.826 56.903 182.163 57.189 182.449C57.475 182.735 57.8087 182.959 58.19 183.12C58.5713 183.274 58.982 183.351 59.422 183.351C59.862 183.351 60.2763 183.274 60.665 183.12C61.0537 182.959 61.3947 182.735 61.688 182.449C61.9813 182.163 62.2087 181.826 62.37 181.437C62.5313 181.041 62.612 180.608 62.612 180.139C62.612 179.655 62.524 179.215 62.348 178.819C62.1793 178.423 61.941 178.089 61.633 177.818C61.3323 177.539 60.9877 177.327 60.599 177.18C60.2103 177.033 59.7997 176.96 59.367 176.96C58.949 176.96 58.5237 177.037 58.091 177.191C57.6583 177.345 57.2477 177.587 56.859 177.917L56.276 177.389C56.7453 176.993 57.2477 176.703 57.783 176.52C58.3183 176.329 58.8537 176.234 59.389 176.234C59.9243 176.234 60.434 176.322 60.918 176.498C61.402 176.674 61.831 176.931 62.205 177.268C62.5863 177.598 62.8833 178.005 63.096 178.489C63.316 178.973 63.426 179.519 63.426 180.128C63.426 180.722 63.3197 181.261 63.107 181.745C62.9017 182.229 62.612 182.643 62.238 182.988C61.8713 183.333 61.446 183.6 60.962 183.791C60.4853 183.974 59.972 184.066 59.422 184.066ZM68.1584 184.055C67.6597 184.055 67.2087 183.941 66.8054 183.714C66.4021 183.479 66.0794 183.146 65.8374 182.713C65.6027 182.273 65.4854 181.738 65.4854 181.107C65.4854 180.476 65.6027 179.945 65.8374 179.512C66.0721 179.072 66.3911 178.738 66.7944 178.511C67.1977 178.284 67.6524 178.17 68.1584 178.17C68.7084 178.17 69.1997 178.295 69.6324 178.544C70.0724 178.786 70.4171 179.131 70.6664 179.578C70.9157 180.018 71.0404 180.528 71.0404 181.107C71.0404 181.694 70.9157 182.207 70.6664 182.647C70.4171 183.087 70.0724 183.432 69.6324 183.681C69.1997 183.93 68.7084 184.055 68.1584 184.055ZM65.1774 186.134V178.225H65.9254V179.963L65.8484 181.118L65.9584 182.284V186.134H65.1774ZM68.1034 183.362C68.5141 183.362 68.8807 183.27 69.2034 183.087C69.5261 182.896 69.7827 182.632 69.9734 182.295C70.1641 181.95 70.2594 181.554 70.2594 181.107C70.2594 180.66 70.1641 180.267 69.9734 179.93C69.7827 179.593 69.5261 179.329 69.2034 179.138C68.8807 178.947 68.5141 178.852 68.1034 178.852C67.6927 178.852 67.3224 178.947 66.9924 179.138C66.6697 179.329 66.4131 179.593 66.2224 179.93C66.0391 180.267 65.9474 180.66 65.9474 181.107C65.9474 181.554 66.0391 181.95 66.2224 182.295C66.4131 182.632 66.6697 182.896 66.9924 183.087C67.3224 183.27 67.6927 183.362 68.1034 183.362ZM75.5973 184V178.225H80.7893V184H80.0083V178.698L80.2063 178.907H76.1803L76.3783 178.698V184H75.5973ZM85.0884 178.17C85.6971 178.17 86.2288 178.298 86.6834 178.555C87.1381 178.804 87.4938 179.149 87.7504 179.589C88.0071 180.029 88.1354 180.535 88.1354 181.107C88.1354 181.679 88.0108 182.189 87.7614 182.636C87.5194 183.076 87.1858 183.424 86.7604 183.681C86.3351 183.93 85.8474 184.055 85.2974 184.055C84.7621 184.055 84.2818 183.93 83.8564 183.681C83.4384 183.432 83.1084 183.087 82.8664 182.647C82.6244 182.2 82.5034 181.686 82.5034 181.107C82.5034 181.078 82.5034 181.041 82.5034 180.997C82.5034 180.953 82.5071 180.913 82.5144 180.876H87.5414V181.459H82.9214L83.2404 181.228C83.2404 181.639 83.3284 182.009 83.5044 182.339C83.6804 182.662 83.9224 182.918 84.2304 183.109C84.5458 183.292 84.9014 183.384 85.2974 183.384C85.7008 183.384 86.0564 183.292 86.3644 183.109C86.6798 182.918 86.9254 182.658 87.1014 182.328C87.2774 181.998 87.3654 181.624 87.3654 181.206V181.074C87.3654 180.634 87.2664 180.249 87.0684 179.919C86.8778 179.589 86.6101 179.329 86.2654 179.138C85.9208 178.947 85.5248 178.852 85.0774 178.852C84.7181 178.852 84.3881 178.914 84.0874 179.039C83.7868 179.164 83.5264 179.358 83.3064 179.622L82.8664 179.105C83.1304 178.797 83.4531 178.566 83.8344 178.412C84.2231 178.251 84.6411 178.17 85.0884 178.17ZM89.7985 184V178.225H90.5795V180.777H94.2205V178.225H95.0015V184H94.2205V181.448H90.5795V184H89.7985ZM102.696 184.066C102.227 184.066 101.809 183.989 101.442 183.835C101.083 183.681 100.775 183.446 100.518 183.131C100.262 182.816 100.067 182.427 99.9353 181.965C99.8033 181.496 99.7373 180.953 99.7373 180.337C99.7373 179.787 99.7886 179.307 99.8913 178.896C99.9939 178.478 100.137 178.119 100.32 177.818C100.504 177.517 100.716 177.264 100.958 177.059C101.208 176.846 101.475 176.678 101.761 176.553C102.055 176.421 102.355 176.322 102.663 176.256L105.259 175.651L105.391 176.377L102.949 176.927C102.795 176.964 102.608 177.015 102.388 177.081C102.176 177.147 101.956 177.246 101.728 177.378C101.508 177.51 101.303 177.693 101.112 177.928C100.922 178.163 100.768 178.467 100.65 178.841C100.54 179.208 100.485 179.666 100.485 180.216C100.485 180.333 100.489 180.429 100.496 180.502C100.504 180.568 100.511 180.641 100.518 180.722C100.533 180.795 100.544 180.905 100.551 181.052L100.21 180.766C100.291 180.319 100.456 179.93 100.705 179.6C100.955 179.263 101.266 179.002 101.64 178.819C102.022 178.628 102.443 178.533 102.905 178.533C103.441 178.533 103.917 178.65 104.335 178.885C104.753 179.112 105.08 179.431 105.314 179.842C105.556 180.253 105.677 180.729 105.677 181.272C105.677 181.807 105.553 182.288 105.303 182.713C105.061 183.138 104.717 183.472 104.269 183.714C103.822 183.949 103.298 184.066 102.696 184.066ZM102.784 183.417C103.195 183.417 103.558 183.325 103.873 183.142C104.189 182.951 104.434 182.695 104.61 182.372C104.794 182.049 104.885 181.686 104.885 181.283C104.885 180.887 104.794 180.535 104.61 180.227C104.434 179.919 104.189 179.677 103.873 179.501C103.558 179.318 103.191 179.226 102.773 179.226C102.363 179.226 102 179.314 101.684 179.49C101.369 179.659 101.12 179.897 100.936 180.205C100.76 180.513 100.672 180.869 100.672 181.272C100.672 181.675 100.76 182.038 100.936 182.361C101.12 182.684 101.369 182.94 101.684 183.131C102.007 183.322 102.374 183.417 102.784 183.417ZM109.727 184.055C109.17 184.055 108.668 183.93 108.22 183.681C107.78 183.424 107.432 183.076 107.175 182.636C106.919 182.189 106.79 181.679 106.79 181.107C106.79 180.528 106.919 180.018 107.175 179.578C107.432 179.138 107.78 178.793 108.22 178.544C108.66 178.295 109.163 178.17 109.727 178.17C110.299 178.17 110.805 178.295 111.245 178.544C111.693 178.793 112.041 179.138 112.29 179.578C112.547 180.018 112.675 180.528 112.675 181.107C112.675 181.679 112.547 182.189 112.29 182.636C112.041 183.076 111.693 183.424 111.245 183.681C110.798 183.93 110.292 184.055 109.727 184.055ZM109.727 183.362C110.145 183.362 110.516 183.27 110.838 183.087C111.161 182.896 111.414 182.632 111.597 182.295C111.788 181.95 111.883 181.554 111.883 181.107C111.883 180.652 111.788 180.256 111.597 179.919C111.414 179.582 111.161 179.321 110.838 179.138C110.516 178.947 110.149 178.852 109.738 178.852C109.328 178.852 108.961 178.947 108.638 179.138C108.316 179.321 108.059 179.582 107.868 179.919C107.678 180.256 107.582 180.652 107.582 181.107C107.582 181.554 107.678 181.95 107.868 182.295C108.059 182.632 108.316 182.896 108.638 183.087C108.961 183.27 109.324 183.362 109.727 183.362ZM114.344 184V178.225H115.125V182.812L118.986 178.225H119.679V184H118.898V179.402L115.048 184H114.344ZM116.962 177.389C116.478 177.389 116.086 177.268 115.785 177.026C115.492 176.777 115.338 176.421 115.323 175.959H115.884C115.892 176.252 115.994 176.483 116.192 176.652C116.39 176.821 116.647 176.905 116.962 176.905C117.278 176.905 117.534 176.821 117.732 176.652C117.938 176.483 118.044 176.252 118.051 175.959H118.612C118.605 176.421 118.451 176.777 118.15 177.026C117.85 177.268 117.454 177.389 116.962 177.389ZM127.55 184V178.225H128.331V184H127.55ZM124.349 180.26C125.075 180.267 125.628 180.429 126.01 180.744C126.391 181.059 126.582 181.514 126.582 182.108C126.582 182.724 126.376 183.197 125.966 183.527C125.555 183.857 124.968 184.018 124.206 184.011L121.918 184V178.225H122.699V180.238L124.349 180.26ZM124.151 183.417C124.693 183.424 125.1 183.318 125.372 183.098C125.65 182.871 125.79 182.541 125.79 182.108C125.79 181.675 125.654 181.36 125.383 181.162C125.111 180.957 124.701 180.85 124.151 180.843L122.699 180.821V183.395L124.151 183.417ZM130.554 184V178.225H131.335V180.777H134.976V178.225H135.757V184H134.976V181.448H131.335V184H130.554ZM141.772 183.318L141.596 183.527V178.225H142.377V183.527L142.168 183.318H145.391L145.182 183.527V178.225H145.963V184H137.977V178.225H138.758V183.527L138.56 183.318H141.772ZM151.768 184V182.724L151.735 182.515V180.381C151.735 179.89 151.596 179.512 151.317 179.248C151.046 178.984 150.639 178.852 150.096 178.852C149.722 178.852 149.367 178.914 149.029 179.039C148.692 179.164 148.406 179.329 148.171 179.534L147.819 178.951C148.113 178.702 148.465 178.511 148.875 178.379C149.286 178.24 149.719 178.17 150.173 178.17C150.921 178.17 151.497 178.357 151.9 178.731C152.311 179.098 152.516 179.659 152.516 180.414V184H151.768ZM149.777 184.055C149.345 184.055 148.967 183.985 148.644 183.846C148.329 183.699 148.087 183.501 147.918 183.252C147.75 182.995 147.665 182.702 147.665 182.372C147.665 182.071 147.735 181.8 147.874 181.558C148.021 181.309 148.256 181.111 148.578 180.964C148.908 180.81 149.348 180.733 149.898 180.733H151.889V181.316H149.92C149.363 181.316 148.974 181.415 148.754 181.613C148.542 181.811 148.435 182.057 148.435 182.35C148.435 182.68 148.564 182.944 148.82 183.142C149.077 183.34 149.436 183.439 149.898 183.439C150.338 183.439 150.716 183.34 151.031 183.142C151.354 182.937 151.589 182.643 151.735 182.262L151.911 182.801C151.765 183.182 151.508 183.487 151.141 183.714C150.782 183.941 150.327 184.055 149.777 184.055ZM157.474 184V178.225H158.266L160.884 182.658H160.554L163.216 178.225H163.942V184H163.227V179.116L163.37 179.182L160.884 183.296H160.532L158.024 179.138L158.189 179.105V184H157.474ZM168.64 184.055C168.038 184.055 167.51 183.93 167.056 183.681C166.601 183.424 166.245 183.076 165.989 182.636C165.732 182.189 165.604 181.679 165.604 181.107C165.604 180.535 165.725 180.029 165.967 179.589C166.216 179.149 166.553 178.804 166.979 178.555C167.411 178.298 167.895 178.17 168.431 178.17C168.973 178.17 169.454 178.295 169.872 178.544C170.297 178.786 170.631 179.131 170.873 179.578C171.115 180.018 171.236 180.528 171.236 181.107C171.236 181.144 171.232 181.184 171.225 181.228C171.225 181.265 171.225 181.305 171.225 181.349H166.198V180.766H170.807L170.499 180.997C170.499 180.579 170.407 180.209 170.224 179.886C170.048 179.556 169.806 179.299 169.498 179.116C169.19 178.933 168.834 178.841 168.431 178.841C168.035 178.841 167.679 178.933 167.364 179.116C167.048 179.299 166.803 179.556 166.627 179.886C166.451 180.216 166.363 180.594 166.363 181.019V181.14C166.363 181.58 166.458 181.969 166.649 182.306C166.847 182.636 167.118 182.896 167.463 183.087C167.815 183.27 168.214 183.362 168.662 183.362C169.014 183.362 169.34 183.3 169.641 183.175C169.949 183.05 170.213 182.86 170.433 182.603L170.873 183.109C170.616 183.417 170.293 183.652 169.905 183.813C169.523 183.974 169.102 184.055 168.64 184.055ZM177.2 184L174.824 181.14L175.473 180.755L178.124 184H177.2ZM172.965 184V178.225H173.746V184H172.965ZM173.504 181.426V180.755H175.363V181.426H173.504ZM175.539 181.195L174.813 181.085L177.112 178.225H177.959L175.539 181.195ZM180.338 184V178.698L180.536 178.907H178.149V178.225H183.308V178.907H180.921L181.119 178.698V184H180.338ZM186.644 184.055C186.042 184.055 185.514 183.93 185.06 183.681C184.605 183.424 184.249 183.076 183.993 182.636C183.736 182.189 183.608 181.679 183.608 181.107C183.608 180.535 183.729 180.029 183.971 179.589C184.22 179.149 184.557 178.804 184.983 178.555C185.415 178.298 185.899 178.17 186.435 178.17C186.977 178.17 187.458 178.295 187.876 178.544C188.301 178.786 188.635 179.131 188.877 179.578C189.119 180.018 189.24 180.528 189.24 181.107C189.24 181.144 189.236 181.184 189.229 181.228C189.229 181.265 189.229 181.305 189.229 181.349H184.202V180.766H188.811L188.503 180.997C188.503 180.579 188.411 180.209 188.228 179.886C188.052 179.556 187.81 179.299 187.502 179.116C187.194 178.933 186.838 178.841 186.435 178.841C186.039 178.841 185.683 178.933 185.368 179.116C185.052 179.299 184.807 179.556 184.631 179.886C184.455 180.216 184.367 180.594 184.367 181.019V181.14C184.367 181.58 184.462 181.969 184.653 182.306C184.851 182.636 185.122 182.896 185.467 183.087C185.819 183.27 186.218 183.362 186.666 183.362C187.018 183.362 187.344 183.3 187.645 183.175C187.953 183.05 188.217 182.86 188.437 182.603L188.877 183.109C188.62 183.417 188.297 183.652 187.909 183.813C187.527 183.974 187.106 184.055 186.644 184.055ZM190.968 184V178.225H196.16V184H195.379V178.698L195.577 178.907H191.551L191.749 178.698V184H190.968ZM204.24 184.055C203.742 184.055 203.291 183.941 202.887 183.714C202.484 183.479 202.161 183.146 201.919 182.713C201.685 182.273 201.567 181.738 201.567 181.107C201.567 180.476 201.685 179.945 201.919 179.512C202.154 179.072 202.473 178.738 202.876 178.511C203.28 178.284 203.734 178.17 204.24 178.17C204.79 178.17 205.282 178.295 205.714 178.544C206.154 178.786 206.499 179.131 206.748 179.578C206.998 180.018 207.122 180.528 207.122 181.107C207.122 181.694 206.998 182.207 206.748 182.647C206.499 183.087 206.154 183.432 205.714 183.681C205.282 183.93 204.79 184.055 204.24 184.055ZM201.259 186.134V178.225H202.007V179.963L201.93 181.118L202.04 182.284V186.134H201.259ZM204.185 183.362C204.596 183.362 204.963 183.27 205.285 183.087C205.608 182.896 205.865 182.632 206.055 182.295C206.246 181.95 206.341 181.554 206.341 181.107C206.341 180.66 206.246 180.267 206.055 179.93C205.865 179.593 205.608 179.329 205.285 179.138C204.963 178.947 204.596 178.852 204.185 178.852C203.775 178.852 203.404 178.947 203.074 179.138C202.752 179.329 202.495 179.593 202.304 179.93C202.121 180.267 202.029 180.66 202.029 181.107C202.029 181.554 202.121 181.95 202.304 182.295C202.495 182.632 202.752 182.896 203.074 183.087C203.404 183.27 203.775 183.362 204.185 183.362ZM211.275 184.055C210.674 184.055 210.146 183.93 209.691 183.681C209.237 183.424 208.881 183.076 208.624 182.636C208.368 182.189 208.239 181.679 208.239 181.107C208.239 180.535 208.36 180.029 208.602 179.589C208.852 179.149 209.189 178.804 209.614 178.555C210.047 178.298 210.531 178.17 211.066 178.17C211.609 178.17 212.089 178.295 212.507 178.544C212.933 178.786 213.266 179.131 213.508 179.578C213.75 180.018 213.871 180.528 213.871 181.107C213.871 181.144 213.868 181.184 213.86 181.228C213.86 181.265 213.86 181.305 213.86 181.349H208.833V180.766H213.442L213.134 180.997C213.134 180.579 213.043 180.209 212.859 179.886C212.683 179.556 212.441 179.299 212.133 179.116C211.825 178.933 211.47 178.841 211.066 178.841C210.67 178.841 210.315 178.933 209.999 179.116C209.684 179.299 209.438 179.556 209.262 179.886C209.086 180.216 208.998 180.594 208.998 181.019V181.14C208.998 181.58 209.094 181.969 209.284 182.306C209.482 182.636 209.754 182.896 210.098 183.087C210.45 183.27 210.85 183.362 211.297 183.362C211.649 183.362 211.976 183.3 212.276 183.175C212.584 183.05 212.848 182.86 213.068 182.603L213.508 183.109C213.252 183.417 212.929 183.652 212.54 183.813C212.159 183.974 211.737 184.055 211.275 184.055ZM219.835 184L217.459 181.14L218.108 180.755L220.759 184H219.835ZM215.6 184V178.225H216.381V184H215.6ZM216.139 181.426V180.755H217.998V181.426H216.139ZM218.174 181.195L217.448 181.085L219.747 178.225H220.594L218.174 181.195ZM224.164 184.055C223.606 184.055 223.104 183.93 222.657 183.681C222.217 183.424 221.868 183.076 221.612 182.636C221.355 182.189 221.227 181.679 221.227 181.107C221.227 180.528 221.355 180.018 221.612 179.578C221.868 179.138 222.217 178.793 222.657 178.544C223.097 178.295 223.599 178.17 224.164 178.17C224.736 178.17 225.242 178.295 225.682 178.544C226.129 178.793 226.477 179.138 226.727 179.578C226.983 180.018 227.112 180.528 227.112 181.107C227.112 181.679 226.983 182.189 226.727 182.636C226.477 183.076 226.129 183.424 225.682 183.681C225.234 183.93 224.728 184.055 224.164 184.055ZM224.164 183.362C224.582 183.362 224.952 183.27 225.275 183.087C225.597 182.896 225.85 182.632 226.034 182.295C226.224 181.95 226.32 181.554 226.32 181.107C226.32 180.652 226.224 180.256 226.034 179.919C225.85 179.582 225.597 179.321 225.275 179.138C224.952 178.947 224.585 178.852 224.175 178.852C223.764 178.852 223.397 178.947 223.075 179.138C222.752 179.321 222.495 179.582 222.305 179.919C222.114 180.256 222.019 180.652 222.019 181.107C222.019 181.554 222.114 181.95 222.305 182.295C222.495 182.632 222.752 182.896 223.075 183.087C223.397 183.27 223.76 183.362 224.164 183.362ZM231.762 184.055C231.263 184.055 230.812 183.941 230.409 183.714C230.006 183.479 229.683 183.146 229.441 182.713C229.206 182.273 229.089 181.738 229.089 181.107C229.089 180.476 229.206 179.945 229.441 179.512C229.676 179.072 229.995 178.738 230.398 178.511C230.801 178.284 231.256 178.17 231.762 178.17C232.312 178.17 232.803 178.295 233.236 178.544C233.676 178.786 234.021 179.131 234.27 179.578C234.519 180.018 234.644 180.528 234.644 181.107C234.644 181.694 234.519 182.207 234.27 182.647C234.021 183.087 233.676 183.432 233.236 183.681C232.803 183.93 232.312 184.055 231.762 184.055ZM228.781 186.134V178.225H229.529V179.963L229.452 181.118L229.562 182.284V186.134H228.781ZM231.707 183.362C232.118 183.362 232.484 183.27 232.807 183.087C233.13 182.896 233.386 182.632 233.577 182.295C233.768 181.95 233.863 181.554 233.863 181.107C233.863 180.66 233.768 180.267 233.577 179.93C233.386 179.593 233.13 179.329 232.807 179.138C232.484 178.947 232.118 178.852 231.707 178.852C231.296 178.852 230.926 178.947 230.596 179.138C230.273 179.329 230.017 179.593 229.826 179.93C229.643 180.267 229.551 180.66 229.551 181.107C229.551 181.554 229.643 181.95 229.826 182.295C230.017 182.632 230.273 182.896 230.596 183.087C230.926 183.27 231.296 183.362 231.707 183.362ZM240.25 183.626V178.907H237.467L237.401 180.194C237.386 180.583 237.36 180.964 237.324 181.338C237.294 181.712 237.239 182.057 237.159 182.372C237.085 182.68 236.979 182.933 236.84 183.131C236.7 183.322 236.521 183.432 236.301 183.461L235.52 183.318C235.747 183.325 235.934 183.245 236.081 183.076C236.227 182.9 236.341 182.662 236.422 182.361C236.502 182.06 236.561 181.719 236.598 181.338C236.634 180.949 236.664 180.553 236.686 180.15L236.763 178.225H241.031V183.626H240.25ZM235.278 185.397V183.318H241.933V185.397H241.196V184H236.015V185.397H235.278ZM244.555 184V178.698L244.753 178.907H242.366V178.225H247.525V178.907H245.138L245.336 178.698V184H244.555ZM252.24 184V182.724L252.207 182.515V180.381C252.207 179.89 252.068 179.512 251.789 179.248C251.518 178.984 251.111 178.852 250.568 178.852C250.194 178.852 249.838 178.914 249.501 179.039C249.164 179.164 248.878 179.329 248.643 179.534L248.291 178.951C248.584 178.702 248.936 178.511 249.347 178.379C249.758 178.24 250.19 178.17 250.645 178.17C251.393 178.17 251.969 178.357 252.372 178.731C252.783 179.098 252.988 179.659 252.988 180.414V184H252.24ZM250.249 184.055C249.816 184.055 249.439 183.985 249.116 183.846C248.801 183.699 248.559 183.501 248.39 183.252C248.221 182.995 248.137 182.702 248.137 182.372C248.137 182.071 248.207 181.8 248.346 181.558C248.493 181.309 248.727 181.111 249.05 180.964C249.38 180.81 249.82 180.733 250.37 180.733H252.361V181.316H250.392C249.835 181.316 249.446 181.415 249.226 181.613C249.013 181.811 248.907 182.057 248.907 182.35C248.907 182.68 249.035 182.944 249.292 183.142C249.549 183.34 249.908 183.439 250.37 183.439C250.81 183.439 251.188 183.34 251.503 183.142C251.826 182.937 252.06 182.643 252.207 182.262L252.383 182.801C252.236 183.182 251.98 183.487 251.613 183.714C251.254 183.941 250.799 184.055 250.249 184.055ZM258.048 184.055C257.549 184.055 257.098 183.941 256.695 183.714C256.292 183.479 255.969 183.146 255.727 182.713C255.492 182.273 255.375 181.738 255.375 181.107C255.375 180.476 255.492 179.945 255.727 179.512C255.962 179.072 256.281 178.738 256.684 178.511C257.087 178.284 257.542 178.17 258.048 178.17C258.598 178.17 259.089 178.295 259.522 178.544C259.962 178.786 260.307 179.131 260.556 179.578C260.805 180.018 260.93 180.528 260.93 181.107C260.93 181.694 260.805 182.207 260.556 182.647C260.307 183.087 259.962 183.432 259.522 183.681C259.089 183.93 258.598 184.055 258.048 184.055ZM255.067 186.134V178.225H255.815V179.963L255.738 181.118L255.848 182.284V186.134H255.067ZM257.993 183.362C258.404 183.362 258.77 183.27 259.093 183.087C259.416 182.896 259.672 182.632 259.863 182.295C260.054 181.95 260.149 181.554 260.149 181.107C260.149 180.66 260.054 180.267 259.863 179.93C259.672 179.593 259.416 179.329 259.093 179.138C258.77 178.947 258.404 178.852 257.993 178.852C257.582 178.852 257.212 178.947 256.882 179.138C256.559 179.329 256.303 179.593 256.112 179.93C255.929 180.267 255.837 180.66 255.837 181.107C255.837 181.554 255.929 181.95 256.112 182.295C256.303 182.632 256.559 182.896 256.882 183.087C257.212 183.27 257.582 183.362 257.993 183.362ZM268.24 184V178.225H269.021V184H268.24ZM265.039 180.26C265.765 180.267 266.319 180.429 266.7 180.744C267.081 181.059 267.272 181.514 267.272 182.108C267.272 182.724 267.067 183.197 266.656 183.527C266.245 183.857 265.659 184.018 264.896 184.011L262.608 184V178.225H263.389V180.238L265.039 180.26ZM264.841 183.417C265.384 183.424 265.791 183.318 266.062 183.098C266.341 182.871 266.48 182.541 266.48 182.108C266.48 181.675 266.344 181.36 266.073 181.162C265.802 180.957 265.391 180.85 264.841 180.843L263.389 180.821V183.395L264.841 183.417Z" fill="#444444"/>
<path d="M115.49 154.52C114.657 154.52 113.943 154.403 113.35 154.17C112.757 153.93 112.3 153.583 111.98 153.13C111.66 152.677 111.5 152.13 111.5 151.49C111.5 150.85 111.66 150.307 111.98 149.86C112.3 149.407 112.757 149.06 113.35 148.82C113.943 148.58 114.657 148.46 115.49 148.46C115.497 148.46 115.513 148.46 115.54 148.46C115.567 148.46 115.593 148.46 115.62 148.46C115.647 148.46 115.663 148.46 115.67 148.46C116.51 148.46 117.227 148.58 117.82 148.82C118.413 149.06 118.87 149.407 119.19 149.86C119.51 150.307 119.67 150.85 119.67 151.49C119.67 152.13 119.51 152.677 119.19 153.13C118.877 153.583 118.423 153.93 117.83 154.17C117.237 154.403 116.527 154.52 115.7 154.52C115.687 154.52 115.663 154.52 115.63 154.52C115.603 154.52 115.573 154.52 115.54 154.52C115.513 154.52 115.497 154.52 115.49 154.52ZM115.57 153.94C115.583 153.94 115.597 153.94 115.61 153.94C115.623 153.94 115.633 153.94 115.64 153.94C116.34 153.933 116.937 153.837 117.43 153.65C117.93 153.457 118.31 153.18 118.57 152.82C118.83 152.453 118.96 152.01 118.96 151.49C118.96 150.963 118.827 150.52 118.56 150.16C118.3 149.8 117.923 149.527 117.43 149.34C116.943 149.147 116.353 149.05 115.66 149.05C115.653 149.05 115.64 149.05 115.62 149.05C115.6 149.05 115.583 149.05 115.57 149.05C114.863 149.05 114.26 149.143 113.76 149.33C113.26 149.517 112.877 149.793 112.61 150.16C112.343 150.52 112.21 150.963 112.21 151.49C112.21 152.023 112.343 152.473 112.61 152.84C112.883 153.2 113.27 153.473 113.77 153.66C114.277 153.847 114.877 153.94 115.57 153.94ZM115.24 155.24V147.76H115.93V155.24H115.24ZM121.18 155V149.75H121.89V153.92L125.4 149.75H126.03V155H125.32V150.82L121.82 155H121.18ZM129.367 155.06C128.987 155.06 128.611 155.007 128.237 154.9C127.864 154.793 127.534 154.63 127.247 154.41L127.477 153.88C127.731 154.067 128.024 154.21 128.357 154.31C128.691 154.403 129.021 154.45 129.347 154.45C129.674 154.443 129.957 154.397 130.197 154.31C130.437 154.223 130.624 154.103 130.757 153.95C130.891 153.797 130.957 153.623 130.957 153.43C130.957 153.15 130.831 152.933 130.577 152.78C130.324 152.62 129.977 152.54 129.537 152.54H128.637V152.02H129.487C129.747 152.02 129.977 151.987 130.177 151.92C130.377 151.853 130.531 151.757 130.637 151.63C130.751 151.503 130.807 151.353 130.807 151.18C130.807 150.993 130.741 150.833 130.607 150.7C130.481 150.567 130.304 150.467 130.077 150.4C129.851 150.333 129.594 150.3 129.307 150.3C129.047 150.307 128.777 150.347 128.497 150.42C128.217 150.487 127.941 150.59 127.667 150.73L127.467 150.18C127.774 150.02 128.077 149.9 128.377 149.82C128.684 149.733 128.991 149.69 129.297 149.69C129.717 149.677 130.094 149.727 130.427 149.84C130.767 149.953 131.037 150.117 131.237 150.33C131.437 150.537 131.537 150.787 131.537 151.08C131.537 151.34 131.457 151.567 131.297 151.76C131.137 151.953 130.924 152.103 130.657 152.21C130.391 152.317 130.087 152.37 129.747 152.37L129.777 152.18C130.377 152.18 130.844 152.297 131.177 152.53C131.517 152.763 131.687 153.08 131.687 153.48C131.687 153.793 131.584 154.07 131.377 154.31C131.171 154.543 130.891 154.727 130.537 154.86C130.191 154.993 129.801 155.06 129.367 155.06ZM133.349 155.05C133.202 155.05 133.076 154.997 132.969 154.89C132.869 154.783 132.819 154.653 132.819 154.5C132.819 154.34 132.869 154.21 132.969 154.11C133.076 154.01 133.202 153.96 133.349 153.96C133.496 153.96 133.619 154.01 133.719 154.11C133.826 154.21 133.879 154.34 133.879 154.5C133.879 154.653 133.826 154.783 133.719 154.89C133.619 154.997 133.496 155.05 133.349 155.05Z" fill="#A4A4A4"/>
<path d="M76.914 51V43.63L77.266 44.004H75.099V43.3H77.706V51H76.914ZM81.8456 51.066C81.2883 51.066 80.7603 50.978 80.2616 50.802C79.7703 50.6187 79.3743 50.3767 79.0736 50.076L79.4586 49.449C79.7079 49.7057 80.0416 49.9183 80.4596 50.087C80.8849 50.2557 81.3469 50.34 81.8456 50.34C82.4836 50.34 82.9713 50.2007 83.3086 49.922C83.6533 49.6433 83.8256 49.2693 83.8256 48.8C83.8256 48.3307 83.6569 47.9567 83.3196 47.678C82.9896 47.3993 82.4653 47.26 81.7466 47.26H81.1966V46.677L83.5726 43.696L83.6826 44.004H79.3926V43.3H84.3426V43.861L81.9666 46.842L81.5816 46.589H81.8786C82.8026 46.589 83.4919 46.7943 83.9466 47.205C84.4086 47.6157 84.6396 48.1437 84.6396 48.789C84.6396 49.2217 84.5369 49.6103 84.3316 49.955C84.1263 50.2997 83.8146 50.571 83.3966 50.769C82.9859 50.967 82.4689 51.066 81.8456 51.066ZM88.6816 51.066C88.0656 51.066 87.5339 50.978 87.0866 50.802C86.6466 50.626 86.3056 50.373 86.0636 50.043C85.8289 49.7057 85.7116 49.3097 85.7116 48.855C85.7116 48.415 85.8253 48.041 86.0526 47.733C86.2873 47.4177 86.6246 47.1757 87.0646 47.007C87.5119 46.8383 88.0509 46.754 88.6816 46.754C89.3049 46.754 89.8403 46.8383 90.2876 47.007C90.7349 47.1757 91.0759 47.4177 91.3106 47.733C91.5526 48.041 91.6736 48.415 91.6736 48.855C91.6736 49.3097 91.5526 49.7057 91.3106 50.043C91.0686 50.373 90.7239 50.626 90.2766 50.802C89.8293 50.978 89.2976 51.066 88.6816 51.066ZM88.6816 50.395C89.3636 50.395 89.8953 50.2557 90.2766 49.977C90.6653 49.6983 90.8596 49.3207 90.8596 48.844C90.8596 48.3673 90.6653 47.9933 90.2766 47.722C89.8953 47.4433 89.3636 47.304 88.6816 47.304C87.9996 47.304 87.4679 47.4433 87.0866 47.722C86.7053 47.9933 86.5146 48.3673 86.5146 48.844C86.5146 49.3207 86.7053 49.6983 87.0866 49.977C87.4679 50.2557 87.9996 50.395 88.6816 50.395ZM88.6816 47.205C88.1096 47.205 87.6219 47.128 87.2186 46.974C86.8226 46.82 86.5183 46.6 86.3056 46.314C86.0929 46.0207 85.9866 45.6723 85.9866 45.269C85.9866 44.8437 86.0966 44.4807 86.3166 44.18C86.5439 43.872 86.8593 43.6373 87.2626 43.476C87.6659 43.3147 88.1389 43.234 88.6816 43.234C89.2243 43.234 89.6973 43.3147 90.1006 43.476C90.5113 43.6373 90.8303 43.872 91.0576 44.18C91.2849 44.4807 91.3986 44.8437 91.3986 45.269C91.3986 45.6723 91.2923 46.0207 91.0796 46.314C90.8669 46.6 90.5553 46.82 90.1446 46.974C89.7413 47.128 89.2536 47.205 88.6816 47.205ZM88.6816 46.677C89.2829 46.677 89.7523 46.5523 90.0896 46.303C90.4269 46.0537 90.5956 45.72 90.5956 45.302C90.5956 44.862 90.4196 44.521 90.0676 44.279C89.7229 44.0297 89.2609 43.905 88.6816 43.905C88.1023 43.905 87.6403 44.0297 87.2956 44.279C86.9509 44.521 86.7786 44.8583 86.7786 45.291C86.7786 45.7163 86.9436 46.0537 87.2736 46.303C87.6109 46.5523 88.0803 46.677 88.6816 46.677Z" fill="white"/>
<path d="M116.914 62V54.63L117.266 55.004H115.099V54.3H117.706V62H116.914ZM121.846 62.066C121.288 62.066 120.76 61.978 120.262 61.802C119.77 61.6187 119.374 61.3767 119.074 61.076L119.459 60.449C119.708 60.7057 120.042 60.9183 120.46 61.087C120.885 61.2557 121.347 61.34 121.846 61.34C122.484 61.34 122.971 61.2007 123.309 60.922C123.653 60.6433 123.826 60.2693 123.826 59.8C123.826 59.3307 123.657 58.9567 123.32 58.678C122.99 58.3993 122.465 58.26 121.747 58.26H121.197V57.677L123.573 54.696L123.683 55.004H119.393V54.3H124.343V54.861L121.967 57.842L121.582 57.589H121.879C122.803 57.589 123.492 57.7943 123.947 58.205C124.409 58.6157 124.64 59.1437 124.64 59.789C124.64 60.2217 124.537 60.6103 124.332 60.955C124.126 61.2997 123.815 61.571 123.397 61.769C122.986 61.967 122.469 62.066 121.846 62.066ZM128.079 62.066C127.529 62.066 127.005 61.978 126.506 61.802C126.008 61.6187 125.612 61.3767 125.318 61.076L125.703 60.449C125.945 60.7057 126.275 60.9183 126.693 61.087C127.119 61.2557 127.577 61.34 128.068 61.34C128.721 61.34 129.216 61.197 129.553 60.911C129.898 60.6177 130.07 60.2363 130.07 59.767C130.07 59.437 129.99 59.1547 129.828 58.92C129.674 58.678 129.41 58.491 129.036 58.359C128.662 58.227 128.149 58.161 127.496 58.161H125.857L126.253 54.3H130.466V55.004H126.572L126.979 54.619L126.638 57.853L126.231 57.457H127.672C128.45 57.457 129.073 57.5523 129.542 57.743C130.012 57.9337 130.349 58.2013 130.554 58.546C130.767 58.8833 130.873 59.2793 130.873 59.734C130.873 60.1667 130.771 60.5627 130.565 60.922C130.36 61.274 130.052 61.5527 129.641 61.758C129.231 61.9633 128.71 62.066 128.079 62.066Z" fill="white"/>
<path d="M156.914 54V46.63L157.266 47.004H155.099V46.3H157.706V54H156.914ZM161.846 54.066C161.288 54.066 160.76 53.978 160.262 53.802C159.77 53.6187 159.374 53.3767 159.074 53.076L159.459 52.449C159.708 52.7057 160.042 52.9183 160.46 53.087C160.885 53.2557 161.347 53.34 161.846 53.34C162.484 53.34 162.971 53.2007 163.309 52.922C163.653 52.6433 163.826 52.2693 163.826 51.8C163.826 51.3307 163.657 50.9567 163.32 50.678C162.99 50.3993 162.465 50.26 161.747 50.26H161.197V49.677L163.573 46.696L163.683 47.004H159.393V46.3H164.343V46.861L161.967 49.842L161.582 49.589H161.879C162.803 49.589 163.492 49.7943 163.947 50.205C164.409 50.6157 164.64 51.1437 164.64 51.789C164.64 52.2217 164.537 52.6103 164.332 52.955C164.126 53.2997 163.815 53.571 163.397 53.769C162.986 53.967 162.469 54.066 161.846 54.066ZM166.969 54L170.291 46.652L170.533 47.004H165.77L166.177 46.619V48.445H165.396V46.3H171.05V46.861L167.827 54H166.969Z" fill="white"/>
<path d="M196.914 50V42.63L197.266 43.004H195.099V42.3H197.706V50H196.914ZM201.846 50.066C201.288 50.066 200.76 49.978 200.262 49.802C199.77 49.6187 199.374 49.3767 199.074 49.076L199.459 48.449C199.708 48.7057 200.042 48.9183 200.46 49.087C200.885 49.2557 201.347 49.34 201.846 49.34C202.484 49.34 202.971 49.2007 203.309 48.922C203.653 48.6433 203.826 48.2693 203.826 47.8C203.826 47.3307 203.657 46.9567 203.32 46.678C202.99 46.3993 202.465 46.26 201.747 46.26H201.197V45.677L203.573 42.696L203.683 43.004H199.393V42.3H204.343V42.861L201.967 45.842L201.582 45.589H201.879C202.803 45.589 203.492 45.7943 203.947 46.205C204.409 46.6157 204.64 47.1437 204.64 47.789C204.64 48.2217 204.537 48.6103 204.332 48.955C204.126 49.2997 203.815 49.571 203.397 49.769C202.986 49.967 202.469 50.066 201.846 50.066ZM208.154 42.234C208.836 42.234 209.411 42.388 209.881 42.696C210.35 42.9967 210.706 43.433 210.948 44.005C211.19 44.577 211.311 45.27 211.311 46.084C211.311 46.9493 211.16 47.679 210.86 48.273C210.566 48.867 210.156 49.3143 209.628 49.615C209.1 49.9157 208.487 50.066 207.791 50.066C207.446 50.066 207.116 50.033 206.801 49.967C206.493 49.901 206.214 49.7947 205.965 49.648L206.284 49.01C206.482 49.142 206.709 49.2373 206.966 49.296C207.23 49.3473 207.501 49.373 207.78 49.373C208.608 49.373 209.268 49.109 209.76 48.581C210.258 48.053 210.508 47.2647 210.508 46.216C210.508 46.0473 210.497 45.8457 210.475 45.611C210.46 45.3763 210.42 45.1417 210.354 44.907L210.629 45.116C210.555 45.4973 210.398 45.8237 210.156 46.095C209.921 46.359 209.628 46.5607 209.276 46.7C208.931 46.8393 208.546 46.909 208.121 46.909C207.615 46.909 207.164 46.8137 206.768 46.623C206.379 46.4323 206.075 46.1647 205.855 45.82C205.635 45.4753 205.525 45.0683 205.525 44.599C205.525 44.115 205.638 43.697 205.866 43.345C206.093 42.993 206.405 42.7217 206.801 42.531C207.204 42.333 207.655 42.234 208.154 42.234ZM208.187 42.905C207.82 42.905 207.494 42.9747 207.208 43.114C206.929 43.246 206.709 43.4367 206.548 43.686C206.386 43.9353 206.306 44.2323 206.306 44.577C206.306 45.083 206.478 45.4863 206.823 45.787C207.175 46.0877 207.648 46.238 208.242 46.238C208.638 46.238 208.982 46.1647 209.276 46.018C209.576 45.8713 209.807 45.6697 209.969 45.413C210.137 45.1563 210.222 44.8703 210.222 44.555C210.222 44.269 210.145 44.0013 209.991 43.752C209.837 43.5027 209.609 43.301 209.309 43.147C209.008 42.9857 208.634 42.905 208.187 42.905Z" fill="white"/>
<path d="M236.914 56V48.63L237.266 49.004H235.099V48.3H237.706V56H236.914ZM241.846 56.066C241.288 56.066 240.76 55.978 240.262 55.802C239.77 55.6187 239.374 55.3767 239.074 55.076L239.459 54.449C239.708 54.7057 240.042 54.9183 240.46 55.087C240.885 55.2557 241.347 55.34 241.846 55.34C242.484 55.34 242.971 55.2007 243.309 54.922C243.653 54.6433 243.826 54.2693 243.826 53.8C243.826 53.3307 243.657 52.9567 243.32 52.678C242.99 52.3993 242.465 52.26 241.747 52.26H241.197V51.677L243.573 48.696L243.683 49.004H239.393V48.3H244.343V48.861L241.967 51.842L241.582 51.589H241.879C242.803 51.589 243.492 51.7943 243.947 52.205C244.409 52.6157 244.64 53.1437 244.64 53.789C244.64 54.2217 244.537 54.6103 244.332 54.955C244.126 55.2997 243.815 55.571 243.397 55.769C242.986 55.967 242.469 56.066 241.846 56.066ZM248.913 56.066C248.231 56.066 247.655 55.9157 247.186 55.615C246.716 55.307 246.361 54.867 246.119 54.295C245.877 53.7157 245.756 53.0227 245.756 52.216C245.756 51.3433 245.902 50.6137 246.196 50.027C246.496 49.433 246.911 48.9857 247.439 48.685C247.967 48.3843 248.579 48.234 249.276 48.234C249.62 48.234 249.95 48.267 250.266 48.333C250.581 48.399 250.86 48.5053 251.102 48.652L250.783 49.29C250.585 49.158 250.357 49.0663 250.101 49.015C249.844 48.9563 249.573 48.927 249.287 48.927C248.458 48.927 247.794 49.191 247.296 49.719C246.804 50.247 246.559 51.0353 246.559 52.084C246.559 52.2453 246.566 52.447 246.581 52.689C246.603 52.9237 246.647 53.1583 246.713 53.393L246.438 53.184C246.518 52.8027 246.676 52.48 246.911 52.216C247.145 51.9447 247.439 51.7393 247.791 51.6C248.143 51.4607 248.528 51.391 248.946 51.391C249.459 51.391 249.91 51.4863 250.299 51.677C250.687 51.8677 250.992 52.1353 251.212 52.48C251.432 52.8247 251.542 53.2317 251.542 53.701C251.542 54.1777 251.428 54.5957 251.201 54.955C250.973 55.307 250.658 55.582 250.255 55.78C249.859 55.9707 249.411 56.066 248.913 56.066ZM248.88 55.395C249.246 55.395 249.569 55.329 249.848 55.197C250.134 55.0577 250.357 54.8633 250.519 54.614C250.68 54.3573 250.761 54.0603 250.761 53.723C250.761 53.217 250.585 52.8137 250.233 52.513C249.888 52.2123 249.419 52.062 248.825 52.062C248.429 52.062 248.084 52.1353 247.791 52.282C247.497 52.4287 247.266 52.6303 247.098 52.887C246.929 53.1363 246.845 53.4223 246.845 53.745C246.845 54.0237 246.922 54.2913 247.076 54.548C247.23 54.7973 247.457 55.0027 247.758 55.164C248.066 55.318 248.44 55.395 248.88 55.395Z" fill="white"/>
<path d="M276.914 62V54.63L277.266 55.004H275.099V54.3H277.706V62H276.914ZM281.846 62.066C281.288 62.066 280.76 61.978 280.262 61.802C279.77 61.6187 279.374 61.3767 279.074 61.076L279.459 60.449C279.708 60.7057 280.042 60.9183 280.46 61.087C280.885 61.2557 281.347 61.34 281.846 61.34C282.484 61.34 282.971 61.2007 283.309 60.922C283.653 60.6433 283.826 60.2693 283.826 59.8C283.826 59.3307 283.657 58.9567 283.32 58.678C282.99 58.3993 282.465 58.26 281.747 58.26H281.197V57.677L283.573 54.696L283.683 55.004H279.393V54.3H284.343V54.861L281.967 57.842L281.582 57.589H281.879C282.803 57.589 283.492 57.7943 283.947 58.205C284.409 58.6157 284.64 59.1437 284.64 59.789C284.64 60.2217 284.537 60.6103 284.332 60.955C284.126 61.2997 283.815 61.571 283.397 61.769C282.986 61.967 282.469 62.066 281.846 62.066ZM288.079 62.066C287.529 62.066 287.005 61.978 286.506 61.802C286.008 61.6187 285.612 61.3767 285.318 61.076L285.703 60.449C285.945 60.7057 286.275 60.9183 286.693 61.087C287.119 61.2557 287.577 61.34 288.068 61.34C288.721 61.34 289.216 61.197 289.553 60.911C289.898 60.6177 290.07 60.2363 290.07 59.767C290.07 59.437 289.99 59.1547 289.828 58.92C289.674 58.678 289.41 58.491 289.036 58.359C288.662 58.227 288.149 58.161 287.496 58.161H285.857L286.253 54.3H290.466V55.004H286.572L286.979 54.619L286.638 57.853L286.231 57.457H287.672C288.45 57.457 289.073 57.5523 289.542 57.743C290.012 57.9337 290.349 58.2013 290.554 58.546C290.767 58.8833 290.873 59.2793 290.873 59.734C290.873 60.1667 290.771 60.5627 290.565 60.922C290.36 61.274 290.052 61.5527 289.641 61.758C289.231 61.9633 288.71 62.066 288.079 62.066Z" fill="white"/>
<path d="M67.18 155V148H67.79L70.99 153.46H70.67L73.84 148H74.45V155H73.74V149.11H73.91L70.99 154.11H70.64L67.7 149.11H67.89V155H67.18ZM79.8989 155V153.84L79.8689 153.65V151.71C79.8689 151.263 79.7422 150.92 79.4889 150.68C79.2422 150.44 78.8722 150.32 78.3789 150.32C78.0389 150.32 77.7156 150.377 77.4089 150.49C77.1022 150.603 76.8422 150.753 76.6289 150.94L76.3089 150.41C76.5756 150.183 76.8956 150.01 77.2689 149.89C77.6422 149.763 78.0356 149.7 78.4489 149.7C79.1289 149.7 79.6522 149.87 80.0189 150.21C80.3922 150.543 80.5789 151.053 80.5789 151.74V155H79.8989ZM78.0889 155.05C77.6956 155.05 77.3522 154.987 77.0589 154.86C76.7722 154.727 76.5522 154.547 76.3989 154.32C76.2456 154.087 76.1689 153.82 76.1689 153.52C76.1689 153.247 76.2322 153 76.3589 152.78C76.4922 152.553 76.7056 152.373 76.9989 152.24C77.2989 152.1 77.6989 152.03 78.1989 152.03H80.0089V152.56H78.2189C77.7122 152.56 77.3589 152.65 77.1589 152.83C76.9656 153.01 76.8689 153.233 76.8689 153.5C76.8689 153.8 76.9856 154.04 77.2189 154.22C77.4522 154.4 77.7789 154.49 78.1989 154.49C78.5989 154.49 78.9422 154.4 79.2289 154.22C79.5222 154.033 79.7356 153.767 79.8689 153.42L80.0289 153.91C79.8956 154.257 79.6622 154.533 79.3289 154.74C79.0022 154.947 78.5889 155.05 78.0889 155.05ZM83.469 155V150.18L83.649 150.37H81.479V149.75H86.169V150.37H83.999L84.179 150.18V155H83.469ZM89.2014 155.05C88.6547 155.05 88.1747 154.937 87.7614 154.71C87.3481 154.477 87.0247 154.16 86.7914 153.76C86.5581 153.353 86.4414 152.89 86.4414 152.37C86.4414 151.85 86.5514 151.39 86.7714 150.99C86.9981 150.59 87.3047 150.277 87.6914 150.05C88.0847 149.817 88.5247 149.7 89.0114 149.7C89.5047 149.7 89.9414 149.813 90.3214 150.04C90.7081 150.26 91.0114 150.573 91.2314 150.98C91.4514 151.38 91.5614 151.843 91.5614 152.37C91.5614 152.403 91.5581 152.44 91.5514 152.48C91.5514 152.513 91.5514 152.55 91.5514 152.59H86.9814V152.06H91.1714L90.8914 152.27C90.8914 151.89 90.8081 151.553 90.6414 151.26C90.4814 150.96 90.2614 150.727 89.9814 150.56C89.7014 150.393 89.3781 150.31 89.0114 150.31C88.6514 150.31 88.3281 150.393 88.0414 150.56C87.7547 150.727 87.5314 150.96 87.3714 151.26C87.2114 151.56 87.1314 151.903 87.1314 152.29V152.4C87.1314 152.8 87.2181 153.153 87.3914 153.46C87.5714 153.76 87.8181 153.997 88.1314 154.17C88.4514 154.337 88.8147 154.42 89.2214 154.42C89.5414 154.42 89.8381 154.363 90.1114 154.25C90.3914 154.137 90.6314 153.963 90.8314 153.73L91.2314 154.19C90.9981 154.47 90.7047 154.683 90.3514 154.83C90.0047 154.977 89.6214 155.05 89.2014 155.05ZM93.133 155V149.75H93.853L96.233 153.78H95.933L98.353 149.75H99.013V155H98.363V150.56L98.493 150.62L96.233 154.36H95.913L93.633 150.58L93.783 150.55V155H93.133Z" fill="#A4A4A4"/>
<path d="M152.18 155V148H152.91V153.8L157.39 148H158.06V155H157.33V149.21L152.85 155H152.18ZM160.252 155V149.75H160.962V152.07H164.272V149.75H164.982V155H164.272V152.68H160.962V155H160.252ZM169.95 155.06C169.95 155.06 169.937 155.06 169.91 155.06C169.884 155.06 169.857 155.06 169.83 155.06C169.81 155.06 169.794 155.06 169.78 155.06C168.74 155.053 167.93 154.817 167.35 154.35C166.77 153.883 166.48 153.22 166.48 152.36C166.48 151.513 166.77 150.86 167.35 150.4C167.937 149.933 168.76 149.697 169.82 149.69C169.827 149.69 169.84 149.69 169.86 149.69C169.887 149.69 169.91 149.69 169.93 149.69C169.95 149.69 169.964 149.69 169.97 149.69C171.037 149.697 171.867 149.933 172.46 150.4C173.054 150.86 173.35 151.513 173.35 152.36C173.35 153.227 173.05 153.893 172.45 154.36C171.857 154.827 171.024 155.06 169.95 155.06ZM169.94 154.44C170.534 154.44 171.03 154.36 171.43 154.2C171.83 154.033 172.134 153.797 172.34 153.49C172.547 153.183 172.65 152.807 172.65 152.36C172.65 151.927 172.547 151.56 172.34 151.26C172.134 150.953 171.83 150.72 171.43 150.56C171.03 150.4 170.534 150.32 169.94 150.32C169.934 150.32 169.914 150.32 169.88 150.32C169.854 150.32 169.837 150.32 169.83 150.32C169.25 150.32 168.764 150.403 168.37 150.57C167.977 150.73 167.68 150.96 167.48 151.26C167.28 151.56 167.18 151.927 167.18 152.36C167.18 152.8 167.28 153.173 167.48 153.48C167.687 153.787 167.987 154.023 168.38 154.19C168.774 154.35 169.257 154.433 169.83 154.44C169.844 154.44 169.864 154.44 169.89 154.44C169.917 154.44 169.934 154.44 169.94 154.44ZM169.56 156.94V147.58H170.25V156.94H169.56ZM174.755 155.05C174.609 155.05 174.482 154.997 174.375 154.89C174.275 154.783 174.225 154.653 174.225 154.5C174.225 154.34 174.275 154.21 174.375 154.11C174.482 154.01 174.609 153.96 174.755 153.96C174.902 153.96 175.025 154.01 175.125 154.11C175.232 154.21 175.285 154.34 175.285 154.5C175.285 154.653 175.232 154.783 175.125 154.89C175.025 154.997 174.902 155.05 174.755 155.05Z" fill="#A4A4A4"/>
<path d="M195.18 155V148H199.63V148.64H195.71L195.9 148.45L195.91 155H195.18ZM201.459 155.05C200.913 155.05 200.433 154.937 200.019 154.71C199.606 154.477 199.283 154.16 199.049 153.76C198.816 153.353 198.699 152.89 198.699 152.37C198.699 151.85 198.809 151.39 199.029 150.99C199.256 150.59 199.563 150.277 199.949 150.05C200.343 149.817 200.783 149.7 201.269 149.7C201.763 149.7 202.199 149.813 202.579 150.04C202.966 150.26 203.269 150.573 203.489 150.98C203.709 151.38 203.819 151.843 203.819 152.37C203.819 152.403 203.816 152.44 203.809 152.48C203.809 152.513 203.809 152.55 203.809 152.59H199.239V152.06H203.429L203.149 152.27C203.149 151.89 203.066 151.553 202.899 151.26C202.739 150.96 202.519 150.727 202.239 150.56C201.959 150.393 201.636 150.31 201.269 150.31C200.909 150.31 200.586 150.393 200.299 150.56C200.013 150.727 199.789 150.96 199.629 151.26C199.469 151.56 199.389 151.903 199.389 152.29V152.4C199.389 152.8 199.476 153.153 199.649 153.46C199.829 153.76 200.076 153.997 200.389 154.17C200.709 154.337 201.073 154.42 201.479 154.42C201.799 154.42 202.096 154.363 202.369 154.25C202.649 154.137 202.889 153.963 203.089 153.73L203.489 154.19C203.256 154.47 202.963 154.683 202.609 154.83C202.263 154.977 201.879 155.05 201.459 155.05ZM207.551 155.05C207.044 155.05 206.588 154.937 206.181 154.71C205.781 154.477 205.464 154.16 205.231 153.76C204.998 153.353 204.881 152.89 204.881 152.37C204.881 151.843 204.998 151.38 205.231 150.98C205.464 150.58 205.781 150.267 206.181 150.04C206.581 149.813 207.038 149.7 207.551 149.7C208.071 149.7 208.531 149.813 208.931 150.04C209.338 150.267 209.654 150.58 209.881 150.98C210.114 151.38 210.231 151.843 210.231 152.37C210.231 152.89 210.114 153.353 209.881 153.76C209.654 154.16 209.338 154.477 208.931 154.71C208.524 154.937 208.064 155.05 207.551 155.05ZM207.551 154.42C207.931 154.42 208.268 154.337 208.561 154.17C208.854 153.997 209.084 153.757 209.251 153.45C209.424 153.137 209.511 152.777 209.511 152.37C209.511 151.957 209.424 151.597 209.251 151.29C209.084 150.983 208.854 150.747 208.561 150.58C208.268 150.407 207.934 150.32 207.561 150.32C207.188 150.32 206.854 150.407 206.561 150.58C206.268 150.747 206.034 150.983 205.861 151.29C205.688 151.597 205.601 151.957 205.601 152.37C205.601 152.777 205.688 153.137 205.861 153.45C206.034 153.757 206.268 153.997 206.561 154.17C206.854 154.337 207.184 154.42 207.551 154.42ZM211.652 155.05C211.505 155.05 211.378 154.997 211.272 154.89C211.172 154.783 211.122 154.653 211.122 154.5C211.122 154.34 211.172 154.21 211.272 154.11C211.378 154.01 211.505 153.96 211.652 153.96C211.798 153.96 211.922 154.01 212.022 154.11C212.128 154.21 212.182 154.34 212.182 154.5C212.182 154.653 212.128 154.783 212.022 154.89C211.922 154.997 211.798 155.05 211.652 155.05Z" fill="#A4A4A4"/>
<path d="M230.86 155V148.44L231.06 148.64H228.4V148H234.05V148.64H231.4L231.59 148.44V155H230.86ZM238.146 155V153.84L238.116 153.65V151.71C238.116 151.263 237.989 150.92 237.736 150.68C237.489 150.44 237.119 150.32 236.626 150.32C236.286 150.32 235.963 150.377 235.656 150.49C235.349 150.603 235.089 150.753 234.876 150.94L234.556 150.41C234.823 150.183 235.143 150.01 235.516 149.89C235.889 149.763 236.283 149.7 236.696 149.7C237.376 149.7 237.899 149.87 238.266 150.21C238.639 150.543 238.826 151.053 238.826 151.74V155H238.146ZM236.336 155.05C235.943 155.05 235.599 154.987 235.306 154.86C235.019 154.727 234.799 154.547 234.646 154.32C234.493 154.087 234.416 153.82 234.416 153.52C234.416 153.247 234.479 153 234.606 152.78C234.739 152.553 234.953 152.373 235.246 152.24C235.546 152.1 235.946 152.03 236.446 152.03H238.256V152.56H236.466C235.959 152.56 235.606 152.65 235.406 152.83C235.213 153.01 235.116 153.233 235.116 153.5C235.116 153.8 235.233 154.04 235.466 154.22C235.699 154.4 236.026 154.49 236.446 154.49C236.846 154.49 237.189 154.4 237.476 154.22C237.769 154.033 237.983 153.767 238.116 153.42L238.276 153.91C238.143 154.257 237.909 154.533 237.576 154.74C237.249 154.947 236.836 155.05 236.336 155.05ZM243.426 155.05C242.973 155.05 242.563 154.947 242.196 154.74C241.829 154.527 241.536 154.223 241.316 153.83C241.103 153.43 240.996 152.943 240.996 152.37C240.996 151.797 241.103 151.313 241.316 150.92C241.529 150.52 241.819 150.217 242.186 150.01C242.553 149.803 242.966 149.7 243.426 149.7C243.926 149.7 244.373 149.813 244.766 150.04C245.166 150.26 245.479 150.573 245.706 150.98C245.933 151.38 246.046 151.843 246.046 152.37C246.046 152.903 245.933 153.37 245.706 153.77C245.479 154.17 245.166 154.483 244.766 154.71C244.373 154.937 243.926 155.05 243.426 155.05ZM240.716 156.94V149.75H241.396V151.33L241.326 152.38L241.426 153.44V156.94H240.716ZM243.376 154.42C243.749 154.42 244.083 154.337 244.376 154.17C244.669 153.997 244.903 153.757 245.076 153.45C245.249 153.137 245.336 152.777 245.336 152.37C245.336 151.963 245.249 151.607 245.076 151.3C244.903 150.993 244.669 150.753 244.376 150.58C244.083 150.407 243.749 150.32 243.376 150.32C243.003 150.32 242.666 150.407 242.366 150.58C242.073 150.753 241.839 150.993 241.666 151.3C241.499 151.607 241.416 151.963 241.416 152.37C241.416 152.777 241.499 153.137 241.666 153.45C241.839 153.757 242.073 153.997 242.366 154.17C242.666 154.337 243.003 154.42 243.376 154.42ZM247.572 155V149.75H248.282V153.92L251.792 149.75H252.422V155H251.712V150.82L248.212 155H247.572ZM253.596 155L255.816 152.12L255.806 152.47L253.696 149.75H254.496L256.226 152L255.926 151.99L257.656 149.75H258.436L256.306 152.5L256.316 152.12L258.556 155H257.746L255.916 152.6L256.196 152.64L254.396 155H253.596Z" fill="#A4A4A4"/>
<path d="M267.83 148H268.68L270.67 150.77L272.65 148H273.52L271.13 151.36L273.71 155H272.84L270.67 151.99L268.5 155H267.65L270.22 151.39L267.83 148ZM274.846 155V149.75H275.556V153.92L279.066 149.75H279.696V155H278.986V150.82L275.486 155H274.846ZM281.731 155V149.75H282.451L284.831 153.78H284.531L286.951 149.75H287.611V155H286.961V150.56L287.091 150.62L284.831 154.36H284.511L282.231 150.58L282.381 150.55V155H281.731ZM289.631 155V149.75H290.341V153.92L293.851 149.75H294.481V155H293.771V150.82L290.271 155H289.631ZM299.906 155V153.11L300.036 153.26H298.256C297.583 153.26 297.056 153.113 296.676 152.82C296.296 152.527 296.106 152.1 296.106 151.54C296.106 150.94 296.309 150.493 296.716 150.2C297.123 149.9 297.666 149.75 298.346 149.75H300.556V155H299.906ZM296.066 155L297.506 152.98H298.246L296.836 155H296.066ZM299.906 152.9V150.16L300.036 150.37H298.366C297.879 150.37 297.499 150.463 297.226 150.65C296.959 150.837 296.826 151.14 296.826 151.56C296.826 152.34 297.323 152.73 298.316 152.73H300.036L299.906 152.9Z" fill="#A4A4A4"/>
</svg>
